<?xml version="1.0" encoding="utf-8"?>
<svg version="1.1" xmlns:xlink="http://www.w3.org/1999/xlink" width="100px" height="100px" xmlns="http://www.w3.org/2000/svg">
  <g transform="matrix(1 0 0 1 -60 -142 )">
    <path d="M 110 142  C 138 142  160 164  160 192  C 160 220  138 242  110 242  C 82 242  60 220  60 192  C 60 164  82 142  110 142  Z " fill-rule="nonzero" fill="#e9e9e9" stroke="none" />
    <path d="M 110 142.5  C 137.72 142.5  159.5 164.28  159.5 192  C 159.5 219.72  137.72 241.5  110 241.5  C 82.28 241.5  60.5 219.72  60.5 192  C 60.5 164.28  82.28 142.5  110 142.5  Z " stroke-width="1" stroke="#ffffff" fill="none" />
  </g>
</svg>