<?xml version="1.0" encoding="utf-8"?>
<svg version="1.1" xmlns:xlink="http://www.w3.org/1999/xlink" width="80px" height="80px" xmlns="http://www.w3.org/2000/svg">
  <g transform="matrix(1 0 0 1 -70 -152 )">
    <path d="M 110 152  C 132.4 152  150 169.6  150 192  C 150 214.4  132.4 232  110 232  C 87.6 232  70 214.4  70 192  C 70 169.6  87.6 152  110 152  Z " fill-rule="nonzero" fill="#ffffff" stroke="none" />
    <path d="M 110 152.5  C 132.12 152.5  149.5 169.88  149.5 192  C 149.5 214.12  132.12 231.5  110 231.5  C 87.88 231.5  70.5 214.12  70.5 192  C 70.5 169.88  87.88 152.5  110 152.5  Z " stroke-width="1" stroke="#ffffff" fill="none" />
  </g>
</svg>