<?xml version="1.0" standalone="no"?><!DOCTYPE svg PUBLIC "-//W3C//DTD SVG 1.1//EN" "http://www.w3.org/Graphics/SVG/1.1/DTD/svg11.dtd"><svg t="1532930260870" class="icon" style="" viewBox="0 0 1024 1024" version="1.1" xmlns="http://www.w3.org/2000/svg" p-id="3727" xmlns:xlink="http://www.w3.org/1999/xlink" width="48" height="48"><defs><style type="text/css"></style></defs><path d="M213.339 910.183c0-27.464 22.352-49.817 49.917-49.817h497.466c27.565 0 49.917 22.052 49.917 49.817 0 27.464-22.352 49.817-49.917 49.817H263.256c-27.564-0.1-49.917-22.152-49.917-49.817z m74.675-373.174c0-123.79 100.235-224.125 224.025-224.125 123.69 0 224.025 100.135 224.025 224.125V810.65h-448.05V537.009z m186.638-435.621C474.652 80.739 491.19 64 511.939 64c20.648 0 37.287 16.739 37.287 37.388v99.433c0 20.648-16.539 37.388-37.287 37.388-20.648 0-37.287-16.739-37.287-37.388v-99.433z" p-id="3728" fill="#999999"></path><path d="M474.652 101.388C474.652 80.739 491.19 64 511.939 64c20.648 0 37.287 16.739 37.287 37.388v99.433c0 20.648-16.539 37.388-37.287 37.388-20.648 0-37.287-16.739-37.287-37.388v-99.433zM218.05 348.968c17.842 10.324 24.056 33.077 13.732 51.02-10.324 17.842-33.178 23.956-51.02 13.632L94.66 363.903c-17.842-10.324-24.056-33.077-13.732-51.02 10.324-17.842 33.178-23.956 51.02-13.632l86.102 49.717z" p-id="3729" fill="#999999"></path><path d="M218.05 348.968c17.842 10.324 24.056 33.077 13.732 51.02-10.324 17.842-33.178 23.956-51.02 13.632L94.66 363.903c-17.842-10.324-24.056-33.077-13.732-51.02 10.324-17.842 33.178-23.956 51.02-13.632l86.102 49.717zM363.892 230.49c10.324 17.842 4.31 40.695-13.632 51.02-17.842 10.324-40.695 4.21-51.02-13.732l-49.817-86.102c-10.324-17.842-4.31-40.695 13.632-51.02 17.842-10.324 40.695-4.21 51.02 13.732l49.817 86.102z" p-id="3730" fill="#999999"></path><path d="M363.892 230.49c10.324 17.842 4.31 40.695-13.632 51.02-17.842 10.324-40.695 4.21-51.02-13.732l-49.817-86.102c-10.324-17.842-4.31-40.695 13.632-51.02 17.842-10.324 40.695-4.21 51.02 13.732l49.817 86.102z m360.846 37.388c-10.324 17.842-33.077 24.056-51.02 13.732-17.842-10.324-23.956-33.178-13.632-51.02l49.717-86.102c10.324-17.842 33.078-24.056 51.02-13.732 17.842 10.324 23.956 33.178 13.632 51.02l-49.717 86.102z" p-id="3731" fill="#999999"></path><path d="M724.738 267.878c-10.324 17.842-33.077 24.056-51.02 13.732-17.842-10.324-23.956-33.178-13.632-51.02l49.717-86.102c10.324-17.842 33.078-24.056 51.02-13.732 17.842 10.324 23.956 33.178 13.632 51.02l-49.717 86.102z m118.477 145.741c-17.842 10.324-40.695 4.31-51.02-13.632-10.324-17.842-4.21-40.695 13.732-51.02l86.102-49.717c17.842-10.324 40.695-4.31 51.02 13.632 10.324 17.842 4.21 40.695-13.732 51.02l-86.102 49.717z" p-id="3732" fill="#999999"></path><path d="M843.215 413.619c-17.842 10.324-40.695 4.31-51.02-13.632-10.324-17.842-4.21-40.695 13.732-51.02l86.102-49.717c17.842-10.324 40.695-4.31 51.02 13.632 10.324 17.842 4.21 40.695-13.732 51.02l-86.102 49.717z" p-id="3733" fill="#999999"></path></svg>