<?xml version="1.0" standalone="no"?><!DOCTYPE svg PUBLIC "-//W3C//DTD SVG 1.1//EN" "http://www.w3.org/Graphics/SVG/1.1/DTD/svg11.dtd"><svg t="1532930140049" class="icon" style="" viewBox="0 0 1024 1024" version="1.1" xmlns="http://www.w3.org/2000/svg" p-id="3001" xmlns:xlink="http://www.w3.org/1999/xlink" width="48" height="48"><defs><style type="text/css"></style></defs><path d="M903.247822 427.433976l-18.181081 0-42.377156-0.381693-0.288572 0c-8.503675-0.759293-16.645099-3.816932-23.726378-8.410554-0.479931 0-0.674359-0.199545-0.962931-0.577145-15.020088-9.765411-25.064862-27.173896-24.77629-46.505173 0-6.121418 1.242294-11.655458 3.15997-17.408485 1.718131-6.121418 4.78498-12.047384 8.899694-17.023722l9.369392-9.568936 21.145599-20.85805 12.443403-12.632715c18.078751-23.334451 18.078751-56.825217-0.675382-80.355119l-36.348859-37.316907c-24.204262-18.549471-57.592696-19.135826-81.225953-1.140986l-13.213953 12.615319-29.459962 30.240745-0.388856 0c-16.068977 13.005198-38.258349 15.500019-56.629765 7.456832-6.316869-2.863211-11.954263-6.493901-17.502629-11.857049-8.713452-9.374508-14.07046-20.674878-15.597233-32.723286L596.910878 167.784354l0-29.646204 0-18.376533c-3.635807-29.65439-27.179013-52.998051-57.504692-56.446593l-51.853995 0c-29.758768 3.2623-53.766554 26.596751-57.984622 56.068993l0 18.172895 0 30.231535 0 12.059664 0 0.186242c-0.186242 1.527796-0.759293 3.25002-0.856507 4.594645l0 0.573051c-0.474814 1.531889-0.669242 3.062755-0.856507 4.39817-0.575098 0-0.575098 0.577145-0.575098 0.577145-0.568958 1.344624-0.861624 3.448542-1.62501 4.403287-0.484024 1.714038-1.442862 3.062755-2.202155 4.584412l0 0.190335c-3.15997 6.512321-7.55814 12.051477-13.497409 16.841573-9.562796 8.229428-22.38073 13.20065-36.154431 13.20065-12.921287 0-24.976858-4.403287-34.258245-12.05557l-9.471722-9.56075-21.045315-20.665669-12.818957-13.010315c-23.539112-17.989723-56.922431-17.989723-80.369446 0.953721l-37.214577 36.736693c-18.757203 23.346731-19.046798 56.83238-1.149173 80.754209l12.824073 12.616342 30.037107 29.859052c0.577145 0.958838 1.047866 1.721201 1.62501 2.681062 0.381693 0.182149 0.768503 0.958838 1.537006 1.913583 0.376577 0.573051 0.759293 1.714038 1.331321 2.484587 0 0.186242 0.967024 1.140986 0.967024 1.723248 0.567935 0.768503 1.140986 2.099824 1.811252 3.057639 0 0.577145 0.186242 1.14508 0.485047 1.718131 0.568958 0.772596 0.759293 2.112104 1.622964 3.2623 0 0.376577 0.093121 0.958838 0.283456 1.526773 0.191358 1.723248 1.057075 3.066849 1.057075 4.780887 0.470721 1.731434 0.759293 3.248997 0.759293 4.980431 2.396583 16.449647-3.155876 33.675984-15.975856 46.309722-9.085936 9.179057-20.763906 14.531971-32.818453 15.876596l-13.099343 0-29.667693 0-17.894555 0c-29.749558 4.207835-53.194526 27.929096-56.540737 57.398268l-0.191358 52.244898c3.066849 30.037107 26.405393 53.571103 56.065923 57.592696l18.270109 0 42.288129 0.578168c1.529843 0.177032 3.635807 0.177032 5.077645 0.7552l1.432629 0c1.336438 0.573051 2.099824 0.963954 3.635807 1.14508 22.86987 7.079232 39.411615 28.328185 39.411615 53.575196 0 12.81998-4.394077 25.261337-12.148691 34.836413l-9.281387 8.983605-21.337981 20.862143-12.716626 12.627598c-17.799388 23.920806-17.799388 57.20691 0.662079 80.555687l37.028335 37.307697c23.632233 18.754133 56.736189 18.940374 80.746022 0.759293l12.623505-12.614296 30.338982-29.66974c0-0.376577 0.283456-0.376577 0.666172-0.573051 1.14508-1.149173 2.388397-1.717108 3.257184-2.867304 1.042749-0.194428 1.238201-0.194428 2.00261-0.763386 0.582261-0.376577 1.540076-1.154289 2.303462-1.727341 1.051959-0.567935 2.388397-0.76748 3.445472-1.339508 0.669242-0.376577 1.149173-0.573051 1.335415-0.958838 1.62501-0.186242 2.676969-0.759293 4.780887-1.336438 1.820462-0.568958 3.063779-1.343601 4.39817-1.343601l0.485047 0c1.433652-0.3776 2.965541-0.573051 4.589528-0.954745l0.381693 0c1.336438 0 2.682086 0 3.831258-0.573051 15.505136-0.573051 31.187303 4.790096 42.673915 16.654308 9.56075 9.179057 14.541181 21.045315 16.166191 33.099862l-0.191358 13.005198 0 29.469172 0 17.97642c3.63069 30.046317 27.449165 53.580313 57.205886 56.643068l52.332902 0c29.949103-3.058662 53.479005-26.405393 57.597813-55.679114l0-17.981537 0.474814-30.610158 0-12.063757c1.149173-10.906397 5.072529-19.899212 11.100826-27.937283 0.573051-0.963954 1.14508-1.537006 1.718131-2.109034 0.385786-0.189312 0.868787-1.330298 1.726318-1.716084 3.351328-3.635807 7.080256-6.889921 11.190877-9.757225 1.24741-0.199545 2.489704-1.140986 3.257184-1.727341 0.950651-0.577145 0.950651-0.577145 1.336438-0.577145 0.582261-0.186242 0.958838-0.186242 1.057075-0.186242 1.050935-0.76748 1.921769-0.76748 3.15997-1.339508l-50.037626-49.937342c-21.719674 6.316869-44.583404 9.374508-68.219731 9.374508-135.378294-0.191358-244.451478-109.823268-243.968477-244.521063 0-135.475508 110.023836-244.917082 245.210771-244.544599 134.9966 0.573051 243.968477 110.210078 243.768933 245.303892-0.089028 22.952758-3.530406 45.727461-9.657964 66.38699l50.420343 49.558719c2.587941-5.925966 6.692423-11.100826 11.287067-16.267499 5.179976-4.963035 12.065803-8.794293 18.368346-11.282974 4.695952-2.103918 9.573029-3.629667 14.260795-4.207835l13.494339 0 29.846772 0 17.706267 0c29.659507-4.012384 53.093219-27.551496 56.443523-57.207933L958.928982 484.845547C955.966511 455.376375 932.720064 431.455569 903.247822 427.433976z" fill="#999999" p-id="3002"></path><path d="M680.612209 590.079286c11.576663-24.302499 17.98563-51.467185 17.98563-79.981612 0-72.755024-41.550325-135.61877-102.280478-166.258605-25.305339-12.895705-53.928237-20.213367-84.276429-20.213367-102.68673 0-185.930643 83.243913-185.930643 185.930643 0 3.325745 0.095167 6.628978 0.268106 9.910721 4.868891 98.775654 86.323041 177.378873 186.039113 177.378873 28.318976 0 55.777351-6.497994 79.698157-18.176988l178.811502 177.75852c22.864754 22.38073 60.947094 21.040199 85.435835-3.830235 24.402783-24.297382 26.123984-62.768579 3.832282-85.149309L680.612209 590.079286zM510.920412 637.052111c-70.414723 0-127.496789-57.082066-127.496789-127.496789s57.082066-127.496789 127.496789-127.496789 127.496789 57.082066 127.496789 127.496789S581.335135 637.052111 510.920412 637.052111zM811.968909 839.777255c-17.307178 0-31.946596-14.164604-31.946596-31.763424 0-17.031908 14.639418-30.990828 31.946596-30.990828 17.514909 0 31.577183 13.959943 31.577183 30.990828C843.546092 825.612651 829.484841 839.777255 811.968909 839.777255z" fill="#999999" p-id="3003"></path></svg>