<?xml version="1.0" encoding="utf-8"?>
<svg version="1.1" xmlns:xlink="http://www.w3.org/1999/xlink" width="300px" height="50px" xmlns="http://www.w3.org/2000/svg">
  <g transform="matrix(1 0 0 1 -25 -230 )">
    <path d="M 26.5 233  A 1.5 1.5 0 0 1 28 231.5 L 322 231.5  A 1.5 1.5 0 0 1 323.5 233 L 323.5 277  A 1.5 1.5 0 0 1 322 278.5 L 28 278.5  A 1.5 1.5 0 0 1 26.5 277 L 26.5 233  Z " fill-rule="nonzero" fill="#ffffff" stroke="none" fill-opacity="0" />
    <path d="M 26 233  A 2 2 0 0 1 28 231 L 322 231  A 2 2 0 0 1 324 233 L 324 277  A 2 2 0 0 1 322 279 L 28 279  A 2 2 0 0 1 26 277 L 26 233  Z " stroke-width="2" stroke="#1abc9c" fill="none" />
  </g>
</svg>