<?xml version="1.0" encoding="utf-8"?>
<svg version="1.1" xmlns:xlink="http://www.w3.org/1999/xlink" width="110px" height="35px" xmlns="http://www.w3.org/2000/svg">
  <g transform="matrix(1 0 0 1 -1440 -93 )">
    <path d="M 1440.5 98  A 4.5 4.5 0 0 1 1445 93.5 L 1545 93.5  A 4.5 4.5 0 0 1 1549.5 98 L 1549.5 123  A 4.5 4.5 0 0 1 1545 127.5 L 1445 127.5  A 4.5 4.5 0 0 1 1440.5 123 L 1440.5 98  Z " fill-rule="nonzero" fill="#409eff" stroke="none" fill-opacity="0.0784313725490196" />
    <path d="M 1440.5 98  A 4.5 4.5 0 0 1 1445 93.5 L 1545 93.5  A 4.5 4.5 0 0 1 1549.5 98 L 1549.5 123  A 4.5 4.5 0 0 1 1545 127.5 L 1445 127.5  A 4.5 4.5 0 0 1 1440.5 123 L 1440.5 98  Z " stroke-width="1" stroke="#409eff" fill="none" />
  </g>
</svg>