<?xml version="1.0" encoding="utf-8"?>
<svg version="1.1" xmlns:xlink="http://www.w3.org/1999/xlink" width="300px" height="50px" xmlns="http://www.w3.org/2000/svg">
  <g transform="matrix(1 0 0 1 -820 -1296 )">
    <path d="M 821 1299  A 2 2 0 0 1 823 1297 L 1117 1297  A 2 2 0 0 1 1119 1299 L 1119 1343  A 2 2 0 0 1 1117 1345 L 823 1345  A 2 2 0 0 1 821 1343 L 821 1299  Z " fill-rule="nonzero" fill="#ffffff" stroke="none" fill-opacity="0" />
    <path d="M 820.5 1299  A 2.5 2.5 0 0 1 823 1296.5 L 1117 1296.5  A 2.5 2.5 0 0 1 1119.5 1299 L 1119.5 1343  A 2.5 2.5 0 0 1 1117 1345.5 L 823 1345.5  A 2.5 2.5 0 0 1 820.5 1343 L 820.5 1299  Z " stroke-width="1" stroke-dasharray="9,4" stroke="#cccccc" fill="none" stroke-dashoffset="0.5" />
  </g>
</svg>