<?xml version="1.0" encoding="utf-8"?>
<svg version="1.1" xmlns:xlink="http://www.w3.org/1999/xlink" width="42px" height="23px" xmlns="http://www.w3.org/2000/svg">
  <g transform="matrix(1 0 0 1 -853 -101 )">
    <path d="M 41 1  L 29.1604921875 1  L 34.2465937988281 5.90113100585937  L 24.1638299316406 15.9795978515625  L 15.8528647460938 9.76261293945312  C 15.8300801757813 9.74412548828125  15.7988513671875 9.738479296875  15.7747676757813 9.72558803710938  C 15.6880764648437 9.6673275390625  15.5927411132812 9.63050249023437  15.4948074707031 9.59057958984375  C 15.4082161621094 9.56089970703125  15.3328672851563 9.52242578125  15.2433279785156 9.50408823242187  C 15.1466935058594 9.48694985351563  15.0544060546875 9.4898978515625  14.9549235351563 9.49409501953125  C 14.8597880371094 9.4898978515625  14.7702987304688 9.48560078125  14.6736642089844 9.50263920898438  C 14.5870229492188 9.51962768554687  14.5060278808594 9.56094965820313  14.4235337890625 9.59222846679688  C 14.3242511230469 9.62910346679688  14.2289157226563 9.6673775390625  14.1352292480469 9.72858603515625  C 14.1110456542969 9.74417548828125  14.0840639160156 9.74272646484375  14.06427734375 9.76121391601563  L 1.0974189453125 19.4219139648438  C 0.4354177734375 19.9162788085938  0.29611220703125 20.8497458984375  0.79332509765625 21.51314609375  C 1.1031650390625 21.9294638183594  1.58898564453125 22.1383222167969  2.06916005859375 22.1126895996094  C 2.35476640625 22.0999482421875  2.63747475585938 22.0004656738281  2.88465712890625 21.8215370117188  L 14.9521753417969 12.8256861816406  L 23.4066931640625 19.1505479492187  C 23.4848401855469 19.2131555175781  23.5742795410156 19.2414862792969  23.6624197753906 19.2813092773437  C 23.7178821777344 19.3040438476562  23.7689475585938 19.3409188476563  23.8271581054688 19.3594063476563  C 24.0047376953125 19.4248619628906  24.1937595703125 19.454591796875  24.3827813964844 19.4460476074219  C 24.3827813964844 19.4460476074219  24.3827813964844 19.4460476074219  24.38418046875 19.4460476074219  C 24.5787485351563 19.4346553222656  24.7705185546875 19.3807418945313  24.9495471679688 19.2912525390625  C 25.0106057617188 19.2641708984375  25.0604219726563 19.2145045898437  25.1157344726563 19.1776295898437  C 25.1967295410156 19.1235662597656  25.2876679199219 19.0837432617187  25.3601187988281 19.0099432617187  L 36.3605604980469 8.01514775390625  L 41 13.1595098632812  L 41 1  Z " fill-rule="nonzero" fill="#1abc9c" stroke="none" transform="matrix(1 0 0 1 853 101 )" />
  </g>
</svg>