<?xml version="1.0" encoding="utf-8"?>
<svg version="1.1" xmlns:xlink="http://www.w3.org/1999/xlink" width="837px" height="153px" xmlns="http://www.w3.org/2000/svg">
  <g transform="matrix(1 0 0 1 -216 -543 )">
    <path d="M 0 89.4570044872447  C 0 89.4570044872447  27.7858596134282 88.1118016274981  72.115971515768 88.1118016274981  C 116.446083418108 88.1118016274981  112.840284842319 116.361061682178  149.322482197355 116.361061682178  C 185.804679552391 116.361061682178  172.477153816771 64.1055338288898  228.225839267548 64.5707515819312  C 268.525940996948 64.907052296868  274.395516940106 82.5443479751742  298.64496439471 82.7309901885113  C 342.338758901322 83.0672909034481  338.520854526958 -0.335286400845824  381.790437436419 0.00101431409099704  C 425.06002034588 0.337315029027818  402.610816093173 86.7030718663857  452.209562563581 92.1474102067381  C 479.783316378433 95.1741166411681  491.02492370295 91.6429591343331  527.719226856561 94.1652144963581  C 564.413530010173 96.6874698583831  563.777212614446 147.637028171288  606.622583926755 147.973328886225  C 649.467955239064 148.309629601161  640.275370229463 129.669367415203  682.980671414039 129.813090279645  C 729.126696787182 129.968392754169  731.340793489318 149.318531745971  765.277721261444 149.991133175845  C 799.214649033571 150.663734605718  813.069890619876 112.842411226725  834 114.343257392558  " stroke-width="2" stroke="#49a9ee" fill="none" transform="matrix(1 0 0 1 217 544 )" />
  </g>
</svg>