<?xml version="1.0" encoding="utf-8"?>
<svg version="1.1" xmlns:xlink="http://www.w3.org/1999/xlink" width="838px" height="181px" xmlns="http://www.w3.org/2000/svg">
  <g transform="matrix(1 0 0 1 -217 -543 )">
    <path d="M 837 180  L 1.27339114559562 180  C 1.27339114559562 180  0 89.7153258283989  0 90.1179330710815  C 12.3775264460762 89.7374938458319  46.0421810783197 87.9035932363264  71.9041533546326 87.9035932363264  C 116.26061159288 87.9035932363264  112.652670013692 116.086100224117  149.156549520767 116.086100224117  C 185.660429027841 116.086100224117  172.324982457944 63.9540523040863  228.106800547695 64.4181707465006  C 268.430853491556 64.7536767820697  274.303917849537 82.3492954898683  298.567777270653 82.5354966672233  C 342.287539936102 82.8710027027924  338.467366499315 -0.334494118304638  381.762665449566 0.00101191726445248  C 425.057964399818 0.336517952833543  402.59541810373 86.4981923069  452.223642172524 91.9296656631537  C 479.813783660429 94.9492199832741  491.062072113191 91.4264066098003  527.778183477864 93.9427018765673  C 564.494294842538 96.4589971433344  563.85759926974 147.288161532029  606.728434504792 147.623667567597  C 649.599269739845 147.959173603166  640.401221379891 129.362958399894  683.13190324053 129.506341646875  C 729.305354185888 129.661277141292  731.520766773163 148.965691709873  765.477863989046 149.636703781011  C 793.947134041204 150.199273182631  816.75308078503 115.07958211741  835.089913281607 116.086100224117  C 835.599269739845 116.690011088141  837 180  837 180  Z " fill-rule="nonzero" fill="#49a9ee" stroke="none" transform="matrix(1 0 0 1 217 543 )" />
    <path d="M 1.27339114559562 180  C 1.27339114559562 180  0 89.7153258283989  0 90.1179330710815  C 12.3775264460762 89.7374938458319  46.0421810783197 87.9035932363264  71.9041533546326 87.9035932363264  C 116.26061159288 87.9035932363264  112.652670013692 116.086100224117  149.156549520767 116.086100224117  C 185.660429027841 116.086100224117  172.324982457944 63.9540523040863  228.106800547695 64.4181707465006  C 268.430853491556 64.7536767820697  274.303917849537 82.3492954898683  298.567777270653 82.5354966672233  C 342.287539936102 82.8710027027924  338.467366499315 -0.334494118304638  381.762665449566 0.00101191726445248  C 425.057964399818 0.336517952833543  402.59541810373 86.4981923069  452.223642172524 91.9296656631537  C 479.813783660429 94.9492199832741  491.062072113191 91.4264066098003  527.778183477864 93.9427018765673  C 564.494294842538 96.4589971433344  563.85759926974 147.288161532029  606.728434504792 147.623667567597  C 649.599269739845 147.959173603166  640.401221379891 129.362958399894  683.13190324053 129.506341646875  C 729.305354185888 129.661277141292  731.520766773163 148.965691709873  765.477863989046 149.636703781011  C 793.947134041204 150.199273182631  816.75308078503 115.07958211741  835.089913281607 116.086100224117  C 835.599269739845 116.690011088141  837 180  837 180  " stroke-width="1" stroke="#2db7f5" fill="none" transform="matrix(1 0 0 1 217 543 )" />
  </g>
</svg>