<?xml version="1.0" encoding="utf-8"?>
<svg version="1.1" xmlns:xlink="http://www.w3.org/1999/xlink" width="41px" height="38px" xmlns="http://www.w3.org/2000/svg">
  <g transform="matrix(1 0 0 1 -587 -101 )">
    <path d="M 40.2593548387097 5.24579124579125  C 40.7531182795699 5.84287317620651  41 6.5679012345679  41 7.42087542087542  C 41 8.27384960718294  40.7531182795699 8.99887766554433  40.2593548387097 9.5959595959596  L 21.1083870967742 32.7542087542088  L 17.5109677419355 37.1043771043771  C 17.0172043010753 37.7014590347924  16.4176344086022 38  15.7122580645161 38  C 15.0068817204301 38  14.407311827957 37.7014590347924  13.9135483870968 37.1043771043771  L 10.3161290322581 32.7542087542088  L 0.740645161290323 21.1750841750842  C 0.246881720430108 20.5780022446689  0 19.8529741863075  0 19  C 0 18.1470258136925  0.246881720430108 17.4219977553311  0.740645161290323 16.8249158249158  L 4.33806451612903 12.4747474747475  C 4.83182795698925 11.8776655443322  5.43139784946237 11.5791245791246  6.13677419354839 11.5791245791246  C 6.84215053763441 11.5791245791246  7.44172043010753 11.8776655443322  7.93548387096774 12.4747474747475  L 15.7122580645161 21.9107744107744  L 33.0645161290323 0.895622895622896  C 33.5582795698925 0.298540965207631  34.1578494623656 0  34.8632258064516 0  C 35.5686021505376 0  36.1681720430108 0.298540965207631  36.661935483871 0.895622895622896  L 40.2593548387097 5.24579124579125  Z " fill-rule="nonzero" fill="#1abc9c" stroke="none" transform="matrix(1 0 0 1 587 101 )" />
  </g>
</svg>