<?xml version="1.0" encoding="utf-8"?>
<svg version="1.1" xmlns:xlink="http://www.w3.org/1999/xlink" width="5px" height="15px" xmlns="http://www.w3.org/2000/svg">
  <g transform="matrix(1 0 0 1 -877 -124 )">
    <path d="M 1.63568198242188 3.31234223632813  C 1.56328110351563 3.38624213867188  1.47384174804688 3.42741420898437  1.39149755859375 3.47992861328125  C 1.33743422851563 3.51685356445312  1.28776787109375 3.56656987304687  1.226609375 3.5935515625  C 1.04618168945313 3.6831408203125  0.854411718750001 3.73855327148438  0.659843652343753 3.74854648437501  C 0.658394628906255 3.74989555664063  0.658394628906255 3.74989555664063  0.658394628906255 3.74989555664063  C 0.469372802734377 3.75699072265626  0.280500830078125 3.7272109375  0.10292124023438 3.66180527343751  C 0.0829348144531323 3.65600917968751  0.0659462890625058 3.64466689453126  0.0474588378906304 3.63477358398438  L 0.0474588378906304 12.7300569824219  C 0.0474588378906304 13.5342117675781  0.698067724609384 14.1849206054688  1.5022724609375 14.1849206054688  L 2.95693618164063 14.1849206054688  C 3.76119091796876 14.1849206054688  4.41184975585939 13.5342117675781  4.41184975585939 12.7300569824219  L 4.41184975585937 0.537723437500002  L 1.63568198242188 3.31234223632813  Z " fill-rule="nonzero" fill="#1abc9c" stroke="none" transform="matrix(1 0 0 1 877 124 )" />
  </g>
</svg>