<?xml version="1.0" encoding="utf-8"?>
<svg version="1.1" xmlns:xlink="http://www.w3.org/1999/xlink" width="7px" height="8px" xmlns="http://www.w3.org/2000/svg">
  <g transform="matrix(1 0 0 1 -586 -541 )">
    <path d="M 589.5 542  C 590.9 542  592 543.32  592 545  C 592 546.68  590.9 548  589.5 548  C 588.1 548  587 546.68  587 545  C 587 543.32  588.1 542  589.5 542  Z " fill-rule="nonzero" fill="#ffffff" stroke="none" />
    <path d="M 589.5 542  C 590.9 542  592 543.32  592 545  C 592 546.68  590.9 548  589.5 548  C 588.1 548  587 546.68  587 545  C 587 543.32  588.1 542  589.5 542  Z " stroke-width="2" stroke="#2db7f5" fill="none" />
  </g>
</svg>