<?xml version="1.0" encoding="utf-8"?>
<svg version="1.1" xmlns:xlink="http://www.w3.org/1999/xlink" width="125px" height="968px" xmlns="http://www.w3.org/2000/svg">
  <g transform="matrix(1 0 0 1 -541 317 )">
    <path d="M 541.954589340886 634.621980676328  C 541.954589340886 634.621980676328  541.954589340886 -313.914251207729  541.954589340886 -313.914251207729  C 541.954589340886 -315.294963082306  543.073877466309 -316.414251207729  544.454589340886 -316.414251207729  C 544.454589340886 -316.414251207729  662.545410659114 -316.414251207729  662.545410659114 -316.414251207729  C 663.926122533691 -316.414251207729  665.045410659114 -315.294963082306  665.045410659114 -313.914251207729  C 665.045410659114 -313.914251207729  665.045410659114 634.621980676328  665.045410659114 634.621980676328  C 665.045410659114 636.002692550905  663.926122533691 637.121980676328  662.545410659114 637.121980676328  C 662.545410659114 637.121980676328  581.426004531224 637.121980676328  581.426004531224 637.121980676328  C 581.426004531224 637.121980676328  572.478728910362 650.040745768041  572.478728910362 650.040745768041  C 572.478728910362 650.040745768041  561.925093003148 637.121980676328  561.925093003148 637.121980676328  C 561.925093003148 637.121980676328  544.454589340886 637.121980676328  544.454589340886 637.121980676328  C 543.073877466309 637.121980676328  541.954589340886 636.002692550905  541.954589340886 634.621980676328  Z " fill-rule="nonzero" fill="#ffffff" stroke="none" />
    <path d="M 541.454589340886 634.621980676328  C 541.454589340886 634.621980676328  541.454589340886 -313.914251207729  541.454589340886 -313.914251207729  C 541.454589340886 -315.571105457222  542.797735091393 -316.914251207729  544.454589340886 -316.914251207729  C 544.454589340886 -316.914251207729  662.545410659114 -316.914251207729  662.545410659114 -316.914251207729  C 664.202264908607 -316.914251207729  665.545410659114 -315.571105457222  665.545410659114 -313.914251207729  C 665.545410659114 -313.914251207729  665.545410659114 634.621980676328  665.545410659114 634.621980676328  C 665.545410659114 636.278834925821  664.202264908607 637.621980676328  662.545410659114 637.621980676328  C 662.545410659114 637.621980676328  581.687922406025 637.621980676328  581.687922406025 637.621980676328  C 581.687922406025 637.621980676328  572.511658406282 650.871376811594  572.511658406282 650.871376811594  C 572.511658406282 650.871376811594  561.687922406025 637.621980676328  561.687922406025 637.621980676328  C 561.687922406025 637.621980676328  544.454589340886 637.621980676328  544.454589340886 637.621980676328  C 542.797735091393 637.621980676328  541.454589340886 636.278834925821  541.454589340886 634.621980676328  Z M 542.454589340886 634.621980676328  C 542.454589340886 635.72655017599  543.350019841224 636.621980676328  544.454589340886 636.621980676328  C 544.454589340886 636.621980676328  562.162263600272 636.621980676328  562.162263600272 636.621980676328  C 562.162263600272 636.621980676328  572.445799414442 649.210114724487  572.445799414442 649.210114724487  C 572.445799414442 649.210114724487  581.164086656424 636.621980676328  581.164086656424 636.621980676328  C 581.164086656424 636.621980676328  662.545410659114 636.621980676328  662.545410659114 636.621980676328  C 663.649980158776 636.621980676328  664.545410659114 635.72655017599  664.545410659114 634.621980676328  C 664.545410659114 634.621980676328  664.545410659114 -313.914251207729  664.545410659114 -313.914251207729  C 664.545410659114 -315.018820707391  663.649980158776 -315.914251207729  662.545410659114 -315.914251207729  C 662.545410659114 -315.914251207729  544.454589340886 -315.914251207729  544.454589340886 -315.914251207729  C 543.350019841224 -315.914251207729  542.454589340886 -315.018820707391  542.454589340886 -313.914251207729  C 542.454589340886 -313.914251207729  542.454589340886 634.621980676328  542.454589340886 634.621980676328  Z " fill-rule="nonzero" fill="#e9e9e9" stroke="none" />
  </g>
</svg>