<?xml version="1.0" encoding="utf-8"?>
<svg version="1.1" xmlns:xlink="http://www.w3.org/1999/xlink" width="20px" height="20px" xmlns="http://www.w3.org/2000/svg">
  <g transform="matrix(1 0 0 1 -681 -448 )">
    <path d="M 691 450  C 695.48 450  699 453.52  699 458  C 699 462.48  695.48 466  691 466  C 686.52 466  683 462.48  683 458  C 683 453.52  686.52 450  691 450  Z " fill-rule="nonzero" fill="#0079fe" stroke="none" />
    <path d="M 691 449.5  C 695.76 449.5  699.5 453.24  699.5 458  C 699.5 462.76  695.76 466.5  691 466.5  C 686.24 466.5  682.5 462.76  682.5 458  C 682.5 453.24  686.24 449.5  691 449.5  Z " stroke-width="3" stroke="#ffffff" fill="none" />
  </g>
</svg>