<?xml version="1.0" encoding="utf-8"?>
<svg version="1.1" xmlns:xlink="http://www.w3.org/1999/xlink" width="15px" height="15px" xmlns="http://www.w3.org/2000/svg">
  <g transform="matrix(1 0 0 1 -422 -450 )">
    <path d="M 429.5 452  C 432.58 452  435 454.42  435 457.5  C 435 460.58  432.58 463  429.5 463  C 426.42 463  424 460.58  424 457.5  C 424 454.42  426.42 452  429.5 452  Z " fill-rule="nonzero" fill="#0079fe" stroke="none" />
    <path d="M 429.5 451.5  C 432.86 451.5  435.5 454.14  435.5 457.5  C 435.5 460.86  432.86 463.5  429.5 463.5  C 426.14 463.5  423.5 460.86  423.5 457.5  C 423.5 454.14  426.14 451.5  429.5 451.5  Z " stroke-width="3" stroke="#ffffff" fill="none" />
  </g>
</svg>