<?xml version="1.0" encoding="utf-8"?>
<svg version="1.1" xmlns:xlink="http://www.w3.org/1999/xlink" width="14px" height="6px" xmlns="http://www.w3.org/2000/svg">
  <g transform="matrix(1 0 0 1 -1325 -706 )">
    <path d="M 13.7402343750001 0.197916666666657  C 13.9134114583333 0.329861111111114  14 0.486111111111114  14 0.666666666666657  C 14 0.847222222222229  13.9134114583333 1.00347222222223  13.7402343750001 1.13541666666666  L 7.615234375 5.80208333333334  C 7.44205729166661 5.93402777777777  7.23697916666661 6  7 6  C 6.76302083333339 6  6.55794270833339 5.93402777777777  6.384765625 5.80208333333334  L 0.259765624999942 1.13541666666666  C 0.0865885416666965 1.00347222222223  0 0.847222222222229  0 0.666666666666657  C 0 0.486111111111114  0.0865885416666965 0.329861111111114  0.259765624999942 0.197916666666657  C 0.432942708333335 0.0659722222222285  0.638020833333336 0  0.874999999999945 0  L 13.1250000000001 0  C 13.3619791666667 0  13.5670572916667 0.0659722222222285  13.7402343750001 0.197916666666657  Z " fill-rule="nonzero" fill="#cccccc" stroke="none" transform="matrix(1 0 0 1 1325 706 )" />
  </g>
</svg>