<?xml version="1.0" standalone="no"?><!DOCTYPE svg PUBLIC "-//W3C//DTD SVG 1.1//EN" "http://www.w3.org/Graphics/SVG/1.1/DTD/svg11.dtd"><svg t="1532585060292" class="icon" style="" viewBox="0 0 1024 1024" version="1.1" xmlns="http://www.w3.org/2000/svg" p-id="4041" xmlns:xlink="http://www.w3.org/1999/xlink" width="32" height="32"><defs><style type="text/css"></style></defs><path d="M673.216263 657.80476c5.39794 4.623297 12.344143 7.522324 20.016893 7.522324 16.870226 0 30.540573-13.467733 30.540573-30.037107 0.023536-9.957793-4.975315-18.7439-12.622482-24.216541 0.051165-0.112564 0.051165-0.249687 0.051165-0.337691-30.413684-22.503527-62.424748-37.985126-92.715635-48.579415 72.471568-44.010353 121.804137-121.340579 121.804137-212.357526 0-138.034796-114.081245-247.242034-252.853845-247.242034-138.745994 0-252.801656 110.757546-252.801656 248.767783 0 89.49222 47.781236 168.32159 120.252805 210.832799C146.768203 636.465756 128.275014 847.282183 128.275014 850.331635c-1.550309 16.668635 10.770298 31.826869 27.739784 31.826869 16.943904 1.523703 32.362059-10.597359 33.911344-27.314089 0-10.622942 23.115464-241.156432 294.412356-256.325923 6.77224 0 104.459097-3.560082 188.777481 59.328223C673.165098 657.831366 673.190681 657.80476 673.216263 657.80476zM487.43707 537.864064c-104.809067 0-191.125969-83.392292-191.125969-188.06526 0-104.658641 86.317924-186.566116 191.125969-186.566116 104.860233 0 191.152575 83.417875 191.152575 188.079586C678.589644 455.959659 592.297302 537.864064 487.43707 537.864064zM851.847663 641.136126c-5.148253-1.297552-10.497075-2.086521-16.144702-2.086521-32.987299 0-60.126402 27.427676-60.126402 61.376882 0 27.702945 18.142196 51.229778 42.73429 58.790988-18.443048 30.823006-43.809785 57.214073-74.021877 76.282361-9.196453-21.680788-30.438243-36.83493-55.279001-36.83493-33.236985 0-60.151985 27.41335-60.151985 61.388139 0 3.921309 0.249687 7.834432 1.299599 11.506055 5.122671 28.203342 29.164227 49.619094 58.103326 49.883107 16.491603 0 25.589818-4.386914 33.685193-7.312546 87.068008-31.499411 151.593604-105.084337 171.360809-195.397249 0.823761-3.924379 2.548032-12.133342 2.548032-18.306948C895.854946 672.224168 877.137653 648.460951 851.847663 641.136126z" p-id="4042" fill="#ffffff"></path></svg>