<?xml version="1.0" encoding="utf-8"?>
<svg version="1.1" xmlns:xlink="http://www.w3.org/1999/xlink" width="100px" height="100px" xmlns="http://www.w3.org/2000/svg">
  <g transform="matrix(1 0 0 1 -398 -365 )">
    <path d="M 443.525162056745 365.702679328047  C 445.012866964636 365.567636725772  446.506007749686 365.5  448 365.5  C 475.338095116624 365.5  497.5 387.661904883376  497.5 415  C 497.5 442.171214022448  475.607837010582 464.229239406697  448.500060777778 464.497526406716  L 448.5 415  A 0.5 0.5 0 0 0 448.497470760719 414.949772097104 L 443.525162056745 365.702679328047  Z " fill-rule="nonzero" fill="#0096fa" stroke="none" />
    <path d="M 443.525162056745 365.702679328047  C 445.012866964636 365.567636725772  446.506007749686 365.5  448 365.5  C 475.338095116624 365.5  497.5 387.661904883376  497.5 415  C 497.5 442.171214022448  475.607837010582 464.229239406697  448.500060777778 464.497526406716  L 448.5 415  A 0.5 0.5 0 0 0 448.497470760719 414.949772097104 L 443.525162056745 365.702679328047  Z " stroke-width="1" stroke="#ffffff" fill="none" />
  </g>
</svg>