<?xml version="1.0" encoding="utf-8"?>
<svg version="1.1" xmlns:xlink="http://www.w3.org/1999/xlink" width="100px" height="100px" xmlns="http://www.w3.org/2000/svg">
  <g transform="matrix(1 0 0 1 -52 -365 )">
    <path d="M 102 365  C 130 365  152 387  152 415  C 152 443  130 465  102 465  C 74 465  52 443  52 415  C 52 387  74 365  102 365  Z " fill-rule="nonzero" fill="#0096fa" stroke="none" />
    <path d="M 102 365.5  C 129.72 365.5  151.5 387.28  151.5 415  C 151.5 442.72  129.72 464.5  102 464.5  C 74.28 464.5  52.5 442.72  52.5 415  C 52.5 387.28  74.28 365.5  102 365.5  Z " stroke-width="1" stroke="#ffffff" fill="none" />
  </g>
</svg>