<?xml version="1.0" encoding="utf-8"?>
<svg version="1.1" xmlns:xlink="http://www.w3.org/1999/xlink" width="395px" height="50px" xmlns="http://www.w3.org/2000/svg">
  <g transform="matrix(1 0 0 1 -92 -654 )">
    <path d="M 393.486979166667 0.5  L 0 30.5  L 25.6510416666667 37.5  L 48.7369791666667 30  L 61.5625 13  L 85.6744791666667 40  L 107.734375 32.75  L 126.716145833333 10  L 147.75 43.5  L 167.7578125 35.75  L 187.765625 49  L 209.825520833333 27.5  L 249.328125 39  L 268.822916666667 32.75  L 290.8828125 6.5  L 312.4296875 37.5  L 331.924479166667 19.25  L 352.4453125 25.75  L 373.479166666667 27.5  L 393.486979166667 0.5  Z " fill-rule="nonzero" fill="#ffffff" stroke="none" transform="matrix(1 0 0 1 92 654 )" />
    <path d="M 0 30.5  L 25.6510416666667 37.5  L 48.7369791666667 30  L 61.5625 13  L 85.6744791666667 40  L 107.734375 32.75  L 126.716145833333 10  L 147.75 43.5  L 167.7578125 35.75  L 187.765625 49  L 209.825520833333 27.5  L 249.328125 39  L 268.822916666667 32.75  L 290.8828125 6.5  L 312.4296875 37.5  L 331.924479166667 19.25  L 352.4453125 25.75  L 373.479166666667 27.5  L 393.486979166667 0.5  " stroke-width="1" stroke="#51d351" fill="none" transform="matrix(1 0 0 1 92 654 )" />
  </g>
</svg>