<svg t="1602696736704" class="icon" viewBox="0 0 1024 1024" version="1.1" xmlns="http://www.w3.org/2000/svg" p-id="31105" width="64" height="64"><path d="M354.304 631.808c18.944-7.168 44.544-17.408 56.32-26.624 7.168-5.632 11.264-16.384 12.8-28.16-4.608-3.072-9.216-6.144-12.288-9.728-53.248-54.784-56.32-132.608-56.832-229.376 8.704 1.536 271.872 5.12 284.16 3.584 2.048 109.056-5.632 176.128-68.608 234.496l-1.024 1.024c2.048 12.288 6.144 23.04 12.8 28.16 12.8 9.728 35.84 20.992 51.2 28.16-29.696 108.544-66.048 172.544-103.936 195.584-5.632-20.48-6.144-44.544-0.512-72.192-4.608-2.048-9.216-3.584-14.336-5.632-5.12 6.656-9.728 13.312-13.824 20.48-4.096-6.656-8.704-13.824-13.824-20.48-4.608 2.048-9.216 3.584-14.336 5.632 5.632 29.184 5.12 54.272-1.536 75.776-41.984-19.968-82.944-88.064-116.224-200.704z m393.216 16.384c-9.216-28.672-16.384-64.512-9.728-95.232 16.384-74.24 3.584-138.752-5.12-159.744-20.992-51.2 2.56-101.888-6.656-140.8-14.848-62.464-41.984-105.984-86.016-135.68-60.928-40.96-151.552-37.888-230.4-20.48-69.12 14.848-134.656 49.152-130.56 107.008 3.072 41.984-4.608 71.168-19.968 92.16-13.824 19.456-15.872 39.424-12.8 60.416 9.216 54.272 48.128 83.968 26.624 136.704-18.944 47.616-41.984 124.928-44.544 169.472-31.232 11.776-66.56 26.112-103.936 39.936-28.672 52.736-38.4 125.952-32.768 268.8H890.88c2.56-111.616 1.024-221.184-40.448-296.96-31.744-7.168-68.608-16.896-102.912-25.6z" fill="#FEC03D" p-id="31106"></path></svg>