<svg t="1602698591350" class="icon" viewBox="0 0 1024 1024" version="1.1" xmlns="http://www.w3.org/2000/svg" p-id="47991" width="48" height="48"><path d="M655.94 236.19l-86.08 83.96h58.46c20.94 0 38.32 16.48 38.32 36.99 0 20.52-16.92 36.99-38.32 36.99H552.6v37.33h75.84c20.94 0 38.32 16.48 38.32 36.99s-17.37 36.99-38.32 36.99H552.6v76.45c0 20.4-16.91 36.99-38.32 36.99-20.94 0-37.86-16.48-37.86-36.99v-76.45h-76.64c-20.95 0-38.32-16.48-38.32-36.99 0-20.52 17.26-36.99 38.32-36.99h76.64v-37.33h-76.64c-20.95 0-38.32-16.48-38.32-36.99s17.26-36.99 38.32-36.99h60.07l-88.73-83.62c-15.54-13.9-15.88-37.66-1.26-52.35 14.39-14.69 38.66-15.02 53.74-1.12l91.03 85.75 87.23-84.97c15.08-14.68 39.01-14.68 54.08 0 14.74 14.35 14.74 38 0 52.35z m355.15 457.46c-45.23 115.35-242.36 328.45-404.52 329H74.21c-40.74 0-73.65-32.17-73.65-71.74V827.38c0-29.15 18.06-55.38 45.8-66.48 36.48-14.45 118.88-46.97 193.57-74.65-83.2-74.1-131.88-178.46-131.88-290.55 0-217.58 181.71-394.58 405.09-394.58 223.37 0 405.09 177 405.09 394.58 0 40.46-6.33 80.37-18.64 118.71-6.1 18.94-26.93 29.37-46.15 23.43-19.45-5.94-30.15-26.12-24.05-44.95a316.072 316.072 0 0 0 15.3-97.19c0-178.01-148.69-322.84-331.43-322.84S181.81 217.69 181.81 395.7c0 104.7 51.79 201.21 138.67 261.85 27.05-9.08 48.45-15.47 59.38-17.04 3.57-0.56 7.25-0.78 10.82-0.78 17.49 0 34.64 6.16 48.1 17.48 11.74 9.87 19.91 22.98 23.48 37.44 5.18 19.17 2.19 40.02-9.55 57.5-7.71 11.43-23.71 31.95-41.66 53.69h4.6c79.29 0 157.32-14.01 232.01-41.59 37.51-14.13 83.2-61.32 123.48-103.02 68.82-70.96 114.39-114 168.13-114 21.63 0 41.89 7.96 58.92 23.09 18.88 16.73 40.4 52.83 12.9 123.33z m-62.72-70.39c-4.83-4.26-7.71-4.26-9.21-4.26-25.78 0-76.99 52.68-114.51 91.47-47.88 49.55-97.59 100.78-150.99 120.84-82.51 30.49-170.09 46.3-258.13 46.3-49.72 0-80.68-5.04-82.17-5.38-13.23-2.13-24.63-11.09-29.46-23.77-4.37-12.55-2.19-26.56 6.67-36.99 32.45-36.88 69.97-83.17 80.33-98.64-0.35-0.34-0.35-1.01-0.35-1.35-27.27 3.92-193.8 67.03-316.36 115.91V950.8h532.14c116.35-0.45 294.27-176.44 335.81-282.71 12.21-31.16 8.07-43.71 6.23-44.83z" p-id="47992" fill="#666666"></path></svg>