<svg t="1602698337982" class="icon" viewBox="0 0 1024 1024" version="1.1" xmlns="http://www.w3.org/2000/svg" p-id="37528" width="48" height="48"><path d="M512 0C292.928 0 98.177829 139.214629 27.392 346.428343l69.215086 23.643429C157.2864 192.464457 324.214857 73.142857 512 73.142857c217.3568 0 398.321371 158.857143 432.892343 366.571886l-63.036343-42.0352-40.572343 60.856686 125.856914 83.893029c6.107429 4.072229 13.178514 6.142171 20.286171 6.142171 5.928229 0 11.856457-1.428114 17.250743-4.320914C1016.572343 537.892571 1024 525.500343 1024 512 1024 229.677714 794.322286 0 512 0z" p-id="37529" fill="#666666"></path><path d="M512 950.857143c-217.3568 0-398.321371-158.857143-432.892343-366.571886l63.036343 42.0352 40.572343-60.856686-125.856914-83.893029c-11.178057-7.464229-25.642057-8.1792-37.535086-1.821257S0 498.499657 0 512c0 282.322286 229.677714 512 512 512 219.106743 0 413.856914-139.214629 484.608-346.428343l-69.215086-23.643429C866.750171 831.535543 699.821714 950.857143 512 950.857143z" p-id="37530" fill="#666666"></path><path d="M702.429257 271.1424 650.7136 219.428571 512 358.142171 373.2864 219.428571 321.570743 271.1424 475.428571 425.000229 475.428571 438.857143 329.142857 438.857143 329.142857 512 475.428571 512 475.428571 585.142857 329.142857 585.142857 329.142857 658.285714 475.428571 658.285714 475.428571 768 548.571429 768 548.571429 658.285714 694.857143 658.285714 694.857143 585.142857 548.571429 585.142857 548.571429 512 694.857143 512 694.857143 438.857143 548.571429 438.857143 548.571429 425.000229Z" p-id="37531" fill="#666666"></path></svg>