<svg t="1602698548118" class="icon" viewBox="0 0 1024 1024" version="1.1" xmlns="http://www.w3.org/2000/svg" p-id="46176" width="48" height="48"><path d="M512 1024c-281.6 0-512-230.4-512-512s230.4-512 512-512 512 230.4 512 512S793.6 1024 512 1024zM512 64C262.4 64 64 262.4 64 512s198.4 448 448 448 448-198.4 448-448S761.6 64 512 64z" p-id="46177" fill="#666666"></path><path d="M512 825.6c-6.4 0-19.2-6.4-25.6-12.8L198.4 473.6C192 460.8 192 448 198.4 435.2l83.2-160C281.6 262.4 294.4 256 307.2 256l409.6 0c12.8 0 25.6 6.4 25.6 19.2l83.2 160C832 448 832 460.8 825.6 473.6l-288 345.6C531.2 825.6 518.4 825.6 512 825.6zM262.4 448 512 742.4 761.6 448l-64-128L326.4 320 262.4 448z" p-id="46178" fill="#666666"></path><path d="M800 480l-576 0C204.8 480 192 467.2 192 448s12.8-32 32-32l576 0C819.2 416 832 435.2 832 448S819.2 480 800 480z" p-id="46179" fill="#666666"></path></svg>