<?xml version="1.0" encoding="utf-8"?>
<svg version="1.1" xmlns:xlink="http://www.w3.org/1999/xlink" width="107px" height="107px" xmlns="http://www.w3.org/2000/svg">
  <g transform="matrix(1 0 0 1 -109 -790 )">
    <path d="M 162.5 790  C 192.46 790  216 813.54  216 843.5  C 216 873.46  192.46 897  162.5 897  C 132.54 897  109 873.46  109 843.5  C 109 813.54  132.54 790  162.5 790  Z " fill-rule="nonzero" fill="#ffffff" stroke="none" />
    <path d="M 162.5 790.5  C 192.18 790.5  215.5 813.82  215.5 843.5  C 215.5 873.18  192.18 896.5  162.5 896.5  C 132.82 896.5  109.5 873.18  109.5 843.5  C 109.5 813.82  132.82 790.5  162.5 790.5  Z " stroke-width="1" stroke="#ffffff" fill="none" />
  </g>
</svg>