<?xml version="1.0" encoding="utf-8"?>
<svg version="1.1" xmlns:xlink="http://www.w3.org/1999/xlink" width="8px" height="8px" xmlns="http://www.w3.org/2000/svg">
  <g transform="matrix(1 0 0 1 -494 -932 )">
    <path d="M 498 933  C 499.68 933  501 934.32  501 936  C 501 937.68  499.68 939  498 939  C 496.32 939  495 937.68  495 936  C 495 934.32  496.32 933  498 933  Z " fill-rule="nonzero" fill="#ffffff" stroke="none" />
    <path d="M 498 933  C 499.68 933  501 934.32  501 936  C 501 937.68  499.68 939  498 939  C 496.32 939  495 937.68  495 936  C 495 934.32  496.32 933  498 933  Z " stroke-width="2" stroke="#2db7f5" fill="none" />
  </g>
</svg>