<?xml version="1.0" encoding="utf-8"?>
<svg version="1.1" xmlns:xlink="http://www.w3.org/1999/xlink" width="46px" height="48px" xmlns="http://www.w3.org/2000/svg">
  <g transform="matrix(1 0 0 1 -38 -95 )">
    <path d="M 46 7.53191489361702  C 46 4.08510638297872  43.8498583569405 1.46808510638298  39.8753541076487 1.46808510638298  L 36.8130311614731 1.46808510638298  C 35.9660056657224 1.46808510638298  34.9886685552408 1.97872340425532  34.9886685552408 2.80851063829787  C 34.9886685552408 3.63829787234043  35.9660056657224 4.46808510638298  36.8130311614731 4.46808510638298  L 39.8753541076487 4.46808510638298  C 41.699716713881 4.46808510638298  42.9376770538244 5.68085106382979  43 7.46808510638298  L 43 42  C 42.9376770538244 43.7872340425532  41.699716713881 45  39.8753541076487 45  L 6.90651558073654 45  C 5.08215297450425 45  3.06232294617564 43.7872340425532  3 42  L 3 7.46808510638298  C 3.06232294617564 5.68085106382979  4.30028328611898 4.46808510638298  6.12464589235127 4.46808510638298  L 9.96883852691218 4.46808510638298  C 10.8158640226629 4.46808510638298  11.1416430594901 3.63829787234043  11.1416430594901 2.80851063829787  C 11.1416430594901 1.97872340425532  10.8158640226629 1.46808510638298  9.96883852691218 1.46808510638298  L 6.12464589235127 1.46808510638298  C 1.82436260623229 1.46808510638298  0 4.08510638297872  0 7.53191489361702  L 0 41.6808510638298  C 0 45.3829787234043  2.28045325779037 48  6.45042492917847 48  L 39.5495750708215 48  C 43.7195467422096 48  46 45.8297872340426  46 41.6808510638298  L 46 7.53191489361702  Z M 11.5325779036827 14  C 10.685552407932 13.468085106383  9.96883852691218 14.1702127659574  9.96883852691218 15  C 9.96883852691218 15.8297872340426  10.685552407932 16.531914893617  11.5325779036827 17  L 34.5325779036827 17  C 35.3796033994334 16.531914893617  36.0963172804533 15.8297872340426  36.0963172804533 15  C 36.0963172804533 14.1702127659574  35.3796033994334 13.468085106383  34.5325779036827 14  L 11.5325779036827 14  Z M 36.0963172804533 23.2978723404255  C 36.0311614730878 22.4042553191489  35.314447592068 21.7659574468085  34.4674220963173 22  L 11.5325779036827 22  C 10.685552407932 21.7659574468085  9.96883852691218 22.468085106383  9.96883852691218 23.2978723404255  C 9.96883852691218 24.1276595744681  10.685552407932 24.8297872340426  11.5325779036827 24  L 34.5325779036827 24  C 35.3796033994334 24.8297872340426  36.0963172804533 24.1276595744681  36.0963172804533 23.2978723404255  Z M 36.0963172804533 32.2978723404255  C 36.0311614730878 31.4042553191489  35.314447592068 30.7659574468085  34.4674220963173 30  L 11.5325779036827 30  C 10.685552407932 30.7659574468085  9.96883852691218 31.468085106383  9.96883852691218 32.2978723404255  C 9.96883852691218 33.1276595744681  10.685552407932 33.8297872340426  11.5325779036827 33  L 34.5325779036827 33  C 35.3796033994334 33.8297872340426  36.0963172804533 33.1276595744681  36.0963172804533 32.2978723404255  Z M 15.3767705382436 2.61702127659574  C 15.3767705382436 4.02127659574468  16.4192634560907 5.23404255319149  17.7223796033994 6  L 28.4079320113314 6  C 29.6458923512748 5.23404255319149  30.6883852691218 4.02127659574468  30.6883852691218 2.61702127659574  C 30.6883852691218 1.21276595744681  29.6458923512748 0  28.342776203966 0  L 17.7223796033994 0  C 16.4192634560907 0  15.3767705382436 1.21276595744681  15.3767705382436 2.61702127659574  Z " fill-rule="nonzero" fill="#1abc9c" stroke="none" transform="matrix(1 0 0 1 38 95 )" />
  </g>
</svg>