<?xml version="1.0" encoding="utf-8"?>
<svg version="1.1" xmlns:xlink="http://www.w3.org/1999/xlink" width="10px" height="11px" xmlns="http://www.w3.org/2000/svg">
  <g transform="matrix(1 0 0 1 -97 -549 )">
    <path d="M 102 550  C 104.24 550  106 551.98  106 554.5  C 106 557.02  104.24 559  102 559  C 99.76 559  98 557.02  98 554.5  C 98 551.98  99.76 550  102 550  Z " fill-rule="nonzero" fill="#ffffff" stroke="none" />
    <path d="M 102 550  C 104.24 550  106 551.98  106 554.5  C 106 557.02  104.24 559  102 559  C 99.76 559  98 557.02  98 554.5  C 98 551.98  99.76 550  102 550  Z " stroke-width="2" stroke="#f5222d" fill="none" />
  </g>
</svg>