<?xml version="1.0" encoding="utf-8"?>
<svg version="1.1" xmlns:xlink="http://www.w3.org/1999/xlink" width="80px" height="35px" xmlns="http://www.w3.org/2000/svg">
  <g transform="matrix(1 0 0 1 -1250 -170 )">
    <path d="M 1250.5 175  A 4.5 4.5 0 0 1 1255 170.5 L 1325 170.5  A 4.5 4.5 0 0 1 1329.5 175 L 1329.5 200  A 4.5 4.5 0 0 1 1325 204.5 L 1255 204.5  A 4.5 4.5 0 0 1 1250.5 200 L 1250.5 175  Z " fill-rule="nonzero" fill="#f9f9f9" stroke="none" fill-opacity="0" />
    <path d="M 1250.5 175  A 4.5 4.5 0 0 1 1255 170.5 L 1325 170.5  A 4.5 4.5 0 0 1 1329.5 175 L 1329.5 200  A 4.5 4.5 0 0 1 1325 204.5 L 1255 204.5  A 4.5 4.5 0 0 1 1250.5 200 L 1250.5 175  Z " stroke-width="1" stroke="#e4e4e4" fill="none" />
  </g>
</svg>