<?xml version="1.0" encoding="utf-8"?>
<svg version="1.1" xmlns:xlink="http://www.w3.org/1999/xlink" width="110px" height="35px" xmlns="http://www.w3.org/2000/svg">
  <g transform="matrix(1 0 0 1 -510 -235 )">
    <path d="M 511 240  A 4 4 0 0 1 515 236 L 615 236  A 4 4 0 0 1 619 240 L 619 265  A 4 4 0 0 1 615 269 L 515 269  A 4 4 0 0 1 511 265 L 511 240  Z " fill-rule="nonzero" fill="#f0f7ff" stroke="none" />
    <path d="M 510.5 240  A 4.5 4.5 0 0 1 515 235.5 L 615 235.5  A 4.5 4.5 0 0 1 619.5 240 L 619.5 265  A 4.5 4.5 0 0 1 615 269.5 L 515 269.5  A 4.5 4.5 0 0 1 510.5 265 L 510.5 240  Z " stroke-width="1" stroke="#7abbff" fill="none" stroke-opacity="0.996078431372549" />
  </g>
</svg>