<?xml version="1.0" encoding="utf-8"?>
<svg version="1.1" xmlns:xlink="http://www.w3.org/1999/xlink" width="59px" height="25px" xmlns="http://www.w3.org/2000/svg">
  <g transform="matrix(1 0 0 1 -1169 -15 )">
    <path d="M 1169.5 20  A 4.5 4.5 0 0 1 1174 15.5 L 1223 15.5  A 4.5 4.5 0 0 1 1227.5 20 L 1227.5 35  A 4.5 4.5 0 0 1 1223 39.5 L 1174 39.5  A 4.5 4.5 0 0 1 1169.5 35 L 1169.5 20  Z " fill-rule="nonzero" fill="#f56c6c" stroke="none" />
    <path d="M 1169.5 20  A 4.5 4.5 0 0 1 1174 15.5 L 1223 15.5  A 4.5 4.5 0 0 1 1227.5 20 L 1227.5 35  A 4.5 4.5 0 0 1 1223 39.5 L 1174 39.5  A 4.5 4.5 0 0 1 1169.5 35 L 1169.5 20  Z " stroke-width="1" stroke="#f56c6c" fill="none" />
  </g>
</svg>