<?xml version="1.0" encoding="utf-8"?>
<svg version="1.1" xmlns:xlink="http://www.w3.org/1999/xlink" width="150px" height="150px" xmlns="http://www.w3.org/2000/svg">
  <g transform="matrix(1 0 0 1 -136 -594 )">
    <path d="M 211 594  C 253 594  286 627  286 669  C 286 711  253 744  211 744  C 169 744  136 711  136 669  C 136 627  169 594  211 594  Z " fill-rule="nonzero" fill="#ffffff" stroke="none" />
    <path d="M 211 594.5  C 252.72 594.5  285.5 627.28  285.5 669  C 285.5 710.72  252.72 743.5  211 743.5  C 169.28 743.5  136.5 710.72  136.5 669  C 136.5 627.28  169.28 594.5  211 594.5  Z " stroke-width="1" stroke="#ffffff" fill="none" />
  </g>
</svg>