<?xml version="1.0" encoding="utf-8"?>
<svg version="1.1" xmlns:xlink="http://www.w3.org/1999/xlink" width="200px" height="200px" xmlns="http://www.w3.org/2000/svg">
  <g transform="matrix(1 0 0 1 -111 -569 )">
    <path d="M 211 569  C 267 569  311 613  311 669  C 311 725  267 769  211 769  C 155 769  111 725  111 669  C 111 613  155 569  211 569  Z " fill-rule="nonzero" fill="#e9e9e9" stroke="none" />
    <path d="M 211 569.5  C 266.72 569.5  310.5 613.28  310.5 669  C 310.5 724.72  266.72 768.5  211 768.5  C 155.28 768.5  111.5 724.72  111.5 669  C 111.5 613.28  155.28 569.5  211 569.5  Z " stroke-width="1" stroke="#ffffff" fill="none" />
  </g>
</svg>