<?xml version="1.0" encoding="utf-8"?>
<svg version="1.1" xmlns:xlink="http://www.w3.org/1999/xlink" width="300px" height="50px" xmlns="http://www.w3.org/2000/svg">
  <g transform="matrix(1 0 0 1 -480 -123 )">
    <path d="M 480.5 126  A 2.5 2.5 0 0 1 483 123.5 L 777 123.5  A 2.5 2.5 0 0 1 779.5 126 L 779.5 170  A 2.5 2.5 0 0 1 777 172.5 L 483 172.5  A 2.5 2.5 0 0 1 480.5 170 L 480.5 126  Z " fill-rule="nonzero" fill="#ffffff" stroke="none" />
    <path d="M 480.5 126  A 2.5 2.5 0 0 1 483 123.5 L 777 123.5  A 2.5 2.5 0 0 1 779.5 126 L 779.5 170  A 2.5 2.5 0 0 1 777 172.5 L 483 172.5  A 2.5 2.5 0 0 1 480.5 170 L 480.5 126  Z " stroke-width="1" stroke="#0079fe" fill="none" />
  </g>
</svg>