<?xml version="1.0" encoding="utf-8"?>
<svg version="1.1" xmlns:xlink="http://www.w3.org/1999/xlink" width="100px" height="100px" xmlns="http://www.w3.org/2000/svg">
  <g transform="matrix(1 0 0 1 -60 -142 )">
    <path d="M 105.525162056745 142.702679328047  C 107.012866964636 142.567636725772  108.506007749686 142.5  110 142.5  C 137.338095116624 142.5  159.5 164.661904883376  159.5 192  C 159.5 217.692082052833  139.851732040608 239.082971476236  114.311953918921 241.311878095283  L 110.498513883388 191.961478472647  A 0.5 0.5 0 0 0 110.497470760719 191.949772097104 L 105.525162056745 142.702679328047  Z " fill-rule="nonzero" fill="#fb6260" stroke="none" />
    <path d="M 105.525162056745 142.702679328047  C 107.012866964636 142.567636725772  108.506007749686 142.5  110 142.5  C 137.338095116624 142.5  159.5 164.661904883376  159.5 192  C 159.5 217.692082052833  139.851732040608 239.082971476236  114.311953918921 241.311878095283  L 110.498513883388 191.961478472647  A 0.5 0.5 0 0 0 110.497470760719 191.949772097104 L 105.525162056745 142.702679328047  Z " stroke-width="1" stroke="#ffffff" fill="none" />
  </g>
</svg>