<svg t="1602698299994" class="icon" viewBox="0 0 1024 1024" version="1.1" xmlns="http://www.w3.org/2000/svg" p-id="36963" width="48" height="48"><path d="M511.92 85.32c235.605 0 426.6 190.995 426.6 426.6 0 235.605-190.995 426.6-426.6 426.6-235.605 0-426.6-190.995-426.6-426.6 0-235.605 190.995-426.6 426.6-426.6z m0 63.99c-200.264 0-362.61 162.346-362.61 362.61s162.346 362.61 362.61 362.61 362.61-162.346 362.61-362.61-162.346-362.61-362.61-362.61z m255.768 338.936l53.517-48.652v72.326c0 170.813-138.472 309.285-309.285 309.285-170.813 0-309.285-138.472-309.285-309.285 0-7.777 4.884-18.687 10.473-23.674 89.873-81.703 198.426-81.703 316.56-2.947 95.166 63.444 171.473 63.444 238.02 2.947zM494.172 538.54c-90.017-60.011-163.161-63.258-227.132-12.234 7.448 128.777 114.237 230.908 244.88 230.908 112.594 0 207.47-75.86 236.304-179.258-76.028 35.46-162.14 21.86-254.052-39.416z" p-id="36964" fill="#666666"></path></svg>