<?xml version="1.0" encoding="utf-8"?>
<svg version="1.1" xmlns:xlink="http://www.w3.org/1999/xlink" width="27px" height="27px" xmlns="http://www.w3.org/2000/svg">
  <g transform="matrix(1 0 0 1 -871 -312 )">
    <path d="M 7.05951219512195 10.3846153846154  L 2.80536585365854 10.3846153846154  L 11.0107317073171 21.1748798076923  L 7.05951219512195 10.3846153846154  Z M 8.90341463414634 10.3846153846154  L 13.5 22.9110576923077  L 18.0965853658537 10.3846153846154  L 8.90341463414634 10.3846153846154  Z M 2.5419512195122 8.30769230769231  L 7.0990243902439 8.30769230769231  L 9.78585365853658 2.07692307692308  L 6.33512195121951 2.07692307692308  L 2.5419512195122 8.30769230769231  Z M 19.9404878048781 10.3846153846154  L 15.9892682926829 21.1748798076923  L 24.1946341463415 10.3846153846154  L 19.9404878048781 10.3846153846154  Z M 11.6956097560976 2.07692307692308  L 9.00878048780488 8.30769230769231  L 17.9912195121951 8.30769230769231  L 15.3043902439024 2.07692307692308  L 11.6956097560976 2.07692307692308  Z M 17.2141463414634 2.07692307692308  L 19.9009756097561 8.30769230769231  L 24.4580487804878 8.30769230769231  L 20.6648780487805 2.07692307692308  L 17.2141463414634 2.07692307692308  Z M 21.0863414634146 0  C 21.3760975609756 0  21.6 0.140624999999998  21.7580487804878 0.421875  L 26.8156097560976 8.72956730769231  C 26.9385365853659 8.92427884615385  26.9956097560976 9.14873798076923  26.9868292682927 9.40294471153846  C 26.9780487804878 9.65715144230769  26.9034146341463 9.87620192307692  26.7629268292683 10.0600961538462  L 14.1190243902439 26.6754807692308  C 13.9609756097561 26.8918269230769  13.7546341463415 27  13.5 27  C 13.2453658536585 27  13.0390243902439 26.8918269230769  12.8809756097561 26.6754807692308  L 0.237073170731707 10.0600961538462  C 0.0965853658536585 9.87620192307692  0.0219512195121951 9.65715144230769  0.0131707317073171 9.40294471153846  C 0.00439024390243902 9.14873798076923  0.0614634146341463 8.92427884615385  0.184390243902439 8.72956730769231  L 5.2419512195122 0.421875  C 5.4 0.140624999999998  5.62390243902439 0  5.91365853658537 0  L 21.0863414634146 0  Z " fill-rule="nonzero" fill="#000000" stroke="none" transform="matrix(1 0 0 1 871 312 )" />
  </g>
</svg>