<?xml version="1.0" encoding="utf-8"?>
<svg version="1.1" xmlns:xlink="http://www.w3.org/1999/xlink" width="120px" height="120px" xmlns="http://www.w3.org/2000/svg">
  <g transform="matrix(1 0 0 1 -933 -172 )">
    <path d="M 993 172  C 1026.6 172  1053 198.4  1053 232  C 1053 265.6  1026.6 292  993 292  C 959.4 292  933 265.6  933 232  C 933 198.4  959.4 172  993 172  Z " fill-rule="nonzero" fill="#ffffff" stroke="none" />
    <path d="M 993 172.5  C 1026.32 172.5  1052.5 198.68  1052.5 232  C 1052.5 265.32  1026.32 291.5  993 291.5  C 959.68 291.5  933.5 265.32  933.5 232  C 933.5 198.68  959.68 172.5  993 172.5  Z " stroke-width="1" stroke="#ffffff" fill="none" />
  </g>
</svg>