<?xml version="1.0" encoding="utf-8"?>
<svg version="1.1" xmlns:xlink="http://www.w3.org/1999/xlink" width="80px" height="80px" xmlns="http://www.w3.org/2000/svg">
  <g transform="matrix(1 0 0 1 -85 -800 )">
    <path d="M 125 800  C 147.4 800  165 817.6  165 840  C 165 862.4  147.4 880  125 880  C 102.6 880  85 862.4  85 840  C 85 817.6  102.6 800  125 800  Z " fill-rule="nonzero" fill="#ffffff" stroke="none" />
    <path d="M 125 800.5  C 147.12 800.5  164.5 817.88  164.5 840  C 164.5 862.12  147.12 879.5  125 879.5  C 102.88 879.5  85.5 862.12  85.5 840  C 85.5 817.88  102.88 800.5  125 800.5  Z " stroke-width="1" stroke="#ffffff" fill="none" />
  </g>
</svg>