<?xml version="1.0" encoding="utf-8"?>
<svg version="1.1" xmlns:xlink="http://www.w3.org/1999/xlink" width="18px" height="22px" xmlns="http://www.w3.org/2000/svg">
  <g transform="matrix(1 0 0 1 -30 -484 )">
    <path d="M 18 2.05  C 18 1  17.175 0.175  16.125 0.175  L 14.475 0.175  L 14.475 1.675  L 15.375 1.675  C 16.0125 1.675  16.5 2.1625  16.5 2.8  L 16.5 18.7  C 16.5 19.3375  16.0125 19.825  15.375 19.825  L 2.625 19.825  C 1.9875 19.825  1.5 19.3375  1.5 18.7  L 1.5 2.8  C 1.5 2.1625  1.9875 1.675  2.625 1.675  L 3.525 1.675  L 3.525 0.175  L 1.875 0.175  C 0.825 0.175  0 1  0 2.05  L 0 19.45  C 0 20.5  0.825 21.325  1.875 21  L 16.125 21  C 17.175 21.325  18 20.5  18 19.45  L 18 2.05  Z " fill-rule="nonzero" fill="#257694" stroke="none" transform="matrix(1 0 0 1 30 484 )" />
  </g>
</svg>