<?xml version="1.0" encoding="utf-8"?>
<svg version="1.1" xmlns:xlink="http://www.w3.org/1999/xlink" width="22px" height="20px" xmlns="http://www.w3.org/2000/svg">
  <g transform="matrix(1 0 0 1 -398 -1435 )">
    <path d="M 10.017122375 4.4913908125  C 9.3196033203125 2.76782340625  7.767495640625 1.6532990546875  6.0660891875 1.6532990546875  C 3.677740484375 1.6532990546875  1.734290140625 3.8051201171875  1.734290140625 6.448056203125  C 1.734290140625 7.9541870546875  2.351967359375 9.0412260390625  3.2262226015625 10.4138633828125  C 5.0924453046875 13.3449880703125  9.6676793046875 17.1168387578125  11.000047953125 18.1817167890625  C 12.332320671875 17.11683878125  16.907626625 13.34498809375  18.772458265625 10.4138633828125  C 19.6454183984375 9.042641078125  20.26436675 7.95560209375  20.26436675 6.448056203125  C 20.26436675 3.803824984375  18.3222115390625 1.6532990546875  15.9338868125 1.6532990546875  C 14.23519053125 1.6532990546875  12.6856491171875 2.76393803125  11.9854198671875 4.482205046875  C 11.9789202734375 4.5005766015625  11.9710536171875 4.5162859375  11.9618438515625 4.5332664296875  C 11.800912953125 4.9366489375  11.4266706875 5.1999424140625  11.000047953125 5.1999424140625  C 10.5759914609375 5.1999424140625  10.204267484375 4.9393590859375  10.040698390625 4.5398379765625  C 10.031512625 4.5241526171875  10.0250370078125 4.5083713046875  10.017122375 4.4913908125  Z M 11.367766625 19.4272643125  C 11.2591442890625 19.510991546875  11.1308552890625 19.55296309375  11.0000479765625 19.55296309375  C 10.869120734375 19.55296309375  10.740831734375 19.510991546875  10.632209375 19.4272643125  C 10.3835699609375 19.2346988828125  4.5087530703125 14.6703535  2.210679171875 11.062167859375  C 1.2592442421875 9.5664219765625  0.530258492187498 8.277727703125  0.530258492187498 6.4480562265625  C 0.530258492187498 3.139739265625  3.01286328125 0.4470129296875  6.0660891875 0.4470129296875  C 8.1562000859375 0.4470129296875  10.059093921875 1.725322234375  11.000071953125 3.7317778515625  C 11.9410020078125 1.72664134375  13.845190953125 0.4470129296875  15.935205921875 0.4470129296875  C 18.98713671875 0.4470129296875  21.4697415078125 3.1397152890625  21.4697415078125 6.4480562265625  C 21.4697415078125 8.277727703125  20.740779734375 9.567837015625  19.7894167578125 11.062167859375  C 17.4912229296875 14.6703775  11.617701171875 19.23340375  11.367766625 19.4272643125  Z " fill-rule="nonzero" fill="#ffffff" stroke="none" transform="matrix(1 0 0 1 398 1435 )" />
  </g>
</svg>