<?xml version="1.0" encoding="utf-8"?>
<svg version="1.1" xmlns:xlink="http://www.w3.org/1999/xlink" width="213px" height="48px" xmlns="http://www.w3.org/2000/svg">
  <g transform="matrix(1 0 0 1 -284 -164 )">
    <path d="M 284 196.8  C 284 196.8  284 169  284 169  C 284 166.238576250846  286.238576250846 164  289 164  C 289 164  492 164  492 164  C 494.761423749154 164  497 166.238576250846  497 169  C 497 169  497 196.8  497 196.8  C 497 199.561423749154  494.761423749154 201.8  492 201.8  C 492 201.8  350.0375 201.8  350.0375 201.8  C 350.0375 201.8  339.829166666667 211.75  339.829166666667 211.75  C 339.829166666667 211.75  330.0375 201.8  330.0375 201.8  C 330.0375 201.8  289 201.8  289 201.8  C 286.238576250846 201.8  284 199.561423749154  284 196.8  Z " fill-rule="nonzero" fill="#000000" stroke="none" fill-opacity="0.8" />
  </g>
</svg>