<?xml version="1.0" encoding="utf-8"?>
<svg version="1.1" xmlns:xlink="http://www.w3.org/1999/xlink" width="100px" height="100px" xmlns="http://www.w3.org/2000/svg">
  <g transform="matrix(1 0 0 1 -60 -142 )">
    <path d="M 105.525162056745 142.702679328047  C 107.012866964636 142.567636725772  108.506007749686 142.5  110 142.5  C 137.338095116624 142.5  159.5 164.661904883376  159.5 192  C 159.5 219.338095116624  137.338095116624 241.5  110 241.5  C 84.1338161248562 241.5  62.6595595067647 221.59298310341  60.6507726755156 195.861105017222  L 110.03396392294 192.498845118186  A 0.5 0.5 0 0 0 110.497470760719 191.949772097104 L 105.525162056745 142.702679328047  Z " fill-rule="nonzero" fill="#fb6260" stroke="none" />
    <path d="M 105.525162056745 142.702679328047  C 107.012866964636 142.567636725772  108.506007749686 142.5  110 142.5  C 137.338095116624 142.5  159.5 164.661904883376  159.5 192  C 159.5 219.338095116624  137.338095116624 241.5  110 241.5  C 84.1338161248562 241.5  62.6595595067647 221.59298310341  60.6507726755156 195.861105017222  L 110.03396392294 192.498845118186  A 0.5 0.5 0 0 0 110.497470760719 191.949772097104 L 105.525162056745 142.702679328047  Z " stroke-width="1" stroke="#ffffff" fill="none" />
  </g>
</svg>