<?xml version="1.0" encoding="utf-8"?>
<svg version="1.1" xmlns:xlink="http://www.w3.org/1999/xlink" width="110px" height="35px" xmlns="http://www.w3.org/2000/svg">
  <g transform="matrix(1 0 0 1 -1420 -126 )">
    <path d="M 1421 131  A 4 4 0 0 1 1425 127 L 1525 127  A 4 4 0 0 1 1529 131 L 1529 156  A 4 4 0 0 1 1525 160 L 1425 160  A 4 4 0 0 1 1421 156 L 1421 131  Z " fill-rule="nonzero" fill="#409eff" stroke="none" fill-opacity="0.0784313725490196" />
    <path d="M 1420.5 131  A 4.5 4.5 0 0 1 1425 126.5 L 1525 126.5  A 4.5 4.5 0 0 1 1529.5 131 L 1529.5 156  A 4.5 4.5 0 0 1 1525 160.5 L 1425 160.5  A 4.5 4.5 0 0 1 1420.5 156 L 1420.5 131  Z " stroke-width="1" stroke="#7abbff" fill="none" stroke-opacity="0.996078431372549" />
  </g>
</svg>