<?xml version="1.0" encoding="utf-8"?>
<svg version="1.1" xmlns:xlink="http://www.w3.org/1999/xlink" width="110px" height="35px" xmlns="http://www.w3.org/2000/svg">
  <g transform="matrix(1 0 0 1 -1420 -126 )">
    <path d="M 1420.5 131  A 4.5 4.5 0 0 1 1425 126.5 L 1525 126.5  A 4.5 4.5 0 0 1 1529.5 131 L 1529.5 156  A 4.5 4.5 0 0 1 1525 160.5 L 1425 160.5  A 4.5 4.5 0 0 1 1420.5 156 L 1420.5 131  Z " fill-rule="nonzero" fill="#ffffff" stroke="none" />
    <path d="M 1420.5 131  A 4.5 4.5 0 0 1 1425 126.5 L 1525 126.5  A 4.5 4.5 0 0 1 1529.5 131 L 1529.5 156  A 4.5 4.5 0 0 1 1525 160.5 L 1425 160.5  A 4.5 4.5 0 0 1 1420.5 156 L 1420.5 131  Z " stroke-width="1" stroke="#e4e4e4" fill="none" />
  </g>
</svg>