<?xml version="1.0" encoding="utf-8"?>
<svg version="1.1" xmlns:xlink="http://www.w3.org/1999/xlink" width="44px" height="43px" xmlns="http://www.w3.org/2000/svg">
  <g transform="matrix(1 0 0 1 -320 -205 )">
    <path d="M 25.1598557692308 11.0379464285714  C 26.5084134615385 12.2537202380952  27.1826923076923 13.7254464285714  27.1826923076923 15.453125  C 27.1826923076923 17.164806547619  26.5084134615385 18.6285342261905  25.1598557692308 19.8443080357143  C 23.8112980769231 21.0600818452381  22.1939102564103 21.66796875  20.3076923076923 21.66796875  C 18.4214743589744 21.66796875  16.8040865384615 21.0600818452381  15.4555288461538 19.8443080357143  C 14.1069711538462 18.6285342261905  13.4326923076923 17.164806547619  13.4326923076923 15.453125  C 13.4326923076923 13.7254464285714  14.1069711538462 12.2537202380952  15.4555288461538 11.0379464285714  C 16.8040865384615 9.82217261904762  18.4214743589744 9.21428571428572  20.3076923076923 9.21428571428572  C 22.1939102564103 9.21428571428572  23.8112980769231 9.82217261904762  25.1598557692308 11.0379464285714  Z M 25.0673076923077 21.2000558035714  C 25.5080128205128 20.9521019345238  25.7900641025641 20.7961309523809  25.9134615384615 20.7321428571429  C 26.724358974359 20.7321428571429  27.4515224358974 20.8681175595238  28.0949519230769 21.1400669642857  C 28.7383814102564 21.4120163690476  29.2672275641026 21.7919456845238  29.6814903846154 22.2798549107143  C 30.0957532051282 22.7677641369048  30.4439102564103 23.3036644345238  30.7259615384615 23.8875558035714  C 31.0080128205128 24.471447172619  31.2195512820513 25.1193266369048  31.3605769230769 25.8311941964286  C 31.5016025641026 26.5430617559524  31.6029647435897 27.2029389880952  31.6646634615385 27.8108258928571  C 31.7263621794872 28.418712797619  31.7572115384615 29.0505952380952  31.7572115384615 29.7064732142857  C 31.7572115384615 30.7782738095238  31.4090544871795 31.7260974702381  30.7127403846154 32.5499441964286  C 30.0164262820513 33.373790922619  29.0865384615385 33.7857142857143  27.9230769230769 33  L 12.6923076923077 33  C 11.5288461538462 33.7857142857143  10.5989583333333 33.373790922619  9.90264423076923 32.5499441964286  C 9.20633012820513 31.7260974702381  8.85817307692308 30.7782738095238  8.85817307692308 29.7064732142857  C 8.85817307692308 28.9386160714286  8.89783653846154 28.1907552083333  8.97716346153846 27.462890625  C 9.05649038461539 26.7350260416667  9.21955128205128 25.9471726190476  9.46634615384616 25.0993303571429  C 9.71314102564103 24.2514880952381  10.0348557692308 23.5196242559524  10.4314903846154 22.9037388392857  C 10.828125 22.287853422619  11.3834134615385 21.7719494047619  12.0973557692308 21.3560267857143  C 12.8112980769231 20.9401041666667  13.6354166666667 20.7321428571429  14.5697115384615 20.7321428571429  L 14.7019230769231 20.7321428571429  C 14.8253205128205 20.7961309523809  15.1073717948718 20.9521019345238  15.5480769230769 21.2000558035714  C 15.9887820512821 21.448009672619  16.3016826923077 21.615978422619  16.4867788461538 21.7039620535714  C 16.671875 21.7919456845238  16.9627403846154 21.9279203869048  17.359375 22.1118861607143  C 17.7560096153846 22.2958519345238  18.0821314102564 22.423828125  18.3377403846154 22.4958147321429  C 18.5933493589744 22.5678013392857  18.9018429487179 22.6397879464286  19.2632211538462 22.7117745535714  C 19.6245993589744 22.7837611607143  19.9727564102564 22.8197544642857  20.3076923076923 22.8197544642857  C 20.6426282051282 22.8197544642857  20.9907852564103 22.7837611607143  21.3521634615385 22.7117745535714  C 21.7135416666667 22.6397879464286  22.0220352564103 22.5678013392857  22.2776442307692 22.4958147321429  C 22.5332532051282 22.423828125  22.859375 22.2958519345238  23.2560096153846 22.1118861607143  C 23.6526442307692 21.9279203869048  23.9435096153846 21.7919456845238  24.1286057692308 21.7039620535714  C 24.3137019230769 21.615978422619  24.6266025641026 21.448009672619  25.0673076923077 21.2000558035714  Z M 44 9.98214285714286  L 44 14.5892857142857  C 44 14.7972470238095  43.916266025641 14.9772135416667  43.7487980769231 15.1291852678571  C 43.5813301282051 15.2811569940476  43.3830128205128 15.3571428571429  43.1538461538462 15.3571428571429  L 40.6153846153846 15.3571428571429  L 40.6153846153846 18.4285714285714  L 43.1538461538462 18.4285714285714  C 43.3830128205128 18.4285714285714  43.5813301282051 18.5045572916667  43.7487980769231 18.6565290178571  C 43.916266025641 18.8085007440476  44 18.9884672619048  44 19.1964285714286  L 44 23.8035714285714  C 44 24.0115327380952  43.916266025641 24.1914992559524  43.7487980769231 24.3434709821429  C 43.5813301282051 24.4954427083333  43.3830128205128 24.5714285714286  43.1538461538462 24.5714285714286  L 40.6153846153846 24.5714285714286  L 40.6153846153846 27.6428571428571  L 43.1538461538462 27.6428571428571  C 43.3830128205128 27.6428571428571  43.5813301282051 27.7188430059524  43.7487980769231 27.8708147321429  C 43.916266025641 28.0227864583333  44 28.2027529761905  44 28.4107142857143  L 44 33.0178571428571  C 44 33.225818452381  43.916266025641 33.4057849702381  43.7487980769231 33.5577566964286  C 43.5813301282051 33.709728422619  43.3830128205128 33.7857142857143  43.1538461538462 33.7857142857143  L 40.6153846153846 33.7857142857143  L 40.6153846153846 39.1607142857143  C 40.6153846153846 40.2165178571429  40.2011217948718 41.120349702381  39.3725961538462 41.8722098214286  C 38.5440705128205 42.6240699404762  37.5480769230769 43  36.3846153846154 43  L 4.23076923076923 43  C 3.06730769230769 43  2.0713141025641 42.6240699404762  1.24278846153846 41.8722098214286  C 0.41426282051282 41.120349702381  0 40.2165178571429  0 39.1607142857143  L 0 3.83928571428571  C 0 2.78348214285715  0.41426282051282 1.87965029761905  1.24278846153846 1.12779017857143  C 2.0713141025641 0.37593005952381  3.06730769230769 0  4.23076923076923 0  L 36.3846153846154 0  C 37.5480769230769 0  38.5440705128205 0.37593005952381  39.3725961538462 1.12779017857143  C 40.2011217948718 1.87965029761905  40.6153846153846 2.78348214285715  40.6153846153846 3.83928571428571  L 40.6153846153846 9.21428571428572  L 43.1538461538462 9.21428571428572  C 43.3830128205128 9.21428571428572  43.5813301282051 9.29027157738095  43.7487980769231 9.44224330357143  C 43.916266025641 9.59421502976191  44 9.77418154761905  44 9.98214285714286  Z M 36.9795673076923 39.7006138392857  C 37.1470352564103 39.5486421130952  37.2307692307692 39.3686755952381  37 39.1607142857143  L 37 3.83928571428571  C 37.2307692307692 3.63132440476191  37.1470352564103 3.45135788690476  36.9795673076923 3.29938616071429  C 36.8120993589744 3.14741443452381  36.6137820512821 3.07142857142857  36.3846153846154 3  L 4.23076923076923 3  C 4.00160256410256 3.07142857142857  3.80328525641026 3.14741443452381  3.63581730769231 3.29938616071429  C 3.46834935897436 3.45135788690476  3.38461538461539 3.63132440476191  4 3.83928571428571  L 4 39.1607142857143  C 3.38461538461539 39.3686755952381  3.46834935897436 39.5486421130952  3.63581730769231 39.7006138392857  C 3.80328525641026 39.8525855654762  4.00160256410256 39.9285714285714  4.23076923076923 40  L 36.3846153846154 40  C 36.6137820512821 39.9285714285714  36.8120993589744 39.8525855654762  36.9795673076923 39.7006138392857  Z " fill-rule="nonzero" fill="#000000" stroke="none" transform="matrix(1 0 0 1 320 205 )" />
  </g>
</svg>