<?xml version="1.0" encoding="utf-8"?>
<svg version="1.1" xmlns:xlink="http://www.w3.org/1999/xlink" width="100px" height="100px" xmlns="http://www.w3.org/2000/svg">
  <g transform="matrix(1 0 0 1 -500 -162 )">
    <path d="M 100 50  C 100 22.3836571216862  77.6162285151136 0  50 0  C 22.3857143190913 0  0 22.3836571216862  0 50  C 0 77.6163428783138  22.3857143190913 100  50 100  C 77.6163428783136 100  100 77.6163428783138  100 50  Z M 95.8332571098139 50  C 95.8332571098139 61.1206856041673  91.8497142378578 71.3254855920662  85.2395428356095 79.2682285034452  C 80.6700570932811 77.3598856360853  69.8811428176975 73.6165713768808  63.2059428693897 71.6471998833888  C 62.634171431089 71.4681141482864  62.5467428867014 71.4395427811087  62.5467428867014 69.0674284354742  C 62.5467428867014 67.1102855398486  63.3504000082987 65.1409141580396  64.1357714146958 63.4724570371967  C 64.9881143130411 61.65759994324  65.9972570879953 58.6100569854402  66.3572571408887 55.8756569981559  C 67.3724571448589 54.6995427227656  68.7518857363673 52.3802284370074  69.6368000335014 47.9612569509205  C 70.4158857078481 44.0633140406635  70.0519999865444 42.6469712642044  69.5370286397306 41.31691407023  C 69.4822857456487 41.1743997655268  69.4252572628105 41.0359997439515  69.3866286350058 40.897599834059  C 69.1913143821089 39.9862855069871  69.4579429131162 35.2378283927559  70.1251429590254 31.5549712787322  C 70.587085854612 29.0283427569279  70.009142935778 23.6572569787249  66.5301715071406 19.2095998739431  C 64.3329143619631 16.4020570258605  60.1277714586898 12.9516569644011  52.4493714895605 12.4713142137809  L 48.23782860272 12.4755427484258  C 40.6899428434617 12.9516570760837  36.484685800354 16.4020570258605  34.2874286551767 19.2095998739431  C 30.8083429750223 23.6572569787249  30.2305144193883 29.0283427569279  30.6902857543693 31.5549712787322  C 31.3596571375184 35.2377141412388  31.6260571654907 39.9861712554699  31.4349714472393 40.8813713162647  C 31.3921142847897 41.0358856041172  31.3353143049854 41.1742856256925  31.2804571593865 41.3169141819128  C 30.7658285671241 42.6469713758872  30.4015999795864 44.0633141523464  31.1806857656158 47.9612570626032  C 32.0656000627498 52.3802284370074  33.4450286542582 54.6995427227655  34.4603429097459 55.8756571098388  C 34.8203429626387 58.610057097123  35.8294857375935 61.65759994324  36.6820571389732 63.4724571488796  C 37.3066285254673 64.7988571774775  37.5976000006901 66.6016000367677  37.5976000006901 69.1526857543047  C 37.5976000006901 71.5251428544906  37.5101714563024 71.5533714671169  36.9750856999179 71.7204572190699  C 30.0700571540365 73.7592000447839  19.0795428935063 77.7302858158392  14.9821714472251 79.5246857456738  C 8.2417143381403 71.5456000186126  4.16662863866924 61.2425143533968  4.16662863866924 50  C 4.16662863866924 24.727428603177  24.7274286031771 4.16674289018613  50 4.16674289018613  C 75.2725713968229 4.16674289018613  95.8332571098139 24.72731435166  95.8332571098139 50  Z " fill-rule="nonzero" fill="#cccccc" stroke="none" transform="matrix(1 0 0 1 500 162 )" />
  </g>
</svg>