<?xml version="1.0" encoding="utf-8"?>
<svg version="1.1" xmlns:xlink="http://www.w3.org/1999/xlink" width="30px" height="30px" xmlns="http://www.w3.org/2000/svg">
  <g transform="matrix(1 0 0 1 -123 -169 )">
    <path d="M 138 170  C 145.84 170  152 176.16  152 184  C 152 191.84  145.84 198  138 198  C 130.16 198  124 191.84  124 184  C 124 176.16  130.16 170  138 170  Z " fill-rule="nonzero" fill="#ffffff" stroke="none" />
    <path d="M 138 170  C 145.84 170  152 176.16  152 184  C 152 191.84  145.84 198  138 198  C 130.16 198  124 191.84  124 184  C 124 176.16  130.16 170  138 170  Z " stroke-width="2" stroke="#0079fe" fill="none" />
  </g>
</svg>