<?xml version="1.0" encoding="utf-8"?>
<svg version="1.1" xmlns:xlink="http://www.w3.org/1999/xlink" width="20px" height="20px" xmlns="http://www.w3.org/2000/svg">
  <g transform="matrix(1 0 0 1 -401 -110 )">
    <path d="M 19.815585015625 2.8030075703125  C 19.8155850390625 1.511003546875  18.76437775 0.46003609375  17.4723737265625 0.46003609375  L 2.6482644765625 0.46003609375  C 1.356260453125 0.46003609375  0.305293000000001 1.511003546875  0.305293000000001 2.8030075703125  L 0.305293000000001 14.5629543203125  C 0.305293000000001 15.8547185078125  1.356260453125 16.905925796875  2.6482644765625 16.905925796875  L 3.238024609375 16.905925796875  L 3.238024609375 19.8556858515625  L 6.5748822109375 17  L 17.472373703125 17  C 18.7643777265625 16.905925796875  19.815585015625 15.8547185078125  19.815585015625 14.5629543203125  L 19.815585015625 2.8030075703125  Z M 18 2.803007546875  L 18 14.5629543203125  C 18.3765606953125 15.061336421875  17.9709956640625 15.466901453125  17.4723737265625 15.466901453125  L 6.3307277734375 15.466901453125  C 6.3249716875 15.4666616171875  6.3189757421875 15.46642178125  6.3132196328125 15.46642178125  C 6.307463546875 15.46642178125  6.3017074375 15.46642178125  6.2959513515625 15.466901453125  C 6.109597703125 15.4709786875  5.9405123359375 15.54412909375  5.8126790078125 15.66164940625  L 4.6770489765625 16.662970515625  L 4.6770489765625 16.2391778359375  C 4.6780083203125 16.22358840625  4.678727828125 16.2079989765625  4.678727828125 16.1921697109375  C 4.678727828125 15.797637203125  4.3623823046875 15.4772144453125  3.969528671875 15.47025915625  L 3.969528671875 15.4669014296875  L 2.6482645 15.4669014296875  C 2.1496425625 15.4669014296875  1.7443173671875 15.0613363984375  2 14.562954296875  L 2 2.803007546875  C 1.7443173671875 2.3046254453125  2.1496425625 1.8990604140625  2.6482645 2  L 17.47237375 2  C 17.9709956875 1.8990604140625  18.37656071875 2.3046254453125  18 2.803007546875  Z " fill-rule="nonzero" fill="#ffffff" stroke="none" transform="matrix(1 0 0 1 401 110 )" />
  </g>
</svg>