<?xml version="1.0" encoding="utf-8"?>
<svg version="1.1" xmlns:xlink="http://www.w3.org/1999/xlink" width="24px" height="20px" xmlns="http://www.w3.org/2000/svg">
  <g transform="matrix(1 0 0 1 -398 -352 )">
    <path d="M 23 6.63952  C 23.04 5.31616  21.96336 4.23952  20.64 4.23952  L 17.76 4.23952  L 17.76 3.75952  C 17.76 1.90672  16.2528 0.39952  14.4 0.39952  L 9.12 0.39952  C 7.2672 0.39952  5.76 1.90672  5.76 3.75952  L 5.76 4.23952  L 3.36 4.23952  C 2.03664 4.23952  0.96 5.31616  1 6.63952  L 1 17.19952  C 0.96 18.52288  2.03664 19.59952  3.36 19.59952  L 20.64 19.59952  C 21.96336 19.59952  23.04 18.52288  23 17.19952  L 23 6.63952  Z M 7.2 4.23952  L 7.2 3.75952  C 7.2 2.69913328032488  8.05961328032488 1.83952  9.12 1.83952  L 14.4 1.83952  C 15.4603867196751 1.83952  16.32 2.69913328032488  16.32 3.75952  L 16.32 4.23952  L 7.2 4.23952  Z M 2.4 6.63952  C 2.4 6.10932664016243  2.82980664016244 5.67952  3.36 6  L 20.64 6  C 21.1701933598376 5.67952  21.6 6.10932664016244  21.6 6.63952  L 21.6 9.01264  C 19.8072 9.74368  15.95136 11.19952  14.56512 11.19952  L 9.43488 11.19952  C 8.00544 11.19952  4.17648 9.74512  2.4 9.01408  L 2.4 6.63952  Z M 21.6 17.2  C 21.5997349970176 17.7300058984812  21.1700059647319 18.1595200662507  20.64 18  L 3.36 18  C 3.36 18.15952  3.36 18.15952  3.36 18.15952  C 2.82980664016244 18.15952  2.4 17.7297133598376  2.4 17.19952  L 2.4 10.56928  C 4.15536 11.27392  7.7736 12.64  9.43488 12.64  L 14.56512 12.64  C 16.1832 12.64  19.83504 11.26864  21.6 10.56592  L 21.6 17.2  Z " fill-rule="nonzero" fill="#ffffff" stroke="none" transform="matrix(1 0 0 1 398 352 )" />
  </g>
</svg>