<?xml version="1.0" encoding="utf-8"?>
<svg version="1.1" xmlns:xlink="http://www.w3.org/1999/xlink" width="134px" height="134px" xmlns="http://www.w3.org/2000/svg">
  <g transform="matrix(1 0 0 1 -918 -1364 )">
    <path d="M 985 1364  C 1022.52 1364  1052 1393.48  1052 1431  C 1052 1468.52  1022.52 1498  985 1498  C 947.48 1498  918 1468.52  918 1431  C 918 1393.48  947.48 1364  985 1364  Z " fill-rule="nonzero" fill="#ffffff" stroke="none" />
    <path d="M 985 1364.5  C 1022.24 1364.5  1051.5 1393.76  1051.5 1431  C 1051.5 1468.24  1022.24 1497.5  985 1497.5  C 947.76 1497.5  918.5 1468.24  918.5 1431  C 918.5 1393.76  947.76 1364.5  985 1364.5  Z " stroke-width="1" stroke="#ffffff" fill="none" />
  </g>
</svg>