<?xml version="1.0" encoding="utf-8"?>
<svg version="1.1" xmlns:xlink="http://www.w3.org/1999/xlink" width="59px" height="25px" xmlns="http://www.w3.org/2000/svg">
  <g transform="matrix(1 0 0 1 -151 -15 )">
    <path d="M 152 20  A 4 4 0 0 1 156 16 L 205 16  A 4 4 0 0 1 209 20 L 209 35  A 4 4 0 0 1 205 39 L 156 39  A 4 4 0 0 1 152 35 L 152 20  Z " fill-rule="nonzero" fill="#fef3f3" stroke="none" fill-opacity="0.996078431372549" />
    <path d="M 151.5 20  A 4.5 4.5 0 0 1 156 15.5 L 205 15.5  A 4.5 4.5 0 0 1 209.5 20 L 209.5 35  A 4.5 4.5 0 0 1 205 39.5 L 156 39.5  A 4.5 4.5 0 0 1 151.5 35 L 151.5 20  Z " stroke-width="1" stroke="#f89898" fill="none" stroke-opacity="0.996078431372549" />
  </g>
</svg>