<?xml version="1.0" encoding="utf-8"?>
<svg version="1.1" xmlns:xlink="http://www.w3.org/1999/xlink" width="10px" height="10px" xmlns="http://www.w3.org/2000/svg">
  <g transform="matrix(1 0 0 1 -32 -314 )">
    <path d="M 37 315  C 39.24 315  41 316.76  41 319  C 41 321.24  39.24 323  37 323  C 34.76 323  33 321.24  33 319  C 33 316.76  34.76 315  37 315  Z " fill-rule="nonzero" fill="#ffffff" stroke="none" />
    <path d="M 37 315  C 39.24 315  41 316.76  41 319  C 41 321.24  39.24 323  37 323  C 34.76 323  33 321.24  33 319  C 33 316.76  34.76 315  37 315  Z " stroke-width="2" stroke="#0079fe" fill="none" />
  </g>
</svg>