<?xml version="1.0" encoding="utf-8"?>
<svg version="1.1" xmlns:xlink="http://www.w3.org/1999/xlink" width="3px" height="12px" xmlns="http://www.w3.org/2000/svg">
  <g transform="matrix(1 0 0 1 -1056 -975 )">
    <path d="M 0 0.205714285714294  C 0 0.153065624999954  0.0246916695925847 0.100415624999982  0.0740569039676302 0.0602611607142762  C 0.123422138342676 0.0200919642857116  0.188123793012664 0  0.252808988763945 0  L 2.74719101123605 0  C 2.81189266590582 0  2.87659596646768 0.0200772321428531  2.92594309603237 0.0602611607142762  C 2.97530833040719 0.100430357142727  3 0.153079017857067  3 0.205714285714294  L 3 11.7942857142857  C 3 11.846934375  2.97530833040719 11.899584375  2.92594309603237 11.9397388392857  C 2.87657786165732 11.9798933035714  2.81187620698734 12  2.74719101123605 12  L 0.252808988763945 12  C 0.188107334093957 12  0.123404033532324 11.9799080357143  0.0740569039676302 11.9397388392857  C 0.0247097744031635 11.8995696428573  0 11.8469209821429  0 11.7942857142857  L 0 0.205714499999999  Z " fill-rule="nonzero" fill="#cccccc" stroke="none" transform="matrix(1 0 0 1 1056 975 )" />
  </g>
</svg>