<?xml version="1.0" encoding="utf-8"?>
<svg version="1.1" xmlns:xlink="http://www.w3.org/1999/xlink" width="30px" height="30px" xmlns="http://www.w3.org/2000/svg">
  <g transform="matrix(1 0 0 1 -558 -169 )">
    <path d="M 573 170  C 580.84 170  587 176.16  587 184  C 587 191.84  580.84 198  573 198  C 565.16 198  559 191.84  559 184  C 559 176.16  565.16 170  573 170  Z " fill-rule="nonzero" fill="#ffffff" stroke="none" />
    <path d="M 573 170  C 580.84 170  587 176.16  587 184  C 587 191.84  580.84 198  573 198  C 565.16 198  559 191.84  559 184  C 559 176.16  565.16 170  573 170  Z " stroke-width="2" stroke="#e4e4e4" fill="none" />
  </g>
</svg>