<?xml version="1.0" encoding="utf-8"?>
<svg version="1.1" xmlns:xlink="http://www.w3.org/1999/xlink" width="250px" height="27px" xmlns="http://www.w3.org/2000/svg">
  <g transform="matrix(1 0 0 1 -365 -192 )">
    <path d="M 249 26  L 0 24.6772656268466  C 0 24.6772656268466  9.34114886050713 24.6772656268466  12.5754417094038 23.9277901366929  C 15.8097345583005 23.1783146465393  22.2145512292874 17.4968146760584  23.4337923600012 16.9913246958211  C 27.2851800710524 15.3945627027234  28.6361570880836 17.3969649554986  37.002926799664 16.3636407259867  C 40.6155492348279 15.917469691882  42.4835405142505 0.826561049842156  46.4819082523886 0.826561049842156  C 50.4802759905266 0.826561049842156  54.7065069151251 21.4220683605711  61.0542028874092 21.4220683605711  C 67.4018988596934 21.4220683605711  69.4051049207245 15.917469691882  76.8483528690361 15.917469691882  C 84.2916008173477 15.917469691882  84.8039661272051 0  91.0642297733841 0  C 97.3244934195631 0  99.6514017895362 0  103.262713114805 0  C 106.874024440074 0  108.636490965345 14.6148958623403  113.237911097414 14.6148958623403  C 117.839331229482 14.6148958623403  120.118894699643 11.5637082169488  123.518048968795 11.5637082169488  C 126.917203237948 11.5637082169488  127.121421936431 16.9913246958211  136.716417296483 16.9913246958211  C 146.311412656535 16.9913246958211  149.625431447926 22.3183982347978  153.302493694051 20.6107231324171  C 156.979555940177 18.9030480300362  168.759013629321 13.506849804244  175.438628039024 13.0238500843026  C 182.118242448726 12.540850364361  181.856368786572 15.7046739953772  187.234555398399 15.8714939825176  C 192.612742010226 16.0383139696581  194.260003353379 20.6107231324171  201.971200682871 20.6107231324171  C 209.682398012362 20.6107231324171  209.832729594764 14.0317125194081  214.590245513185 14.0317125194081  C 219.347761431605 14.0317125194081  220.904687789593 26  228.998391868612 26  C 232.995041372144 26  232.454345798126 25.0555108602828  237.834582537492 25.0555108602828  C 243.214819276859 25.0555108602828  245.178192220071 26  249 26  Z " fill-rule="nonzero" fill="#ff7a8c" stroke="none" transform="matrix(1 0 0 1 365 192 )" />
    <path d="M 0 24.6772656268466  C 0 24.6772656268466  9.34114886050713 24.6772656268466  12.5754417094038 23.9277901366929  C 15.8097345583005 23.1783146465393  22.2145512292874 17.4968146760584  23.4337923600012 16.9913246958211  C 27.2851800710524 15.3945627027234  28.6361570880836 17.3969649554986  37.002926799664 16.3636407259867  C 40.6155492348279 15.917469691882  42.4835405142505 0.826561049842156  46.4819082523886 0.826561049842156  C 50.4802759905266 0.826561049842156  54.7065069151251 21.4220683605711  61.0542028874092 21.4220683605711  C 67.4018988596934 21.4220683605711  69.4051049207245 15.917469691882  76.8483528690361 15.917469691882  C 84.2916008173477 15.917469691882  84.8039661272051 0  91.0642297733841 0  C 97.3244934195631 0  99.6514017895362 0  103.262713114805 0  C 106.874024440074 0  108.636490965345 14.6148958623403  113.237911097414 14.6148958623403  C 117.839331229482 14.6148958623403  120.118894699643 11.5637082169488  123.518048968795 11.5637082169488  C 126.917203237948 11.5637082169488  127.121421936431 16.9913246958211  136.716417296483 16.9913246958211  C 146.311412656535 16.9913246958211  149.625431447926 22.3183982347978  153.302493694051 20.6107231324171  C 156.979555940177 18.9030480300362  168.759013629321 13.506849804244  175.438628039024 13.0238500843026  C 182.118242448726 12.540850364361  181.856368786572 15.7046739953772  187.234555398399 15.8714939825176  C 192.612742010226 16.0383139696581  194.260003353379 20.6107231324171  201.971200682871 20.6107231324171  C 209.682398012362 20.6107231324171  209.832729594764 14.0317125194081  214.590245513185 14.0317125194081  C 219.347761431605 14.0317125194081  220.904687789593 26  228.998391868612 26  C 232.995041372144 26  232.454345798126 25.0555108602828  237.834582537492 25.0555108602828  C 243.214819276859 25.0555108602828  245.178192220071 26  249 26  " stroke-width="1" stroke="#797979" fill="none" transform="matrix(1 0 0 1 365 192 )" />
  </g>
</svg>