<?xml version="1.0" encoding="utf-8"?>
<svg version="1.1" xmlns:xlink="http://www.w3.org/1999/xlink" width="46px" height="46px" xmlns="http://www.w3.org/2000/svg">
  <g transform="matrix(1 0 0 1 -1149 -153 )">
    <path d="M 1172 153  C 1184.88 153  1195 163.12  1195 176  C 1195 188.88  1184.88 199  1172 199  C 1159.12 199  1149 188.88  1149 176  C 1149 163.12  1159.12 153  1172 153  Z " fill-rule="nonzero" fill="#ffffff" stroke="none" />
    <path d="M 1172 153.5  C 1184.6 153.5  1194.5 163.4  1194.5 176  C 1194.5 188.6  1184.6 198.5  1172 198.5  C 1159.4 198.5  1149.5 188.6  1149.5 176  C 1149.5 163.4  1159.4 153.5  1172 153.5  Z " stroke-width="1" stroke="#ffffff" fill="none" />
  </g>
</svg>