<?xml version="1.0" standalone="no"?><!DOCTYPE svg PUBLIC "-//W3C//DTD SVG 1.1//EN" "http://www.w3.org/Graphics/SVG/1.1/DTD/svg11.dtd"><svg t="1533291283377" class="icon" style="" viewBox="0 0 1169 1024" version="1.1" xmlns="http://www.w3.org/2000/svg" p-id="2247" xmlns:xlink="http://www.w3.org/1999/xlink" width="54.796875" height="48"><defs><style type="text/css"></style></defs><path d="M740.846062 477.320816a272.974067 272.974067 0 0 0 96.279284-209.957558 251.261882 251.261882 0 1 0-501.500295 0 273.120277 273.120277 0 0 0 96.206179 209.957558 445.940495 445.940495 0 0 0-263.177997 413.11635v88.968784a43.205055 43.205055 0 0 0 41.742955 44.520945h752.031126a43.205055 43.205055 0 0 0 41.81606-44.520945v-88.968784a445.940495 445.940495 0 0 0-263.177997-413.11635zM420.28064 267.070838a166.460083 166.460083 0 1 1 166.094559 176.840993 171.869853 171.869853 0 0 1-166.094559-176.840993z m491.92354 666.352068H260.473112v-43.42437a326.486926 326.486926 0 1 1 651.657963 0v43.351265zM286.571597 511.460851l8.991915-2.04694a42.98574 42.98574 0 0 0 1.90073-83.047279 133.416624 133.416624 0 0 1-80.415499-121.500509 146.209998 146.209998 0 0 1 107.976083-126.617859 264.347677 264.347677 0 0 1 42.912635-79.465134 243.439647 243.439647 0 0 1 10.2347-15.35205c-3.728355 0-7.3105-1.096575-11.038855-1.096575a226.625498 226.625498 0 0 0-229.257278 222.531618 218.364633 218.364633 0 0 0 59.65368 149.280408 353.389566 353.389566 0 0 0-197.383498 315.813597v68.864909a45.17889 45.17889 0 0 0 45.836834 44.44784h82.17002A340.449981 340.449981 0 0 1 137.218083 804.611897h-58.045369v-34.651769A267.271877 267.271877 0 0 1 286.571597 511.460851z m685.871102-57.31432a218.510843 218.510843 0 0 0 59.65368-149.280408 226.625498 226.625498 0 0 0-229.257278-222.531618c-3.80146 0-7.3105 0.950365-11.038855 1.096575 3.582145 5.044245 7.3105 10.161595 10.2347 15.35205a263.177997 263.177997 0 0 1 42.98574 79.465134 154.763283 154.763283 0 0 1 115.579003 126.617859 133.489729 133.489729 0 0 1-80.415499 121.500509 42.912635 42.912635 0 0 0 1.973835 83.047279l8.91881 2.120045a267.198772 267.198772 0 0 1 207.398883 258.499277V804.611897h-65.794499a335.698156 335.698156 0 0 1 9.284335 78.80719h82.170019a45.105785 45.105785 0 0 0 45.544414-44.59405v-68.864909a353.024041 353.024041 0 0 0-197.383498-315.813597z" fill="#999999" p-id="2248"></path></svg>