<?xml version="1.0" encoding="utf-8"?>
<svg version="1.1" xmlns:xlink="http://www.w3.org/1999/xlink" width="100px" height="100px" xmlns="http://www.w3.org/2000/svg">
  <g transform="matrix(1 0 0 1 -855 -142 )">
    <path d="M 900.525162056745 142.702679328047  C 902.012866964636 142.567636725772  903.506007749686 142.5  905 142.5  C 932.338095116624 142.5  954.5 164.661904883376  954.5 192  C 954.5 218.961360837904  932.932411561913 240.930486524302  906.037955376296 241.489167424398  L 905.499970465755 191.994565538416  A 0.5 0.5 0 0 0 905.497470760719 191.949772097104 L 900.525162056745 142.702679328047  Z " fill-rule="nonzero" fill="#4bced0" stroke="none" />
    <path d="M 900.525162056745 142.702679328047  C 902.012866964636 142.567636725772  903.506007749686 142.5  905 142.5  C 932.338095116624 142.5  954.5 164.661904883376  954.5 192  C 954.5 218.961360837904  932.932411561913 240.930486524302  906.037955376296 241.489167424398  L 905.499970465755 191.994565538416  A 0.5 0.5 0 0 0 905.497470760719 191.949772097104 L 900.525162056745 142.702679328047  Z " stroke-width="1" stroke="#ffffff" fill="none" />
  </g>
</svg>