<?xml version="1.0" encoding="utf-8"?>
<svg version="1.1" xmlns:xlink="http://www.w3.org/1999/xlink" width="100px" height="35px" xmlns="http://www.w3.org/2000/svg">
  <g transform="matrix(1 0 0 1 -60 -1465 )">
    <path d="M 61 1470  A 4 4 0 0 1 65 1466 L 155 1466  A 4 4 0 0 1 159 1470 L 159 1495  A 4 4 0 0 1 155 1499 L 65 1499  A 4 4 0 0 1 61 1495 L 61 1470  Z " fill-rule="nonzero" fill="#f0f7ff" stroke="none" />
    <path d="M 60.5 1470  A 4.5 4.5 0 0 1 65 1465.5 L 155 1465.5  A 4.5 4.5 0 0 1 159.5 1470 L 159.5 1495  A 4.5 4.5 0 0 1 155 1499.5 L 65 1499.5  A 4.5 4.5 0 0 1 60.5 1495 L 60.5 1470  Z " stroke-width="1" stroke="#7abbff" fill="none" stroke-opacity="0.996078431372549" />
  </g>
</svg>