<?xml version="1.0" encoding="utf-8"?>
<svg version="1.1" xmlns:xlink="http://www.w3.org/1999/xlink" width="80px" height="80px" xmlns="http://www.w3.org/2000/svg">
  <defs>
    <mask fill="white" id="clip23">
      <path d="M 0 40  C 0 17.6  17.6 0  40 0  C 53.4403187077995 0  65.1525554611932 6.33630049948815  72.3717135672748 16.2439048055583  C 77.1842003270539 22.848582780948  80 31.0403187077995  80 40  C 80 43.8746722743639  79.473393056215 47.6057244731501  78.4864268739883 51.1269088910154  C 75.4811400498975 61.8488255349366  68.2074624433535 70.6248755016755  58.5357394102101 75.5847134353782  C 53.0211923184177 78.4126748812688  46.7270495844904 80  40 80  C 17.6 80  0 62.4  0 40  Z " fill-rule="evenodd" />
    </mask>
  </defs>
  <g transform="matrix(1 0 0 1 -335 -152 )">
    <path d="M 0 40  C 0 17.6  17.6 0  40 0  C 53.4403187077995 0  65.1525554611932 6.33630049948815  72.3717135672748 16.2439048055583  C 77.1842003270539 22.848582780948  80 31.0403187077995  80 40  C 80 43.8746722743639  79.473393056215 47.6057244731501  78.4864268739883 51.1269088910154  C 75.4811400498975 61.8488255349366  68.2074624433535 70.6248755016755  58.5357394102101 75.5847134353782  C 53.0211923184177 78.4126748812688  46.7270495844904 80  40 80  C 17.6 80  0 62.4  0 40  Z " fill-rule="nonzero" fill="#ffffff" stroke="none" transform="matrix(1 0 0 1 335 152 )" />
    <path d="M 0 40  C 0 17.6  17.6 0  40 0  C 53.4403187077995 0  65.1525554611932 6.33630049948815  72.3717135672748 16.2439048055583  C 77.1842003270539 22.848582780948  80 31.0403187077995  80 40  C 80 43.8746722743639  79.473393056215 47.6057244731501  78.4864268739883 51.1269088910154  C 75.4811400498975 61.8488255349366  68.2074624433535 70.6248755016755  58.5357394102101 75.5847134353782  C 53.0211923184177 78.4126748812688  46.7270495844904 80  40 80  C 17.6 80  0 62.4  0 40  Z " stroke-width="2" stroke="#ffffff" fill="none" transform="matrix(1 0 0 1 335 152 )" mask="url(#clip23)" />
  </g>
</svg>