<?xml version="1.0" encoding="utf-8"?>
<svg version="1.1" xmlns:xlink="http://www.w3.org/1999/xlink" width="100px" height="100px" xmlns="http://www.w3.org/2000/svg">
  <g transform="matrix(1 0 0 1 -590 -142 )">
    <path d="M 635.525162056745 142.702679328047  C 637.012866964636 142.567636725772  638.506007749686 142.5  640 142.5  C 667.338095116624 142.5  689.5 164.661904883376  689.5 192  C 689.5 219.338095116624  667.338095116624 241.5  640 241.5  C 612.661904883376 241.5  590.5 219.338095116624  590.5 192  C 590.5 168.825709898963  606.573055650747 148.77790773055  629.139931731871 143.705985028287  L 639.511098792961 192.104764544365  A 0.5 0.5 0 0 0 640.497470760719 191.949772097104 L 635.525162056745 142.702679328047  Z " fill-rule="nonzero" fill="#fec03d" stroke="none" />
    <path d="M 635.525162056745 142.702679328047  C 637.012866964636 142.567636725772  638.506007749686 142.5  640 142.5  C 667.338095116624 142.5  689.5 164.661904883376  689.5 192  C 689.5 219.338095116624  667.338095116624 241.5  640 241.5  C 612.661904883376 241.5  590.5 219.338095116624  590.5 192  C 590.5 168.825709898963  606.573055650747 148.77790773055  629.139931731871 143.705985028287  L 639.511098792961 192.104764544365  A 0.5 0.5 0 0 0 640.497470760719 191.949772097104 L 635.525162056745 142.702679328047  Z " stroke-width="1" stroke="#ffffff" fill="none" />
  </g>
</svg>