<?xml version="1.0" encoding="utf-8"?>
<svg version="1.1" xmlns:xlink="http://www.w3.org/1999/xlink" width="16px" height="14px" xmlns="http://www.w3.org/2000/svg">
  <g transform="matrix(1 0 0 1 -638 -1554 )">
    <path d="M 14.96593146875 5.710460421875  C 15.05470753125 5.982353125  14.980530265625 6.280964984375  14.77603509375 6.48040734375  L 12.192686609375 8.69405275  C 12.03090053125 8.8524969375  11.95560396875 9.0808650625  11.9949551875 9.30472403125  L 12.6050828125 12.860004203125  C 12.652333046875 13.141794671875  12.6050828125 13.343491609375  12.373660609375 13.511721625  C 12.243262765625 13.606973609375  12.08707315625 13.655295171875  11.93201884375 13.655295171875  C 11.812925875 13.655295171875  11.692697609375 13.62664121875  11.582575 13.5687736875  L 8.320518078125 11.811097015625  C 8.120516078125 11.705755375  7.880043578125 11.705755375  7.67892228125 11.811097015625  L 4.555130265625 13.5690615  C 4.30117825 13.702209609375  3.994411515625 13.67972778125  3.76294134375 13.5120254375  C 3.532606453125 13.343491609375  3.347203265625 13.142066515625  3.395508828125 12.860004203125  L 4.1427500625 9.2308665625  C 4.182069296875 9.00700759375  4.106804703125 8.7785755  3.94497065625 8.6201473125  L 1.224588515625 6.48040734375  C 1.018926078125 6.280965  0.945916078125 5.982369109375  1.033540875 5.710444421875  C 1.122300953125 5.43853571875  1.357145 5.2404685  1.640310609375 5.199438359375  L 5.178753390625 4.57834165625  C 5.40352378125 4.5457541875  5.597897328125 4.404451203125  5.697898328125 4.201091328125  L 7.327207859375 0.763528984375  C 7.4530645625 0.50676275  7.71374834375 0.344656875  8.000271828125 0.344656875  C 8.2867953125 0.344656875  8.5475110625 0.50676275  8.674487078125 0.763528984375  L 10.23863765625 4.200819484375  C 10.3397899375 4.4044671875  10.53417946875 4.545770171875  10.758901890625 4.578357640625  L 14.36026503125 5.19916653125  C 14.643462609375 5.2401966875  14.8782746875 5.438535734375  14.96593146875 5.710460421875  Z " fill-rule="nonzero" fill="#999999" stroke="none" transform="matrix(1 0 0 1 638 1554 )" />
  </g>
</svg>