<?xml version="1.0" encoding="utf-8"?>
<svg version="1.1" xmlns:xlink="http://www.w3.org/1999/xlink" width="9px" height="8px" xmlns="http://www.w3.org/2000/svg">
  <g transform="matrix(1 0 0 1 -32 -989 )">
    <path d="M 8.5176470546875 3.2235294140625  C 8.4235294140625 2.9411764921875  8.1882352890625 2.70588234375  7.8588235234375 2.6588235234375  L 6.1176470546875 2.4705882421875  L 6.070588234375 2.423529421875  L 5.3176470625 0.8235294140625  C 5.1764706015625 0.541176468750001  4.89411765625 0.352941187500001  4.6117647109375 0.352941187500001  C 4.329411765625 0.352941187500001  4.0470588203125 0.5411764921875  3.905882359375 0.8235294140625  L 3.1529411875 2.376470578125  L 3.10588234375 2.423529421875  L 1.364705875 2.6588235234375  C 1.035294109375 2.70588234375  0.799999984375001 2.8941176484375  0.70588234375 3.17647059375  C 0.611764703125001 3.4588235390625  0.70588234375 3.7882353046875  0.941176468750001 3.9764705859375  L 2.2117647109375 5.1529411875  C 2.2117647109375 5.1529411875  2.2117647109375 5.2000000078125  2.25882353125 5.2000000078125  L 1.8823529453125 6.988235296875  C 1.835294125 7.223529421875  1.8823529453125 7.5058823671875  2.02352940625 7.647058828125  C 2.25882353125 7.9294117734375  2.6352941171875 7.97647059375  3.011764703125 7.7882352890625  L 4.5176470703125 6.9411764765625  L 4.564705890625 6.9411764765625  L 6.1176470546875 7.7882352890625  C 6.258823515625 7.8823529296875  6.4 7.8823529296875  6.5411764609375 7.8823529296875  C 6.7764705859375 7.8823529296875  6.9647058671875 7.7882352890625  7.1058823515625 7.6000000078125  C 7.2470588125 7.411764703125  7.29411765625 7.1764706015625  7.2470588125 6.9411764765625  L 7.0117647109375 5.2941176484375  L 7.0117647109375 5.247058828125  L 8.2823529296875 4.02352940625  C 8.5176470546875 3.78823528125  8.6117646953125 3.5058823359375  8.5176470546875 3.2235294140625  Z M 6.8705882265625 3.835294125  L 6.164705875 4.352941171875  C 5.8823529296875 4.6352941171875  5.74117646875 5.10588234375  5.7882352890625 5.4823529296875  L 5.9294117734375 6.2823529453125  L 5.176470578125 5.905882359375  C 4.941176453125 5.7647058984375  4.7058823515625 5.7647058984375  4.564705890625 5.764705875  C 4.4235294296875 5.764705875  4.1882353046875 5.8117646953125  3.9529411796875 5.905882359375  L 3.2941176484375 6.329411765625  L 3.435294109375 5.5294117734375  C 3.52941175 5.1529411875  3.34117646875 4.6823529609375  3.0588235234375 4.3999999921875  L 2.4470588125 3.835294125  L 3.2941176484375 3.7411764609375  C 3.670588234375 3.694117640625  4.094117640625 3.4117646953125  4.2823529453125 3.035294109375  L 4.65882353125 2.2823529375  L 5.0352941171875 3.035294109375  C 5.223529421875 3.4117646953125  5.6000000078125 3.694117640625  6.0235294140625 3.7411764609375  L 6.8705882265625 3.835294125  Z " fill-rule="nonzero" fill="#257694" stroke="none" transform="matrix(1 0 0 1 32 989 )" />
  </g>
</svg>