<?xml version="1.0" encoding="utf-8"?>
<svg version="1.1" xmlns:xlink="http://www.w3.org/1999/xlink" width="23px" height="23px" xmlns="http://www.w3.org/2000/svg">
  <g transform="matrix(1 0 0 1 -25 -984 )">
    <path d="M 21.9647058828125 20.270588234375  C 22.1529411875 20.035294109375  22.2000000078125 19.8000000078125  22.1529411875 19.5647058828125  L 19.7529411875 12.7882352890625  C 20.2705882578125 11.6117647109375  20.5529411796875 10.3882352890625  20.5529411796875 9.1176470703125  C 20.5529411796875 4.176470609375  16.552941171875 0.1764706015625  11.6117647109375 0.176470578125  C 6.67058825 0.1764705546875  2.6705882421875 4.1764705859375  2.6705882421875 9.1176470703125  C 2.6705882421875 10.4352941328125  2.9529411875 11.705882375  3.5176470546875 12.9294117734375  L 0.97647059375 19.376470578125  C 0.882352953125 19.611764703125  0.9294117734375 19.8470588046875  1.070588234375 20.035294109375  C 1.2117646953125 20.1764705703125  1.4470588203125 20.270588234375  1.6823529453125 20.17647059375  L 5.3529411875 19.3294117578125  L 7.423529421875 22.4823529296875  C 7.5176470625 22.670588234375  7.7529411875 22.764705875  7.94117646875 22.764705875  L 7.9882352890625 22.764705875  C 8.2235294140625 22.7176470546875  8.4117646953125 22.5764705703125  8.505882359375 22.3882352890625  L 10.247058828125 17.964705875  C 10.670588234375 18.0117646953125  11.094117640625 18.058823515625  11.564705890625 18.0588235390625  C 11.988235296875 18.0588235390625  12.458823546875 18.01176471875  12.8823529296875 17.964705875  L 14.388235296875 22.2941176484375  C 14.4823529375 22.5294117734375  14.6705882421875 22.670588234375  14.90588234375 22.7176470546875  L 15.0000000078125 22.7176470546875  C 15.1882353125 22.7176470546875  15.37647059375 22.6235294140625  15.5176470546875 22.4823529296875  L 17.7294117734375 19.423529421875  L 21.352941171875 20.4588235390625  C 21.588235296875 20.505882359375  21.8235293984375 20.4588235390625  21.9647058828125 20.270588234375  Z M 8.97647058593749 17.5882352890625  L 7.847058828125 20.7882353046875  L 6.1529411796875 18.294117640625  C 6.0588235390625 18.1058823359375  5.8235294140625 18.0117646953125  5.635294109375 18.0117646953125  L 5.4941176484375 18.0117646953125  L 2.5294117578125 18.7176470703125  L 4.2705882265625 14.29411765625  C 4.317647046875 14.3411764765625  4.3647058671875 14.388235296875  4.364705890625 14.4352941171875  C 4.364705890625 14.4823529375  4.4117647109375 14.4823529375  4.4117647109375 14.5294117578125  C 4.45882353125 14.576470578125  4.45882353125 14.6235293984375  4.5058823515625 14.623529421875  C 4.5058823515625 14.6705882421875  4.552941171875 14.6705882421875  4.552941171875 14.7176470625  C 4.5999999921875 14.7647058828125  4.5999999921875 14.811764703125  4.6470588125 14.811764703125  L 4.69411765625 14.8588235234375  L 4.8352941171875 15.0000000078125  L 4.8823529375 15.047058828125  C 4.9294117578125 15.0941176484375  4.9294117578125 15.14117646875  4.976470578125 15.14117646875  L 5.023529421875 15.1882352890625  L 5.1176470625 15.2823529296875  L 5.1647058828125 15.3294117734375  L 5.30588234375 15.470588234375  L 5.3529411875 15.5176470546875  C 5.4000000078125 15.564705875  5.447058828125 15.6117646953125  5.4941176484375 15.6117646953125  L 5.54117646875 15.6588235390625  L 5.6823529296875 15.8  L 5.7294117734375 15.8470588203125  C 5.77647059375 15.894117640625  5.8235294140625 15.9411764609375  5.9176470546875 15.9882353046875  L 5.964705875 16.035294125  C 6.0117646953125 16.0823529453125  6.058823515625 16.129411765625  6.105882359375 16.129411765625  C 6.105882359375 16.129411765625  6.1529411796875 16.129411765625  6.1529411796875 16.1764705859375  C 6.2 16.22352940625  6.2470588203125 16.2705882265625  6.3411764609375 16.3176470703125  C 6.38823528125 16.364705890625  6.482352921875 16.4117647109375  6.529411765625 16.45882353125  C 6.57647058593749 16.5058823515625  6.62352940625 16.552941171875  6.71764707031249 16.552941171875  L 6.76470589062499 16.552941171875  C 6.90588235156249 16.6470588125  7.04705883593749 16.7411764765625  7.18823529687499 16.788235296875  C 7.23529411718749 16.8352941171875  7.32941175781249 16.8823529375  7.37647057812499 16.8823529375  C 7.61176470312499 16.976470578125  7.79999998437499 17.1176470625  8.03529410937499 17.211764703125  L 8.74117646093749 17.4941176484375  C 8.83529410156249 17.54117646875  8.92941176562499 17.54117646875  8.97647058593749 17.5882352890625  Z M 18.4823529453125 12.647058828125  C 17.3529411875 14.7176470625  15.4235294140625 16.1764705859375  13.2117646953125 16.6470588125  C 12.176470578125 16.8823529375  11.094117640625 16.8823529375  10.0588235234375 16.6470588125  C 7.7529411640625 16.1764705859375  5.8235294140625 14.7176470390625  4.788235296875 12.6000000078125  C 4.22352940625 11.5176470703125  3.941176484375 10.34117646875  3.9411764609375 9.1176470703125  C 3.9411764609375 4.8823529609375  7.376470578125 1.4  11.65882353125 1.4  C 15.894117640625 1.4  19.3764706015625 4.8352941171875  19.376470578125 9.1176470703125  C 19.376470578125 10.2941176484375  19.0941176328125 11.4235294296875  18.5764705859375 12.4588235234375  C 18.529411765625 12.50588234375  18.529411765625 12.599999984375  18.4823529453125 12.647058828125  Z M 20.5529411796875 18.952941171875  L 17.635294109375 18.0588235390625  C 17.399999984375 18.01176471875  17.1176470390625 18.105882359375  16.976470578125 18.294117640625  L 15.1882352890625 20.7411764609375  L 14.1058823515625 17.6823529296875  L 14.1999999921875 17.6823529296875  C 14.2470588125 17.6823529296875  14.341176453125 17.635294109375  14.388235296875 17.635294109375  L 14.4352941171875 17.635294109375  L 14.8588235234375 17.4941176484375  L 14.90588234375 17.4941176484375  C 14.9529411640625 17.4941176484375  14.999999984375 17.447058828125  15.0941176484375 17.4000000078125  L 15.14117646875 17.4000000078125  C 15.235294109375 17.3529411875  15.2823529296875 17.3529411875  15.37647059375 17.30588234375  C 15.4235294140625 17.2588235234375  15.5176470546875 17.2588235234375  15.564705875 17.211764703125  C 15.564705875 17.211764703125  15.6117646953125 17.211764703125  15.6117646953125 17.1647058828125  C 15.658823515625 17.1176470625  15.7058823359375 17.1176470625  15.7529411796875 17.0705882421875  C 15.7529411796875 17.0705882421875  15.8 17.0705882421875  15.8 17.023529421875  C 15.8470588203125 16.9764706015625  15.9411764609375 16.92941178125  15.9882353046875 16.9294117578125  C 16.035294125 16.8823529375  16.129411765625 16.8352941171875  16.1764705859375 16.8352941171875  C 16.1764705859375 16.8352941171875  16.22352940625 16.8352941171875  16.22352940625 16.788235296875  C 16.2705882265625 16.7411764765625  16.317647046875 16.7411764765625  16.364705890625 16.69411765625  C 16.364705890625 16.69411765625  16.4117647109375 16.69411765625  16.4117647109375 16.6470588125  C 16.45882353125 16.5999999921875  16.552941171875 16.552941171875  16.5999999921875 16.5058823515625  C 16.6470588125 16.45882353125  16.6941176328125 16.4117647109375  16.788235296875 16.364705890625  L 16.8352941171875 16.3176470703125  C 16.8823529375 16.27058825  16.9294117578125 16.2235294296875  16.976470578125 16.22352940625  C 16.976470578125 16.22352940625  17.0235293984375 16.22352940625  17.023529421875 16.1764705859375  C 17.0705882421875 16.129411765625  17.1647058828125 16.0823529453125  17.211764703125 16.035294125  L 17.2588235234375 16.035294125  L 17.4000000078125 15.894117640625  L 17.447058828125 15.8470588203125  L 17.5882352890625 15.705882359375  L 17.635294109375 15.6588235390625  C 17.6823529296875 15.61176471875  17.72941175 15.5647058984375  17.8235294140625 15.5176470546875  L 17.870588234375 15.470588234375  L 18.0117646953125 15.3294117734375  L 18.0588235390625 15.2823529296875  L 18.2 15.14117646875  C 18.2470588203125 15.0941176484375  18.294117640625 15.0000000078125  18.3411764609375 14.9529411875  L 18.4823529453125 14.811764703125  C 18.4823529453125 14.811764703125  18.4823529453125 14.7647058828125  18.529411765625 14.7647058828125  C 18.5764705859375 14.7176470625  18.62352940625 14.623529421875  18.6705882265625 14.576470578125  C 18.717647046875 14.5294117578125  18.7647058671875 14.4352941171875  18.8117647109375 14.388235296875  C 18.85882353125 14.3411764765625  18.85882353125 14.29411765625  18.9058823515625 14.29411765625  L 20.5529411796875 18.952941171875  Z " fill-rule="nonzero" fill="#257694" stroke="none" transform="matrix(1 0 0 1 25 984 )" />
  </g>
</svg>