<?xml version="1.0" standalone="no"?><!DOCTYPE svg PUBLIC "-//W3C//DTD SVG 1.1//EN" "http://www.w3.org/Graphics/SVG/1.1/DTD/svg11.dtd"><svg t="1535450415904" class="icon" style="" viewBox="0 0 1026 1024" version="1.1" xmlns="http://www.w3.org/2000/svg" p-id="4275" xmlns:xlink="http://www.w3.org/1999/xlink" width="48.09375" height="48"><defs><style type="text/css"></style></defs><path d="M745.244 625.778c-11.377-11.378-17.066-22.756-11.377-39.822 34.133-102.4 5.689-204.8-85.334-267.378-56.889-39.822-119.466-51.2-187.733-28.445 28.444 28.445 56.889 56.89 79.644 85.334 51.2 51.2 56.89 119.466 5.69 170.666s-119.467 45.511-170.667-5.689c-28.445-28.444-51.2-56.888-79.645-85.333h-5.689c-17.066 85.333 5.69 159.289 68.267 216.178 68.267 62.578 147.911 79.644 233.244 51.2 22.756-5.689 34.134-5.689 51.2 11.378 68.267 68.266 182.045 176.355 250.312 244.622 34.133 34.133 73.955 34.133 102.4 5.689 39.822-34.134 39.822-79.645 5.688-119.467-68.266-56.889-187.733-170.667-256-238.933m193.423 335.644c-22.756 0-34.134-17.066-34.134-34.133 0-22.756 17.067-34.133 34.134-34.133 22.755 0 34.133 17.066 34.133 34.133s-17.067 34.133-34.133 34.133m0 0" p-id="4276" fill="#d2d2d2"></path><path d="M665.6 847.644c-45.511 22.756-96.711 34.134-153.6 34.134-204.8 0-369.778-164.978-369.778-369.778S307.2 142.222 512 142.222 881.778 307.2 881.778 512c0 45.511-11.378 91.022-22.756 130.844l51.2 51.2c5.69-17.066 17.067-34.133 22.756-56.888l85.333-28.445 5.689-22.755V512c0-22.756 0-51.2-5.689-79.644l-5.689-22.756-85.333-28.444c-5.689-22.756-17.067-51.2-28.445-73.956l39.823-79.644-11.378-17.067c-34.133-45.511-68.267-85.333-113.778-113.778l-17.067-11.378-79.644 39.823c-22.756-11.378-45.511-22.756-73.956-28.445L614.4 11.378l-22.756-5.69C563.2 0 540.444 0 512 0c-28.444 0-51.2 0-79.644 5.689L409.6 11.378l-28.444 79.644c-22.756 11.378-51.2 22.756-73.956 34.134l-79.644-39.823-17.067 11.378c-39.822 34.133-79.645 73.956-113.778 113.778l-11.378 17.067 39.823 79.644c-11.378 22.756-22.756 51.2-34.134 73.956L11.378 409.6l-5.69 22.756C0 460.8 0 489.244 0 512c0 22.756 0 51.2 5.689 79.644l5.689 22.756 85.333 28.444c5.689 22.756 17.067 51.2 28.445 73.956l-39.823 79.644 11.378 17.067c17.067 22.756 34.133 39.822 51.2 62.578 22.756 17.067 39.822 34.133 62.578 51.2l17.067 11.378 79.644-39.823c22.756 11.378 45.511 22.756 73.956 28.445l28.444 85.333 22.756 5.69C460.8 1024 489.244 1024 512 1024s51.2 0 79.644-5.689l22.756-5.689 28.444-85.333c22.756-5.689 51.2-17.067 73.956-28.445l5.689 5.69-56.889-56.89z" p-id="4277" fill="#d2d2d2"></path></svg>