<?xml version="1.0" encoding="utf-8"?>
<svg version="1.1" xmlns:xlink="http://www.w3.org/1999/xlink" width="80px" height="35px" xmlns="http://www.w3.org/2000/svg">
  <g transform="matrix(1 0 0 1 -390 -170 )">
    <path d="M 391 175  A 4 4 0 0 1 395 171 L 465 171  A 4 4 0 0 1 469 175 L 469 200  A 4 4 0 0 1 465 204 L 395 204  A 4 4 0 0 1 391 200 L 391 175  Z " fill-rule="nonzero" fill="#f0f7ff" stroke="none" />
    <path d="M 390.5 175  A 4.5 4.5 0 0 1 395 170.5 L 465 170.5  A 4.5 4.5 0 0 1 469.5 175 L 469.5 200  A 4.5 4.5 0 0 1 465 204.5 L 395 204.5  A 4.5 4.5 0 0 1 390.5 200 L 390.5 175  Z " stroke-width="1" stroke="#7abbff" fill="none" stroke-opacity="0.996078431372549" />
  </g>
</svg>