<?xml version="1.0" encoding="utf-8"?>
<svg version="1.1" xmlns:xlink="http://www.w3.org/1999/xlink" width="110px" height="110px" xmlns="http://www.w3.org/2000/svg">
  <g transform="matrix(1 0 0 1 -72 -1163 )">
    <path d="M 127 1163  C 157.8 1163  182 1187.2  182 1218  C 182 1248.8  157.8 1273  127 1273  C 96.2 1273  72 1248.8  72 1218  C 72 1187.2  96.2 1163  127 1163  Z " fill-rule="nonzero" fill="#ffffff" stroke="none" />
    <path d="M 127 1163.5  C 157.52 1163.5  181.5 1187.48  181.5 1218  C 181.5 1248.52  157.52 1272.5  127 1272.5  C 96.48 1272.5  72.5 1248.52  72.5 1218  C 72.5 1187.48  96.48 1163.5  127 1163.5  Z " stroke-width="1" stroke="#ffffff" fill="none" />
  </g>
</svg>