<?xml version="1.0" encoding="utf-8"?>
<svg version="1.1" xmlns:xlink="http://www.w3.org/1999/xlink" width="10px" height="10px" xmlns="http://www.w3.org/2000/svg">
  <g transform="matrix(1 0 0 1 -97 -458 )">
    <path d="M 102 459  C 104.24 459  106 460.76  106 463  C 106 465.24  104.24 467  102 467  C 99.76 467  98 465.24  98 463  C 98 460.76  99.76 459  102 459  Z " fill-rule="nonzero" fill="#ffffff" stroke="none" />
    <path d="M 102 459  C 104.24 459  106 460.76  106 463  C 106 465.24  104.24 467  102 467  C 99.76 467  98 465.24  98 463  C 98 460.76  99.76 459  102 459  Z " stroke-width="2" stroke="#d9d9d9" fill="none" />
  </g>
</svg>