<?xml version="1.0" encoding="utf-8"?>
<svg version="1.1" xmlns:xlink="http://www.w3.org/1999/xlink" width="10px" height="10px" xmlns="http://www.w3.org/2000/svg">
  <g transform="matrix(1 0 0 1 -97 -333 )">
    <path d="M 102 334  C 104.24 334  106 335.76  106 338  C 106 340.24  104.24 342  102 342  C 99.76 342  98 340.24  98 338  C 98 335.76  99.76 334  102 334  Z " fill-rule="nonzero" fill="#ffffff" stroke="none" />
    <path d="M 102 334  C 104.24 334  106 335.76  106 338  C 106 340.24  104.24 342  102 342  C 99.76 342  98 340.24  98 338  C 98 335.76  99.76 334  102 334  Z " stroke-width="2" stroke="#1890ff" fill="none" />
  </g>
</svg>