<?xml version="1.0" encoding="utf-8"?>
<svg version="1.1" xmlns:xlink="http://www.w3.org/1999/xlink" width="143px" height="143px" xmlns="http://www.w3.org/2000/svg">
  <g transform="matrix(1 0 0 1 -232 -841 )">
    <path d="M 303.5 841  C 343.54 841  375 872.46  375 912.5  C 375 952.54  343.54 984  303.5 984  C 263.46 984  232 952.54  232 912.5  C 232 872.46  263.46 841  303.5 841  Z " fill-rule="nonzero" fill="#ffffff" stroke="none" />
    <path d="M 303.5 841.5  C 343.26 841.5  374.5 872.74  374.5 912.5  C 374.5 952.26  343.26 983.5  303.5 983.5  C 263.74 983.5  232.5 952.26  232.5 912.5  C 232.5 872.74  263.74 841.5  303.5 841.5  Z " stroke-width="1" stroke="#ffffff" fill="none" />
  </g>
</svg>