<?xml version="1.0" encoding="utf-8"?>
<svg version="1.1" xmlns:xlink="http://www.w3.org/1999/xlink" width="100px" height="100px" xmlns="http://www.w3.org/2000/svg">
  <g transform="matrix(1 0 0 1 -1022 -144 )">
    <path d="M 1072 144  C 1100 144  1122 166  1122 194  C 1122 222  1100 244  1072 244  C 1044 244  1022 222  1022 194  C 1022 166  1044 144  1072 144  Z " fill-rule="nonzero" fill="#ffffff" stroke="none" />
    <path d="M 1072 144.5  C 1099.72 144.5  1121.5 166.28  1121.5 194  C 1121.5 221.72  1099.72 243.5  1072 243.5  C 1044.28 243.5  1022.5 221.72  1022.5 194  C 1022.5 166.28  1044.28 144.5  1072 144.5  Z " stroke-width="1" stroke="#ffffff" fill="none" />
  </g>
</svg>