<?xml version="1.0" encoding="utf-8"?>
<svg version="1.1" xmlns:xlink="http://www.w3.org/1999/xlink" width="50px" height="50px" xmlns="http://www.w3.org/2000/svg">
  <g transform="matrix(1 0 0 1 -301 -95 )">
    <path d="M 42.6623717625605 7.33746057468883  C 37.7695037848883 2.44587599525892  31.8822139623015 0  25.000000061545 0  C 18.1178977681785 0  12.2303289271165 2.44587599525892  7.33746094944445 7.33746057468883  C 2.44459297177225 12.2292125652067  -0.0012829801138293 18.116614099585  0 25.0000000000001  C 0.00122818616120775 31.883385900415  2.44699253065728 37.7706200237054  7.33746094944445 42.6623720142232  C 12.2279293682315 47.5541240047411  18.1154982092934 50  25.000000061545 50  C 31.8845019137966 50  37.7720149511634 47.5541240047411  42.6623717625605 42.6623720142232  C 47.5530075924327 37.7706200237054  49.9988835443188 31.883385900415  49.9999996182188 25.0000000000001  C 50.0011156921188 18.116614099585  47.5552397402327 12.2292125652067  42.6623717625605 7.33746057468883  Z M 40.1500894136235 40.1500896207357  C 35.9653703255117 44.3356458384952  30.9154149464122 46.4285634566149  25.000000061545 46.4285634566149  C 19.0845293729827 46.4285634566149  14.0344623864932 44.3356458384952  9.85002231685651 40.1500896207357  C 5.66547063982972 35.9642543844965  3.57266466621385 30.9142989158459  3.5714369849238 25.0000000000001  C 3.57020930363387 19.0857010841543  5.6630710809447 14.0357456155037  9.85002231685651 9.85002198665626  C 14.0369735527682 5.66429835780885  19.0868731281728 3.57143654338509  25.000000061545 3.57143654338509  C 30.9129595838322 3.57143654338509  35.9631939814067 5.66435416150479  40.1500894136235 9.85002198665626  C 44.3369848458403 14.0356898118076  46.4296792120662 19.0856452804582  46.4285631381661 25.0000000000001  C 46.4274470642661 30.9143547195418  44.3345294832602 35.9643101881924  40.1500894136235 40.1500896207357  Z M 32.1965003725462 24.9981026743363  L 32.1980628760062 25.0000000000001  C 32.6813228747133 25.0000000000001  33.0998505872195 24.8232696947984  33.4536460135247 24.4695858696113  C 33.807162421355 24.1160694555122  33.9837811160325 23.6977091466723  33.9837811160325 23.2142817283074  C 33.9837811160325 22.7308543099426  33.807162421355 22.3124940011027  33.4536460135247 21.9589775870036  C 33.0998505872195 21.6053495655124  32.6813228747133 21.4285634566149  32.1980628760062 21.4285634566149  L 26.7856624978763 21.4285634566149  L 26.7856624978763 20.591117390887  L 33.4268602399243 13.6714590880783  C 33.7611243729792 13.2988578099505  33.9196068667816 12.8708434617042  33.9017496843813 12.3875834544274  C 33.8838925019811 11.9042118397586  33.7069947888285 11.4947243185811  33.3713355633984 11.1589534798069  C 33.1857882775208 10.9732387795508  32.9809887168678 10.8429371494133  32.7572158999144 10.7679369820021  C 32.5334430829611 10.6928810108952  32.3102283029578 10.6554925345816  32.0875715599045 10.6554925345816  C 31.8649148168513 10.6554925345816  31.641700036848 10.7018096022536  31.4179272198947 10.7947227560776  C 31.1941544029413 10.8876359099016  31.0077700616386 11.0268661313977  30.8587741959864 11.2125250279576  L 25.1660160541725 17.1838553211056  L 19.1946300632193 11.1570561541431  C 18.8220287916989 10.8225129966808  18.3941260584326 10.6553809271896  17.9107544523354 10.6553809271896  C 17.4273828462383 10.6553809271896  16.9994801129719 10.8225129966808  16.6268788414514 11.1570561541431  C 16.4780503868842 11.3428824617912  16.3572353872075 11.547514614988  16.2643222350311 11.7714548469974  C 16.1715206902448 11.9952276679189  16.1156053878539 12.2184424518805  16.0964647204686 12.4410991988821  C 16.0774914641684 12.6636443384919  16.1148799398189 12.8868033187574  16.2090765769803 13.1107435507668  C 16.3031058030567 13.3345163716884  16.4423360220838 13.5393159359731  16.6268788414514 13.7249748325331  L 23.2125519069737 20.3106480148394  L 23.2125519069737 21.4267219346471  L 17.9108102560304 21.4267219346471  C 17.4274386499332 21.4267219346471  17.0090225448171 21.6035080435447  16.6555061369868 21.9571360650359  C 16.3018781217667 22.310652479135  16.125092016004 22.729180199063  16.125092016004 23.2124402063398  C 16.125092016004 23.6958118210085  16.3018223180717 24.1142279335445  16.6555061369868 24.4678559550356  C 17.0090225448171 24.8213723691348  17.4273828462383 24.9981026743363  17.9108102560304 24.9981026743363  L 23.2125519069737 24.9981026743363  L 23.2125519069737 28.5696508251135  L 17.9108102560304 28.5696508251135  C 17.4274386499332 28.5696508251135  17.0090225448171 28.746269522923  16.6555061369868 29.0997859370222  C 16.3018781217667 29.4535813696013  16.125092016004 29.8721090895292  16.125092016004 30.355369096806  C 16.125092016004 30.8386291040828  16.3018223180717 31.2571568240108  16.6555061369868 31.6106732381099  C 17.0090225448171 31.964189652209  17.4273828462383 32.1410873684986  17.9108102560304 32.1410873684986  L 23.2125519069737 32.1410873684986  L 23.2125519069737 37.4427175060659  C 23.2125519069737 37.9262565318227  23.3893380127363 38.3445052332706  23.7429660279564 38.6980216473697  C 24.0964824357867 39.0518170799488  24.5150101482928 39.2284357777585  24.998270147 39.2284357777585  C 25.4816975567921 39.2284357777585  25.9001694656033 39.0518170799488  26.2536858734334 38.6980216473697  C 26.6072022812637 38.3445052332706  26.7840999944163 37.9262565318227  26.7840999944163 37.4427175060659  L 26.7840999944163 32.1410873684986  L 32.1965003725462 32.1410873684986  C 32.6797603712532 32.1410873684986  33.0982880837595 31.964189652209  33.4518044915896 31.6106732381099  C 33.8053208994199 31.2571568240108  33.9822186125725 30.8386291040828  33.9822186125725 30.355369096806  C 33.9822186125725 29.8721090895292  33.8053208994199 29.4535813696013  33.4518044915896 29.0997859370222  C 33.0982880837595 28.746269522923  32.6797603712532 28.5696508251135  32.1965003725462 28.5696508251135  L 26.7840999944163 28.5696508251135  L 26.7840999944163 24.9981026743363  L 32.1965003725462 24.9981026743363  Z " fill-rule="nonzero" fill="#1abc9c" stroke="none" transform="matrix(1 0 0 1 301 95 )" />
  </g>
</svg>