<?xml version="1.0" encoding="utf-8"?>
<svg version="1.1" xmlns:xlink="http://www.w3.org/1999/xlink" width="39px" height="39px" xmlns="http://www.w3.org/2000/svg">
  <g transform="matrix(1 0 0 1 -175 -656 )">
    <path d="M 25.517578125 10.232421875  C 25.8391927083333 10.5540364583333  26 10.9348958333333  26 11.375  L 26 27.625  C 26 28.0651041666667  25.8391927083333 28.4459635416667  25.517578125 28.767578125  C 25.1959635416667 29.0891927083333  24.8151041666667 29.25  24.375 29.25  C 24.0364583333333 29.25  23.7233072916667 29.1484375  23.435546875 28.9453125  L 12.060546875 20.8203125  C 11.603515625 20.4986979166667  11.375 20.05859375  11.375 19.5  C 11.375 18.94140625  11.603515625 18.5013020833333  12.060546875 18.1796875  L 23.435546875 10.0546875  C 23.7233072916667 9.8515625  24.0364583333333 9.75  24.375 9.75  C 24.8151041666667 9.75  25.1959635416667 9.91080729166666  25.517578125 10.232421875  Z M 32.2587890625 32.2587890625  C 32.4195963541667 32.0979817708333  32.5 31.9075520833333  32 31.6875  L 32 7.3125  C 32.5 7.09244791666666  32.4195963541667 6.90201822916666  32.2587890625 6.7412109375  C 32.0979817708333 6.58040364583333  31.9075520833333 6.5  31.6875 7  L 7.3125 7  C 7.09244791666667 6.5  6.90201822916667 6.58040364583333  6.7412109375 6.7412109375  C 6.58040364583333 6.90201822916666  6.5 7.09244791666666  7 7.3125  L 7 31.6875  C 6.5 31.9075520833333  6.58040364583333 32.0979817708333  6.7412109375 32.2587890625  C 6.90201822916667 32.4195963541667  7.09244791666667 32.5  7.3125 32  L 31.6875 32  C 31.9075520833333 32.5  32.0979817708333 32.4195963541667  32.2587890625 32.2587890625  Z M 36.8544921875 2.1455078125  C 38.2848307291667 3.57584635416666  39 5.29817708333333  39 7.3125  L 39 31.6875  C 39 33.7018229166667  38.2848307291667 35.4241536458333  36.8544921875 36.8544921875  C 35.4241536458333 38.2848307291667  33.7018229166667 39  31.6875 39  L 7.3125 39  C 5.29817708333333 39  3.57584635416667 38.2848307291667  2.1455078125 36.8544921875  C 0.715169270833333 35.4241536458333  0 33.7018229166667  0 31.6875  L 0 7.3125  C 0 5.29817708333333  0.715169270833333 3.57584635416666  2.1455078125 2.1455078125  C 3.57584635416667 0.715169270833331  5.29817708333333 0  7.3125 0  L 31.6875 0  C 33.7018229166667 0  35.4241536458333 0.715169270833331  36.8544921875 2.1455078125  Z " fill-rule="nonzero" fill="#d7d7d7" stroke="none" transform="matrix(1 0 0 1 175 656 )" />
  </g>
</svg>