<?xml version="1.0" encoding="utf-8"?>
<svg version="1.1" xmlns:xlink="http://www.w3.org/1999/xlink" width="34px" height="37px" xmlns="http://www.w3.org/2000/svg">
  <g transform="matrix(1 0 0 1 -409 -654 )">
    <path d="M 23.4856770833333 17.2473958333333  C 23.8841145833333 17.5525173611111  24.0833333333333 17.9700520833333  24.0833333333333 18.5  C 24.0833333333333 19.0299479166667  23.8841145833333 19.4474826388889  23.4856770833333 19.7526041666667  L 13.5690104166667 27.4609375  C 13.1115451388889 27.8302951388889  12.6245659722222 27.8704427083333  12.1080729166667 27.5813802083333  C 11.5915798611111 27.3083767361111  11.3333333333333 26.8506944444444  12 26.2083333333333  L 12 10.7916666666667  C 11.3333333333333 10.1493055555556  11.5915798611111 9.69162326388889  12.1080729166667 9.41861979166667  C 12.6245659722222 9.12955729166667  13.1115451388889 9.16970486111111  13.5690104166667 9.5390625  L 23.4856770833333 17.2473958333333  Z M 28.1341145833333 30.6165364583333  C 28.2669270833333 30.4720052083333  28.3333333333333 30.2873263888889  28 30.0625  L 28 6.9375  C 28.3333333333333 6.71267361111111  28.2669270833333 6.52799479166667  28.1341145833333 6.38346354166667  C 28.0013020833333 6.23893229166667  27.8315972222222 6.16666666666667  27.625 6.16666666666667  L 6.375 6.16666666666667  C 6.16840277777778 6.16666666666667  5.99869791666667 6.23893229166667  5.86588541666667 6.38346354166667  C 5.73307291666667 6.52799479166667  5.66666666666667 6.71267361111111  6 6.9375  L 6 30.0625  C 5.66666666666667 30.2873263888889  5.73307291666667 30.4720052083333  5.86588541666667 30.6165364583333  C 5.99869791666667 30.7610677083333  6.16840277777778 30.8333333333333  6.375 30.8333333333333  L 27.625 30.8333333333333  C 27.8315972222222 30.8333333333333  28.0013020833333 30.7610677083333  28.1341145833333 30.6165364583333  Z M 32.1295572916667 2.03548177083333  C 33.3765190972222 3.39246961805555  34 5.02647569444444  34 6.9375  L 34 30.0625  C 34 31.9735243055556  33.3765190972222 33.6075303819445  32.1295572916667 34.9645182291667  C 30.8825954861111 36.3215060763889  29.3810763888889 37  27.625 37  L 6.375 37  C 4.61892361111111 37  3.11740451388889 36.3215060763889  1.87044270833333 34.9645182291667  C 0.623480902777778 33.6075303819445  0 31.9735243055556  0 30.0625  L 0 6.9375  C 0 5.02647569444444  0.623480902777778 3.39246961805555  1.87044270833333 2.03548177083333  C 3.11740451388889 0.678493923611109  4.61892361111111 0  6.375 0  L 27.625 0  C 29.3810763888889 0  30.8825954861111 0.678493923611109  32.1295572916667 2.03548177083333  Z " fill-rule="nonzero" fill="#d7d7d7" stroke="none" transform="matrix(1 0 0 1 409 654 )" />
  </g>
</svg>