<?xml version="1.0" standalone="no"?><!DOCTYPE svg PUBLIC "-//W3C//DTD SVG 1.1//EN" "http://www.w3.org/Graphics/SVG/1.1/DTD/svg11.dtd"><svg t="1532930115636" class="icon" style="" viewBox="0 0 1024 1024" version="1.1" xmlns="http://www.w3.org/2000/svg" p-id="2242" xmlns:xlink="http://www.w3.org/1999/xlink" width="48" height="48"><defs><style type="text/css"></style></defs><path d="M864 940.8c-102.4 51.2-224-19.2-236.8-128 0-19.2 0-44.8 6.4-64 6.4-12.8 0-12.8-6.4-19.2-108.8-115.2-217.6-224-326.4-332.8-6.4-6.4-12.8-6.4-25.6-6.4-89.6 25.6-192-32-211.2-128 0-32 0-64 12.8-102.4 6.4 0 6.4 6.4 12.8 6.4l96 96c25.6 25.6 57.6 25.6 83.2 6.4 25.6-25.6 19.2-57.6-6.4-83.2-32-32-64-70.4-102.4-102.4 51.2-19.2 102.4-25.6 147.2 0 70.4 38.4 102.4 115.2 83.2 192-6.4 12.8 0 19.2 6.4 25.6l320 320c6.4 6.4 12.8 6.4 25.6 6.4 64-12.8 121.6 0 166.4 51.2 44.8 44.8 57.6 102.4 32 166.4-6.4 12.8-6.4 19.2-19.2 6.4l-96-96c-19.2-19.2-38.4-25.6-64-12.8-19.2 6.4-32 25.6-38.4 44.8 0 19.2 6.4 38.4 19.2 51.2 51.2 32 83.2 64 121.6 102.4z" fill="#999999" p-id="2243"></path><path d="M64 870.4c0-19.2 6.4-38.4 25.6-57.6l268.8-268.8c6.4-6.4 12.8-6.4 19.2 0l102.4 102.4c6.4 6.4 6.4 12.8 0 19.2l-268.8 268.8c-44.8 44.8-108.8 32-134.4-19.2-12.8-12.8-12.8-19.2-12.8-44.8zM633.6 448l-6.4-6.4c-19.2-12.8-32-25.6-44.8-38.4-12.8-6.4-6.4-12.8 0-19.2l96-96c25.6-25.6 51.2-51.2 64-83.2 19.2-51.2 57.6-89.6 108.8-108.8 19.2-12.8 32-32 51.2-32 19.2 0 25.6 25.6 38.4 32 19.2 19.2 19.2 32 6.4 51.2-19.2 25.6-32 57.6-44.8 83.2-6.4 12.8-12.8 19.2-19.2 19.2-76.8 32-140.8 76.8-192 140.8-12.8 19.2-32 32-51.2 51.2l-6.4 6.4z" fill="#999999" p-id="2244"></path></svg>