<?xml version="1.0" encoding="utf-8"?>
<svg version="1.1" xmlns:xlink="http://www.w3.org/1999/xlink" width="10px" height="11px" xmlns="http://www.w3.org/2000/svg">
  <g transform="matrix(1 0 0 1 -97 -461 )">
    <path d="M 102 462  C 104.24 462  106 463.98  106 466.5  C 106 469.02  104.24 471  102 471  C 99.76 471  98 469.02  98 466.5  C 98 463.98  99.76 462  102 462  Z " fill-rule="nonzero" fill="#ffffff" stroke="none" />
    <path d="M 102 462  C 104.24 462  106 463.98  106 466.5  C 106 469.02  104.24 471  102 471  C 99.76 471  98 469.02  98 466.5  C 98 463.98  99.76 462  102 462  Z " stroke-width="2" stroke="#52c41a" fill="none" />
  </g>
</svg>