<svg width="500" height="300" viewBox="0 0 500 300" fill="none" xmlns="http://www.w3.org/2000/svg">
<g clip-path="url(#clip0_28_235)">
<path d="M200.32 109.08V116.04H180.448V119.64H200.32V134.04C200.32 134.904 199.984 135.144 199.024 135.192C197.968 135.24 194.416 135.288 190.528 135.096C191.104 136.152 191.776 137.784 192.064 138.84C196.672 138.84 199.792 138.744 201.568 138.168C203.44 137.592 204.064 136.488 204.064 134.088V119.64H223.744V116.04H204.064V110.952C209.536 108.12 215.728 103.8 219.904 99.768L217.168 97.704L216.352 97.944H185.248V101.496H212.368C208.96 104.28 204.304 107.208 200.32 109.08ZM247.888 96.36C249.616 98.712 251.584 101.976 252.448 104.04L255.472 102.504C254.56 100.44 252.592 97.368 250.768 95.064L247.888 96.36ZM229.504 107.496C229.504 112.056 229.264 117.912 228.976 121.56H238.816C238.288 130.392 237.808 133.896 236.944 134.76C236.464 135.24 236.032 135.288 235.264 135.288C234.352 135.288 232.048 135.288 229.648 135.048C230.272 136.008 230.704 137.496 230.8 138.552C233.104 138.648 235.408 138.696 236.656 138.6C238.096 138.456 238.96 138.12 239.776 137.16C241.072 135.624 241.696 131.352 242.272 119.976C242.32 119.448 242.32 118.392 242.32 118.392H232.336L232.576 110.808H242.224V96.936H228.784V100.2H238.768V107.496H229.504ZM249.088 115.176H255.904V119.736H249.088V115.176ZM259.6 115.176H266.56V119.736H259.6V115.176ZM249.088 107.832H255.904V112.344H249.088V107.832ZM259.6 107.832H266.56V112.344H259.6V107.832ZM242.992 126.648V129.912H255.904V138.84H259.6V129.912H272.08V126.648H259.6V122.664H270.064V104.904H262.96C264.688 102.312 266.656 98.952 268.192 95.928L264.592 94.824C263.392 97.848 261.136 102.12 259.264 104.904H245.776V122.664H255.904V126.648H242.992ZM292 121.608C295.84 122.424 300.736 124.104 303.424 125.448L304.912 123C302.224 121.752 297.376 120.168 293.536 119.4L292 121.608ZM287.2 127.704C293.824 128.52 302.128 130.44 306.736 132.072L308.32 129.384C303.664 127.848 295.36 125.976 288.88 125.256L287.2 127.704ZM278.032 96.792V138.84H281.488V136.824H314.416V138.84H318.016V96.792H278.032ZM281.488 133.608V100.056H314.416V133.608H281.488ZM293.872 101.016C291.472 104.952 287.344 108.696 283.216 111.144C283.984 111.624 285.232 112.728 285.76 113.304C287.2 112.344 288.688 111.192 290.176 109.896C291.616 111.432 293.392 112.872 295.312 114.168C291.232 116.088 286.624 117.528 282.352 118.392C282.976 119.064 283.744 120.456 284.08 121.32C288.784 120.216 293.824 118.44 298.384 115.992C302.368 118.152 306.928 119.784 311.488 120.792C311.92 119.928 312.832 118.68 313.504 118.056C309.28 117.288 305.056 115.992 301.312 114.264C304.912 111.912 307.936 109.176 309.952 105.912L307.888 104.712L307.36 104.856H294.928C295.648 103.944 296.32 103.032 296.896 102.072L293.872 101.016ZM292.144 107.976L292.48 107.64H304.912C303.184 109.512 300.88 111.192 298.288 112.68C295.84 111.288 293.728 109.704 292.144 107.976Z" fill="#999999"/>
<path d="M184.178 173H185.34L186.376 169.78H190.212L191.234 173H192.466L188.952 162.752H187.678L184.178 173ZM186.684 168.856L187.216 167.19C187.594 166.028 187.93 164.922 188.266 163.718H188.322C188.672 164.922 188.994 166.028 189.386 167.19L189.918 168.856H186.684ZM192.686 173H193.89L194.968 171.166C195.234 170.704 195.486 170.242 195.752 169.808H195.822C196.116 170.242 196.41 170.704 196.662 171.166L197.824 173H199.07L196.564 169.164L198.874 165.44H197.684L196.704 167.162C196.466 167.582 196.242 167.988 196.004 168.422H195.948C195.682 167.988 195.416 167.582 195.178 167.162L194.128 165.44H192.882L195.192 169.052L192.686 173ZM200.6 173H201.748V167.456C202.532 166.658 203.106 166.238 203.904 166.238C204.954 166.238 205.402 166.882 205.402 168.338V173H206.55V168.198C206.55 166.266 205.822 165.244 204.24 165.244C203.204 165.244 202.42 165.818 201.706 166.532L201.748 164.95V161.856H200.6V173ZM211.22 173.182C212.27 173.182 213.026 172.622 213.74 171.796H213.782L213.88 173H214.818V165.44H213.684V170.858C212.928 171.782 212.354 172.188 211.556 172.188C210.506 172.188 210.058 171.558 210.058 170.102V165.44H208.91V170.242C208.91 172.174 209.638 173.182 211.22 173.182ZM220.692 173.182C222.428 173.182 223.982 171.684 223.982 169.094C223.982 166.77 222.946 165.244 220.972 165.244C220.104 165.244 219.25 165.734 218.536 166.336L218.592 164.95V161.856H217.444V173H218.354L218.466 172.216H218.522C219.18 172.818 219.992 173.182 220.692 173.182ZM220.524 172.216C220.006 172.216 219.278 172.006 218.592 171.39V167.288C219.348 166.588 220.048 166.21 220.706 166.21C222.218 166.21 222.806 167.386 222.806 169.122C222.806 171.026 221.84 172.216 220.524 172.216ZM233.235 173.182C234.607 173.182 235.713 172.692 236.371 172.006V167.75H233.053V168.716H235.293V171.53C234.873 171.922 234.117 172.16 233.347 172.16C231.121 172.16 229.861 170.494 229.861 167.848C229.861 165.216 231.219 163.592 233.347 163.592C234.397 163.592 235.083 164.026 235.601 164.572L236.245 163.816C235.657 163.214 234.733 162.57 233.319 162.57C230.617 162.57 228.671 164.586 228.671 167.876C228.671 171.18 230.561 173.182 233.235 173.182ZM238.045 173H244.401V172.02H241.391C240.859 172.02 240.243 172.062 239.711 172.104C242.175 169.514 243.897 167.652 243.897 165.748C243.897 163.998 242.777 162.864 240.957 162.864C239.683 162.864 238.801 163.452 237.975 164.348L238.661 165.006C239.235 164.32 239.977 163.788 240.831 163.788C242.147 163.788 242.777 164.628 242.777 165.79C242.777 167.442 241.097 169.262 238.045 172.328V173ZM246.527 173H247.689V168.842H249.425C251.693 168.842 253.177 167.848 253.177 165.72C253.177 163.522 251.679 162.752 249.369 162.752H246.527V173ZM247.689 167.904V163.704H249.201C251.077 163.704 252.015 164.18 252.015 165.72C252.015 167.246 251.133 167.904 249.257 167.904H247.689ZM256.424 173.182C256.746 173.182 256.928 173.14 257.11 173.084L256.942 172.202C256.788 172.23 256.732 172.23 256.676 172.23C256.48 172.23 256.326 172.076 256.326 171.698V161.856H255.178V171.614C255.178 172.622 255.556 173.182 256.424 173.182ZM261.986 173.182C263.834 173.182 265.458 171.726 265.458 169.234C265.458 166.7 263.834 165.244 261.986 165.244C260.138 165.244 258.514 166.7 258.514 169.234C258.514 171.726 260.138 173.182 261.986 173.182ZM261.986 172.23C260.628 172.23 259.69 171.026 259.69 169.234C259.69 167.428 260.628 166.21 261.986 166.21C263.358 166.21 264.296 167.428 264.296 169.234C264.296 171.026 263.358 172.23 261.986 172.23ZM269.574 173.182C269.994 173.182 270.498 173.042 270.932 172.902L270.694 172.034C270.442 172.146 270.092 172.244 269.812 172.244C268.902 172.244 268.622 171.684 268.622 170.76V166.364H270.708V165.44H268.622V163.298H267.67L267.53 165.44L266.34 165.51V166.364H267.488V170.718C267.488 172.202 267.992 173.182 269.574 173.182ZM277.565 173H278.895L282.171 162.752H280.995L279.301 168.408C278.923 169.626 278.671 170.592 278.279 171.81H278.223C277.831 170.592 277.565 169.626 277.201 168.408L275.493 162.752H274.275L277.565 173ZM282.834 173H289.19V172.02H286.18C285.648 172.02 285.032 172.062 284.5 172.104C286.964 169.514 288.686 167.652 288.686 165.748C288.686 163.998 287.566 162.864 285.746 162.864C284.472 162.864 283.59 163.452 282.764 164.348L283.45 165.006C284.024 164.32 284.766 163.788 285.62 163.788C286.936 163.788 287.566 164.628 287.566 165.79C287.566 167.442 285.886 169.262 282.834 172.328V173ZM291.778 173.182C292.24 173.182 292.632 172.818 292.632 172.286C292.632 171.726 292.24 171.362 291.778 171.362C291.302 171.362 290.91 171.726 290.91 172.286C290.91 172.818 291.302 173.182 291.778 173.182ZM297.805 173.182C299.373 173.182 300.703 171.894 300.703 170.018C300.703 167.988 299.597 166.938 297.861 166.938C297.049 166.938 296.153 167.428 295.509 168.198C295.565 164.936 296.769 163.816 298.211 163.816C298.841 163.816 299.457 164.11 299.863 164.6L300.507 163.886C299.961 163.298 299.205 162.864 298.169 162.864C296.209 162.864 294.417 164.376 294.417 168.408C294.417 171.572 295.831 173.182 297.805 173.182ZM295.537 169.15C296.251 168.17 297.049 167.806 297.693 167.806C298.995 167.806 299.625 168.674 299.625 170.018C299.625 171.348 298.827 172.272 297.805 172.272C296.447 172.272 295.677 171.152 295.537 169.15ZM303.221 173.182C303.683 173.182 304.075 172.818 304.075 172.286C304.075 171.726 303.683 171.362 303.221 171.362C302.745 171.362 302.353 171.726 302.353 172.286C302.353 172.818 302.745 173.182 303.221 173.182ZM308.941 173.182C310.901 173.182 312.077 171.32 312.077 167.988C312.077 164.67 310.901 162.864 308.941 162.864C306.967 162.864 305.805 164.656 305.805 167.988C305.805 171.32 306.967 173.182 308.941 173.182ZM308.941 172.258C307.723 172.258 306.897 170.928 306.897 167.988C306.897 165.034 307.723 163.788 308.941 163.788C310.145 163.788 310.971 165.034 310.971 167.988C310.971 170.928 310.145 172.258 308.941 172.258ZM132.588 187.028V189.87C132.588 191.326 132.266 193.244 128.92 194.35C129.13 194.518 129.368 194.84 129.494 195.022C133.064 193.72 133.484 191.62 133.484 189.87V187.028H132.588ZM133.302 192.712C134.212 193.426 135.346 194.42 135.892 195.064L136.55 194.406C135.976 193.79 134.828 192.81 133.932 192.138L133.302 192.712ZM124.426 185.418C125.322 186.02 126.442 186.832 127.212 187.434H123.712V188.288H126.064V193.944C126.064 194.112 126.008 194.168 125.798 194.182C125.602 194.182 124.958 194.182 124.216 194.168C124.342 194.434 124.482 194.812 124.524 195.064C125.49 195.064 126.092 195.05 126.47 194.91C126.848 194.756 126.96 194.49 126.96 193.958V188.288H128.57C128.304 189.058 128.01 189.856 127.73 190.402L128.458 190.598C128.85 189.842 129.298 188.638 129.676 187.56L129.088 187.392L128.934 187.434H127.926L128.192 187.098C127.87 186.832 127.394 186.482 126.876 186.132C127.716 185.39 128.626 184.312 129.242 183.29L128.654 182.912L128.486 182.954H124.006V183.794H127.87C127.408 184.466 126.806 185.18 126.232 185.684L124.958 184.83L124.426 185.418ZM130.18 185.236V191.872H131.048V186.09H135.08V191.858H135.99V185.236H133.204L133.722 183.752H136.55V182.898H129.662V183.752H132.7C132.588 184.242 132.434 184.788 132.294 185.236H130.18ZM146.126 185.194C146.882 185.88 147.722 186.832 148.086 187.504L148.926 187.084C148.534 186.44 147.708 185.502 146.924 184.83L146.126 185.194ZM138.804 183.038V186.972H139.714V183.038H138.804ZM141.716 182.394V187.42H142.64V182.394H141.716ZM144.572 191.424V193.692C144.572 194.658 144.908 194.896 146.224 194.896C146.504 194.896 148.478 194.896 148.758 194.896C149.836 194.896 150.116 194.518 150.228 192.936C149.976 192.88 149.598 192.74 149.388 192.6C149.346 193.902 149.234 194.084 148.674 194.084C148.254 194.084 146.616 194.084 146.294 194.084C145.622 194.084 145.51 194.028 145.51 193.692V191.424H144.572ZM143.606 189.38V190.472C143.606 191.62 143.256 193.258 138.104 194.378C138.314 194.574 138.58 194.91 138.692 195.134C144.012 193.86 144.586 191.956 144.586 190.486V189.38H143.606ZM139.952 187.868V192.32H140.89V188.722H147.596V192.25H148.562V187.868H139.952ZM145.398 182.254C145.006 183.822 144.348 185.404 143.494 186.44C143.732 186.552 144.124 186.79 144.292 186.93C144.768 186.3 145.202 185.488 145.58 184.578H150.214V183.724H145.902C146.042 183.304 146.182 182.87 146.294 182.436L145.398 182.254ZM154.914 190.542H158.456V189.646H154.914V190.542ZM176.153 188.638C175.915 190.024 175.453 191.102 174.739 191.956C173.955 191.522 173.157 191.102 172.415 190.724C172.737 190.108 173.073 189.394 173.409 188.638H176.153ZM171.169 191.032C172.093 191.48 173.115 192.04 174.095 192.6C173.171 193.398 171.925 193.93 170.329 194.294C170.497 194.49 170.721 194.896 170.805 195.106C172.541 194.644 173.885 194.014 174.907 193.076C176.125 193.818 177.231 194.546 177.945 195.134L178.617 194.406C177.875 193.818 176.755 193.118 175.551 192.404C176.335 191.438 176.853 190.22 177.161 188.638H178.715V187.784H173.759C174.053 187.056 174.319 186.328 174.515 185.656L173.563 185.502C173.367 186.216 173.087 187 172.765 187.784H170.287V188.638H172.401C171.995 189.534 171.561 190.388 171.169 191.032ZM170.665 184.088V186.776H171.561V184.928H177.609V186.748H178.519V184.088H175.201C175.061 183.528 174.809 182.786 174.571 182.198L173.647 182.394C173.843 182.912 174.053 183.556 174.179 184.088H170.665ZM167.823 182.268V185.11H165.905V185.992H167.823V189.576L165.751 190.192L165.975 191.102L167.823 190.514V193.986C167.823 194.182 167.753 194.252 167.571 194.252C167.389 194.252 166.801 194.252 166.157 194.238C166.283 194.49 166.423 194.868 166.437 195.092C167.361 195.106 167.921 195.078 168.257 194.924C168.607 194.784 168.747 194.518 168.747 193.972V190.22L170.581 189.618L170.441 188.778L168.747 189.296V185.992H170.287V185.11H168.747V182.268H167.823ZM186.975 182.52C187.465 183.262 187.969 184.242 188.179 184.872L189.075 184.494C188.865 183.878 188.319 182.926 187.829 182.212L186.975 182.52ZM183.377 182.31C182.579 184.466 181.249 186.594 179.835 187.952C180.017 188.176 180.311 188.666 180.395 188.89C180.899 188.372 181.403 187.756 181.879 187.084V195.064H182.817V185.614C183.377 184.648 183.867 183.626 184.273 182.59L183.377 182.31ZM183.671 193.706V194.602H192.757V193.706H188.739V190.024H192.127V189.128H188.739V185.922H192.547V185.026H184.035V185.922H187.801V189.128H184.511V190.024H187.801V193.706H183.671ZM196.49 194H197.652L198.688 190.78H202.524L203.546 194H204.778L201.264 183.752H199.99L196.49 194ZM198.996 189.856L199.528 188.19C199.906 187.028 200.242 185.922 200.578 184.718H200.634C200.984 185.922 201.306 187.028 201.698 188.19L202.23 189.856H198.996ZM207.404 194.182C207.726 194.182 207.908 194.14 208.09 194.084L207.922 193.202C207.768 193.23 207.712 193.23 207.656 193.23C207.46 193.23 207.306 193.076 207.306 192.698V182.856H206.158V192.614C206.158 193.622 206.536 194.182 207.404 194.182ZM212.378 194.182C212.798 194.182 213.302 194.042 213.736 193.902L213.498 193.034C213.246 193.146 212.896 193.244 212.616 193.244C211.706 193.244 211.426 192.684 211.426 191.76V187.364H213.512V186.44H211.426V184.298H210.474L210.334 186.44L209.144 186.51V187.364H210.292V191.718C210.292 193.202 210.796 194.182 212.378 194.182ZM226.711 182.898C227.593 183.318 228.643 183.976 229.161 184.466L229.735 183.794C229.203 183.318 228.139 182.702 227.257 182.324L226.711 182.898ZM217.947 193.132L218.143 194.098C219.753 193.748 222.049 193.244 224.205 192.768L224.135 191.872C221.853 192.362 219.473 192.852 217.947 193.132ZM219.739 187.588H222.735V190.178H219.739V187.588ZM218.857 186.762V190.99H223.659V186.762H218.857ZM218.031 184.536V185.46H224.961C225.129 187.77 225.451 189.884 225.955 191.536C224.989 192.684 223.827 193.636 222.483 194.35C222.693 194.518 223.057 194.896 223.197 195.078C224.373 194.392 225.409 193.552 226.305 192.544C226.949 194.14 227.817 195.106 228.923 195.106C229.945 195.106 230.323 194.392 230.491 192.026C230.225 191.942 229.875 191.718 229.665 191.508C229.581 193.398 229.413 194.126 228.993 194.126C228.237 194.126 227.565 193.216 227.033 191.676C228.083 190.29 228.937 188.638 229.553 186.748L228.615 186.524C228.153 188.036 227.509 189.38 226.697 190.556C226.333 189.156 226.067 187.406 225.927 185.46H230.127V184.536H225.885C225.843 183.808 225.829 183.066 225.829 182.296H224.835C224.849 183.052 224.863 183.808 224.905 184.536H218.031ZM239.334 194.182C241.868 194.182 243.66 192.11 243.66 188.834C243.66 185.572 241.868 183.57 239.334 183.57C236.786 183.57 234.994 185.572 234.994 188.834C234.994 192.11 236.786 194.182 239.334 194.182ZM239.334 193.16C237.43 193.16 236.184 191.466 236.184 188.834C236.184 186.216 237.43 184.592 239.334 184.592C241.224 184.592 242.47 186.216 242.47 188.834C242.47 191.466 241.224 193.16 239.334 193.16ZM245.806 197.234H246.954V194.63L246.926 193.3C247.626 193.86 248.354 194.182 249.054 194.182C250.79 194.182 252.344 192.684 252.344 190.108C252.344 187.77 251.308 186.244 249.334 186.244C248.438 186.244 247.598 186.762 246.898 187.322H246.856L246.744 186.44H245.806V197.234ZM248.886 193.216C248.368 193.216 247.668 193.006 246.954 192.39V188.288C247.724 187.588 248.41 187.21 249.068 187.21C250.58 187.21 251.168 188.386 251.168 190.122C251.168 192.026 250.202 193.216 248.886 193.216ZM256.483 194.182C256.903 194.182 257.407 194.042 257.841 193.902L257.603 193.034C257.351 193.146 257.001 193.244 256.721 193.244C255.811 193.244 255.531 192.684 255.531 191.76V187.364H257.617V186.44H255.531V184.298H254.579L254.439 186.44L253.249 186.51V187.364H254.397V191.718C254.397 193.202 254.901 194.182 256.483 194.182ZM259.355 194H260.503V186.44H259.355V194ZM259.943 184.816C260.391 184.816 260.727 184.508 260.727 184.018C260.727 183.556 260.391 183.248 259.943 183.248C259.467 183.248 259.159 183.556 259.159 184.018C259.159 184.508 259.467 184.816 259.943 184.816ZM266.013 194.182C267.861 194.182 269.485 192.726 269.485 190.234C269.485 187.7 267.861 186.244 266.013 186.244C264.165 186.244 262.541 187.7 262.541 190.234C262.541 192.726 264.165 194.182 266.013 194.182ZM266.013 193.23C264.655 193.23 263.717 192.026 263.717 190.234C263.717 188.428 264.655 187.21 266.013 187.21C267.385 187.21 268.323 188.428 268.323 190.234C268.323 192.026 267.385 193.23 266.013 193.23ZM271.537 194H272.685V188.456C273.469 187.658 274.043 187.238 274.841 187.238C275.891 187.238 276.339 187.882 276.339 189.338V194H277.487V189.198C277.487 187.266 276.759 186.244 275.177 186.244C274.141 186.244 273.357 186.818 272.629 187.546H272.587L272.475 186.44H271.537V194ZM284.838 187.84H288.296V189.45H284.838V187.84ZM289.262 187.84H292.888V189.45H289.262V187.84ZM284.838 185.502H288.296V187.084H284.838V185.502ZM289.262 185.502H292.888V187.084H289.262V185.502ZM291.81 182.324C291.474 183.024 290.886 184.004 290.382 184.69H286.924L287.47 184.41C287.19 183.822 286.532 182.954 285.958 182.324L285.16 182.702C285.692 183.29 286.252 184.13 286.574 184.69H283.914V190.262H288.296V191.662H282.584V192.544H288.296V195.078H289.262V192.544H295.086V191.662H289.262V190.262H293.84V184.69H291.418C291.88 184.088 292.384 183.332 292.818 182.66L291.81 182.324ZM297.928 189.772V194.28H306.748V195.106H307.686V189.772H306.748V193.356H303.332V188.652H308.904V187.714H303.332V185.404H307.924V184.48H303.332V182.268H302.352V184.48H297.816V185.404H302.352V187.714H296.766V188.652H302.352V193.356H298.908V189.772H297.928ZM315.106 190.066C316.226 190.304 317.64 190.794 318.41 191.172L318.802 190.528C318.032 190.164 316.618 189.702 315.512 189.478L315.106 190.066ZM313.692 191.844C315.624 192.082 318.046 192.642 319.376 193.118L319.796 192.404C318.438 191.956 316.016 191.41 314.126 191.186L313.692 191.844ZM311.018 182.898V195.092H311.928V194.49H321.672V195.092H322.624V182.898H311.018ZM311.928 193.65V183.752H321.672V193.65H311.928ZM315.638 184.088C314.924 185.25 313.706 186.356 312.516 187.084C312.712 187.21 313.034 187.49 313.174 187.644C313.622 187.35 314.084 186.986 314.532 186.58C314.98 187.07 315.526 187.518 316.142 187.91C314.91 188.512 313.524 188.946 312.25 189.198C312.418 189.38 312.614 189.744 312.698 189.968C314.084 189.646 315.596 189.114 316.94 188.386C318.116 189.03 319.474 189.52 320.818 189.814C320.93 189.576 321.168 189.268 321.336 189.1C320.076 188.862 318.802 188.47 317.696 187.938C318.746 187.252 319.642 186.44 320.23 185.488L319.698 185.166L319.544 185.208H315.82C316.044 184.928 316.24 184.648 316.422 184.368L315.638 184.088ZM315.064 186.062L315.176 185.95H318.914C318.396 186.538 317.696 187.056 316.898 187.518C316.17 187.084 315.526 186.608 315.064 186.062ZM327.384 195.078C327.692 194.868 328.182 194.714 332.074 193.454C332.018 193.258 331.948 192.88 331.92 192.628L328.448 193.678V190.472C329.302 189.898 330.086 189.254 330.688 188.582H330.73C331.808 191.494 333.81 193.636 336.694 194.602C336.834 194.336 337.114 193.986 337.324 193.79C335.91 193.384 334.706 192.67 333.726 191.718C334.608 191.172 335.658 190.402 336.47 189.702L335.7 189.17C335.084 189.786 334.062 190.57 333.194 191.158C332.55 190.416 332.032 189.534 331.654 188.582H336.862V187.756H331.262V186.426H335.798V185.628H331.262V184.368H336.428V183.556H331.262V182.254H330.31V183.556H325.298V184.368H330.31V185.628H326.012V186.426H330.31V187.756H324.752V188.582H329.498C328.168 189.814 326.11 190.934 324.36 191.494C324.556 191.676 324.836 192.026 324.976 192.264C325.788 191.97 326.642 191.564 327.482 191.074V193.328C327.482 193.888 327.188 194.112 326.964 194.224C327.118 194.434 327.314 194.854 327.384 195.078ZM341.576 190.542H345.118V189.646H341.576V190.542ZM349.436 193.286L349.674 194.154C350.808 193.692 352.278 193.118 353.692 192.544L353.524 191.774C351.998 192.348 350.472 192.936 349.436 193.286ZM349.702 188.064C349.898 187.966 350.22 187.882 351.816 187.672C351.256 188.596 350.724 189.338 350.5 189.632C350.094 190.15 349.786 190.528 349.506 190.57C349.618 190.808 349.758 191.228 349.8 191.424C350.052 191.256 350.472 191.13 353.58 190.402C353.552 190.22 353.51 189.884 353.524 189.632L351.074 190.15C352.096 188.848 353.09 187.224 353.916 185.642L353.132 185.208C352.894 185.754 352.6 186.3 352.306 186.818L350.654 187C351.452 185.768 352.236 184.144 352.838 182.59L351.928 182.268C351.41 183.976 350.458 185.824 350.164 186.3C349.87 186.79 349.646 187.126 349.408 187.182C349.52 187.42 349.66 187.868 349.702 188.064ZM357.57 189.044V191.214H356.324V189.044H357.57ZM358.228 189.044H359.306V191.214H358.228V189.044ZM355.568 188.26V194.98H356.324V191.97H357.57V194.63H358.228V191.97H359.306V194.616H359.964V191.97H361.084V194.14C361.084 194.252 361.042 194.28 360.944 194.294C360.846 194.294 360.566 194.294 360.244 194.28C360.342 194.476 360.44 194.784 360.468 194.994C360.972 194.994 361.294 194.98 361.546 194.854C361.784 194.728 361.84 194.518 361.84 194.154V188.246L361.084 188.26H355.568ZM359.964 189.044H361.084V191.214H359.964V189.044ZM357.36 182.436C357.584 182.856 357.836 183.36 357.99 183.794H354.672V186.832C354.672 188.974 354.546 192.068 353.286 194.322C353.482 194.42 353.86 194.686 354.014 194.854C355.302 192.558 355.526 189.254 355.54 186.986H361.714V183.794H358.984C358.844 183.332 358.536 182.674 358.228 182.184L357.36 182.436ZM355.54 184.592H360.832V186.202H355.54V184.592ZM370.506 183.444H374.398V184.956H370.506V183.444ZM369.638 182.716V185.684H375.308V182.716H369.638ZM363.996 189.31C364.122 189.198 364.528 189.114 365.004 189.114H366.306V191.2C365.214 191.41 364.206 191.578 363.436 191.704L363.646 192.628L366.306 192.082V195.036H367.174V191.914L368.84 191.564L368.784 190.738L367.174 191.046V189.114H368.532V188.246H367.174V186.076H366.306V188.246H364.864C365.27 187.252 365.662 186.076 365.998 184.844H368.616V183.948H366.236C366.362 183.458 366.46 182.954 366.558 182.464L365.634 182.268C365.55 182.828 365.452 183.402 365.326 183.948H363.534V184.844H365.116C364.822 186.006 364.5 186.972 364.36 187.322C364.122 187.938 363.94 188.4 363.716 188.456C363.814 188.694 363.954 189.114 363.996 189.31ZM374.356 187.35V188.624H370.646V187.35H374.356ZM368.448 192.992L368.602 193.846L374.356 193.398V195.092H375.224V193.328L376.26 193.244L376.274 192.446L375.224 192.516V187.35H376.19V186.538H368.798V187.35H369.764V192.908L368.448 192.992ZM374.356 189.352V190.654H370.646V189.352H374.356ZM374.356 191.382V192.586L370.646 192.852V191.382H374.356Z" fill="#999999"/>
</g>
<defs>
<clipPath id="clip0_28_235">
<rect width="500" height="300" fill="white"/>
</clipPath>
</defs>
</svg>
