<?xml version="1.0" encoding="utf-8"?>
<svg version="1.1" xmlns:xlink="http://www.w3.org/1999/xlink" width="100px" height="100px" xmlns="http://www.w3.org/2000/svg">
  <defs>
    <mask fill="white" id="clip24">
      <path d="M 50 0  C 50.8803220970132 0  51.7553305540006 0.0227503974016656  52.6244694996362 0.0676953208787552  C 79.0187712189105 1.43259776479817  100 23.2660846054735  100 50  C 100 76.6857274734642  79.0943404409446 98.4886765306031  52.7671439478241 99.9247245464265  C 51.8511087482586 99.9746907679003  50.9285100180754 100  50 100  C 25.0838532965714 100  4.42438344524123 81.7749999005991  0.625117569919041 57.9285268257068  C 0.213707074475906 55.3462676145163  0 52.6980907881111  0 50  C 0 49.5099363697735  0.00720487082907084 49.0198992223166  0.0216122767823208 48.5300474199065  L 50 50  L 46.2734878263471 13.0916136453466  L 44.9772097104338 0.252923928063467  C 46.6461704836043 0.0844147285876033  48.3225539017036 0  50 0  Z " fill-rule="evenodd" />
    </mask>
  </defs>
  <g transform="matrix(1 0 0 1 -325 -142 )">
    <path d="M 50 0  C 50.8803220970132 0  51.7553305540006 0.0227503974016656  52.6244694996362 0.0676953208787552  C 79.0187712189105 1.43259776479817  100 23.2660846054735  100 50  C 100 76.6857274734642  79.0943404409446 98.4886765306031  52.7671439478241 99.9247245464265  C 51.8511087482586 99.9746907679003  50.9285100180754 100  50 100  C 25.0838532965714 100  4.42438344524123 81.7749999005991  0.625117569919041 57.9285268257068  C 0.213707074475906 55.3462676145163  0 52.6980907881111  0 50  C 0 49.5099363697735  0.00720487082907084 49.0198992223166  0.0216122767823208 48.5300474199065  L 50 50  L 46.2734878263471 13.0916136453466  L 44.9772097104338 0.252923928063467  C 46.6461704836043 0.0844147285876033  48.3225539017036 0  50 0  Z " fill-rule="nonzero" fill="#0096fa" stroke="none" transform="matrix(1 0 0 1 325 142 )" />
    <path d="M 50 0  C 50.8803220970132 0  51.7553305540006 0.0227503974016656  52.6244694996362 0.0676953208787552  C 79.0187712189105 1.43259776479817  100 23.2660846054735  100 50  C 100 76.6857274734642  79.0943404409446 98.4886765306031  52.7671439478241 99.9247245464265  C 51.8511087482586 99.9746907679003  50.9285100180754 100  50 100  C 25.0838532965714 100  4.42438344524123 81.7749999005991  0.625117569919041 57.9285268257068  C 0.213707074475906 55.3462676145163  0 52.6980907881111  0 50  C 0 49.5099363697735  0.00720487082907084 49.0198992223166  0.0216122767823208 48.5300474199065  L 50 50  L 46.2734878263471 13.0916136453466  L 44.9772097104338 0.252923928063467  C 46.6461704836043 0.0844147285876033  48.3225539017036 0  50 0  Z " stroke-width="2" stroke="#ffffff" fill="none" transform="matrix(1 0 0 1 325 142 )" mask="url(#clip24)" />
  </g>
</svg>