<?xml version="1.0" encoding="utf-8"?>
<svg version="1.1" xmlns:xlink="http://www.w3.org/1999/xlink" width="100px" height="100px" xmlns="http://www.w3.org/2000/svg">
  <g transform="matrix(1 0 0 1 -325 -142 )">
    <path d="M 370.525162056745 142.702679328047  C 372.012866964636 142.567636725772  373.506007749686 142.5  375 142.5  C 402.338095116624 142.5  424.5 164.661904883376  424.5 192  C 424.5 219.338095116624  402.338095116624 241.5  375 241.5  C 347.661904883376 241.5  325.5 219.338095116624  325.5 192  C 325.5 169.722908582232  340.376873861107 150.212895316758  361.809629770471 144.289763088077  L 374.516757436537 192.12836130592  A 0.5 0.5 0 0 0 375.497470760719 191.949772097104 L 370.525162056745 142.702679328047  Z " fill-rule="nonzero" fill="#0096fa" stroke="none" />
    <path d="M 370.525162056745 142.702679328047  C 372.012866964636 142.567636725772  373.506007749686 142.5  375 142.5  C 402.338095116624 142.5  424.5 164.661904883376  424.5 192  C 424.5 219.338095116624  402.338095116624 241.5  375 241.5  C 347.661904883376 241.5  325.5 219.338095116624  325.5 192  C 325.5 169.722908582232  340.376873861107 150.212895316758  361.809629770471 144.289763088077  L 374.516757436537 192.12836130592  A 0.5 0.5 0 0 0 375.497470760719 191.949772097104 L 370.525162056745 142.702679328047  Z " stroke-width="1" stroke="#ffffff" fill="none" />
  </g>
</svg>