<?xml version="1.0" encoding="utf-8"?>
<svg version="1.1" xmlns:xlink="http://www.w3.org/1999/xlink" width="100px" height="100px" xmlns="http://www.w3.org/2000/svg">
  <g transform="matrix(1 0 0 1 -855 -142 )">
    <path d="M 900.525162056745 142.702679328047  C 902.012866964636 142.567636725772  903.506007749686 142.5  905 142.5  C 932.338095116624 142.5  954.5 164.661904883376  954.5 192  C 954.5 219.338095116624  932.338095116624 241.5  905 241.5  C 877.661904883376 241.5  855.5 219.338095116624  855.5 192  C 855.5 170.664438939652  869.167114742535 151.750133424294  889.377297248919 145.029973821099  L 904.523985719357 192.153004590207  A 0.5 0.5 0 0 0 905.497470760719 191.949772097104 L 900.525162056745 142.702679328047  Z " fill-rule="nonzero" fill="#4bced0" stroke="none" />
    <path d="M 900.525162056745 142.702679328047  C 902.012866964636 142.567636725772  903.506007749686 142.5  905 142.5  C 932.338095116624 142.5  954.5 164.661904883376  954.5 192  C 954.5 219.338095116624  932.338095116624 241.5  905 241.5  C 877.661904883376 241.5  855.5 219.338095116624  855.5 192  C 855.5 170.664438939652  869.167114742535 151.750133424294  889.377297248919 145.029973821099  L 904.523985719357 192.153004590207  A 0.5 0.5 0 0 0 905.497470760719 191.949772097104 L 900.525162056745 142.702679328047  Z " stroke-width="1" stroke="#ffffff" fill="none" />
  </g>
</svg>