<?xml version="1.0" encoding="utf-8"?>
<svg version="1.1" xmlns:xlink="http://www.w3.org/1999/xlink" width="46px" height="36px" xmlns="http://www.w3.org/2000/svg">
  <g transform="matrix(1 0 0 1 -581 -96 )">
    <path d="M 11.4160583941606 8.30598095542476  L 11.7518248175183 7.96953615723033  L 19.8102189781022 1.57708499153634  C 22.1605839416058 -0.105138999435748  24.8467153284672 -0.441583797630184  27.5328467153285 0.567750596953094  L 40.2919708029198 5.61442256986939  C 41.2992700729927 5.9508673680638  41.9708029197081 5.9508673680638  42.978102189781 5.9508673680638  L 44.992700729927 5.9508673680638  C 45.6642335766423 5.9508673680638  46 6.28731216625824  46 6.96020176264708  L 46 22.7731072777848  C 46 23.4459968741737  45.3284671532847 23.7824416723681  44.992700729927 23.7824416723681  L 42.3065693430657 23.7824416723681  C 41.9708029197081 23.7824416723681  41.6350364963504 23.7824416723681  41.2992700729927 24.1188864705625  L 40.6277372262774 24.7917760669513  L 39.9562043795621 24.7917760669513  L 25.1824817518249 6.62375696445264  C 24.8467153284672 5.9508673680638  24.1751824817519 5.9508673680638  23.8394160583942 6.28731216625824  L 17.1240875912409 9.98820494639685  C 15.4452554744526 10.9975393409801  13.7664233576643 10.9975393409801  12.4233576642336 10.3246497445913  C 11.4160583941606 9.98820494639685  11.080291970803 9.31531535000801  11.4160583941606 8.30598095542476  Z M 0 23.1095520759793  C 0 23.4459968741737  0.671532846715417 24.1188864705625  1.34306569343072 24.1188864705625  L 3.69343065693433 24.1188864705625  L 5.37226277372264 22.100217681396  C 7.05109489051095 20.0815488922295  9.73722627737226 19.7451040940351  11.4160583941606 21.4273280850072  C 12.087591240876 22.100217681396  12.7591240875913 22.7731072777848  12.7591240875913 23.4459968741737  C 14.1021897810219 23.7824416723681  15.4452554744526 25.1282208651458  15.7810218978102 26.4740000579234  C 16.7883211678832 26.8104448561179  17.7956204379562 27.4833344525067  18.1313868613139 28.49266884709  C 19.1386861313869 28.49266884709  19.8102189781022 29.1655584434788  20.4817518248175 29.8384480398677  C 21.8248175182483 31.1842272326453  22.1605839416058 33.5393408200063  21.1532846715328 35.2215648109784  L 20.8175182481752 35.5580096091728  C 21.8248175182483 36.2308992055616  23.5036496350366 36.2308992055616  24.1751824817519 34.885120012784  C 24.5109489051095 34.2122304163951  24.8467153284672 33.5393408200063  24.5109489051095 32.8664512236174  L 24.8467153284672 33.2028960218119  C 25.8540145985402 34.2122304163951  27.1970802919708 34.2122304163951  28.2043795620438 33.5393408200063  C 28.8759124087591 32.8664512236174  29.5474452554745 31.8571168290342  29.2116788321168 31.1842272326453  L 29.5474452554745 31.5206720308398  C 30.5547445255475 32.530006425423  31.5620437956204 32.530006425423  32.9051094890511 31.8571168290342  C 33.5766423357664 31.1842272326453  34.2481751824817 30.1748928380621  33.9124087591241 29.5020032416732  L 34.2481751824817 29.8384480398677  C 34.9197080291971 30.5113376362565  36.2627737226277 30.8477824344509  37.2700729927007 30.1748928380621  C 38.6131386861313 29.5020032416732  38.9489051094891 27.8197792507011  38.2773722627738 26.8104448561179  L 37.941605839416 26.4740000579234  L 36.2627737226277 24.4553312687569  L 24.1751824817519 8.9788705518136  C 24.1751824817519 8.9788705518136  23.8394160583942 8.6424257536192  23.5036496350366 8.9788705518136  L 17.4598540145986 12.3433185337578  C 15.7810218978102 13.3526529283411  13.4306569343066 13.3526529283411  11.4160583941606 12.6797633319522  C 10.4087591240877 12.3433185337578  9.40145985401467 11.3339841391745  9.06569343065696 10.3246497445913  C 8.72992700729937 8.9788705518136  9.06569343065696 7.96953615723033  9.40145985401467 6.96020176264708  C 9.40145985401467 6.62375696445267  9.40145985401467 6.28731216625824  9.06569343065696 6.28731216625824  L 1.00729927007301 6.28731216625824  C 0.335766423357709 6.28731216625824  0 6.62375696445264  0 7.29664656084151  L 0 23.1095520759793  Z M 10.07299270073 25.1282208651458  C 11.080291970803 24.7917760669513  10.7445255474453 23.4459968741737  9.73722627737226 22.7731072777848  C 8.72992700729925 22.4366624795904  7.72262773722636 22.4366624795904  7.05109489051095 23.4459968741737  L 5.37226277372264 25.4646656633402  C 4.70072992700734 26.4740000579234  4.70072992700734 27.8197792507011  5.70802919708034 28.49266884709  L 6.04379562043794 28.8291136452844  C 6.71532846715335 29.5020032416732  7.72262773722636 29.5020032416732  8.39416058394166 29.1655584434788  C 8.39416058394166 29.8384480398677  8.39416058394166 30.8477824344509  9.06569343065696 31.1842272326453  L 9.40145985401467 31.1842272326453  C 10.07299270073 31.5206720308397  10.7445255474453 31.8571168290342  11.7518248175183 31.5206720308397  C 11.7518248175183 32.1935616272286  12.087591240876 32.8664512236174  12.4233576642336 33.5393408200063  C 13.0948905109489 34.2122304163951  14.1021897810219 34.2122304163951  14.7737226277373 33.8757856182007  C 14.7737226277373 34.5486752145895  15.1094890510949 34.885120012784  15.4452554744526 35.2215648109784  C 16.4525547445256 35.8944544073672  17.7956204379562 35.8944544073672  18.4671532846715 34.885120012784  C 18.4671532846715 34.885120012784  18.4671532846715 34.5486752145895  18.8029197080292 34.5486752145895  L 19.1386861313869 33.8757856182007  C 19.8102189781022 32.8664512236174  19.4744525547445 31.8571168290342  18.8029197080292 31.1842272326453  C 18.1313868613139 30.5113376362565  17.1240875912409 30.5113376362565  16.4525547445256 30.8477824344509  C 16.4525547445256 29.8384480398677  15.4452554744526 28.8291136452844  14.4379562043796 28.49266884709  L 13.4306569343066 28.49266884709  C 13.0948905109489 28.49266884709  13.0948905109489 28.1562240488955  13.0948905109489 28.1562240488955  C 13.4306569343066 27.1468896543123  13.0948905109489 25.8011104615346  12.087591240876 25.4646656633402  C 11.4160583941606 25.1282208651458  10.7445255474453 25.1282208651458  10.4087591240877 25.4646656633402  C 10.07299270073 25.4646656633402  10.07299270073 25.1282208651458  10.07299270073 25.1282208651458  Z " fill-rule="nonzero" fill="#1abc9c" stroke="none" transform="matrix(1 0 0 1 581 96 )" />
  </g>
</svg>