<?xml version="1.0" encoding="utf-8"?>
<svg version="1.1" xmlns:xlink="http://www.w3.org/1999/xlink" width="100px" height="100px" xmlns="http://www.w3.org/2000/svg">
  <g transform="matrix(1 0 0 1 -798 -365 )">
    <path d="M 843.525162056745 365.702679328047  C 845.012866964636 365.567636725772  846.506007749686 365.5  848 365.5  C 875.338095116624 365.5  897.5 387.661904883376  897.5 415  C 897.5 441.281570449713  876.969796444619 462.94956805179  850.787486999074 464.421498705185  L 848.499465527399 414.976887515494  A 0.5 0.5 0 0 0 848.497470760719 414.949772097104 L 843.525162056745 365.702679328047  Z " fill-rule="nonzero" fill="#0096fa" stroke="none" />
    <path d="M 843.525162056745 365.702679328047  C 845.012866964636 365.567636725772  846.506007749686 365.5  848 365.5  C 875.338095116624 365.5  897.5 387.661904883376  897.5 415  C 897.5 441.281570449713  876.969796444619 462.94956805179  850.787486999074 464.421498705185  L 848.499465527399 414.976887515494  A 0.5 0.5 0 0 0 848.497470760719 414.949772097104 L 843.525162056745 365.702679328047  Z " stroke-width="1" stroke="#ffffff" fill="none" />
  </g>
</svg>