<?xml version="1.0" encoding="utf-8"?>
<svg version="1.1" xmlns:xlink="http://www.w3.org/1999/xlink" width="30px" height="30px" xmlns="http://www.w3.org/2000/svg">
  <g transform="matrix(1 0 0 1 -942 -712 )">
    <path d="M 957 712  C 965.4 712  972 718.6  972 727  C 972 735.4  965.4 742  957 742  C 948.6 742  942 735.4  942 727  C 942 718.6  948.6 712  957 712  Z " fill-rule="nonzero" fill="#fb6260" stroke="none" />
    <path d="M 957 712.5  C 965.12 712.5  971.5 718.88  971.5 727  C 971.5 735.12  965.12 741.5  957 741.5  C 948.88 741.5  942.5 735.12  942.5 727  C 942.5 718.88  948.88 712.5  957 712.5  Z " stroke-width="1" stroke="#ffffff" fill="none" />
  </g>
</svg>