<?xml version="1.0" encoding="utf-8"?>
<svg version="1.1" xmlns:xlink="http://www.w3.org/1999/xlink" width="20px" height="20px" xmlns="http://www.w3.org/2000/svg">
  <g transform="matrix(1 0 0 1 -947 -717 )">
    <path d="M 957 717  C 962.6 717  967 721.4  967 727  C 967 732.6  962.6 737  957 737  C 951.4 737  947 732.6  947 727  C 947 721.4  951.4 717  957 717  Z " fill-rule="nonzero" fill="#ffffff" stroke="none" />
    <path d="M 957 717.5  C 962.32 717.5  966.5 721.68  966.5 727  C 966.5 732.32  962.32 736.5  957 736.5  C 951.68 736.5  947.5 732.32  947.5 727  C 947.5 721.68  951.68 717.5  957 717.5  Z " stroke-width="1" stroke="#ffffff" fill="none" />
  </g>
</svg>