<?xml version="1.0" encoding="utf-8"?>
<svg version="1.1" xmlns:xlink="http://www.w3.org/1999/xlink" width="30px" height="30px" xmlns="http://www.w3.org/2000/svg">
  <g transform="matrix(1 0 0 1 -942 -801 )">
    <path d="M 956.041727832642 801.531699669362  C 956.360669634049 801.510575346556  956.680268251559 801.5  957 801.5  C 965.008128872547 801.5  971.5 807.991871127453  971.5 816  C 971.5 824.008128872547  965.008128872547 830.5  957 830.5  C 953.171967111769 830.5  949.506446730663 828.986628151059  946.796294649821 826.302170726308  L 957.34290291893 816.363892275528  A 0.5 0.5 0 0 0 957.497470760719 815.949772097104 L 956.04172783264 801.531699669362  Z " fill-rule="nonzero" fill="#4bced0" stroke="none" />
    <path d="M 956.041727832642 801.531699669362  C 956.360669634049 801.510575346556  956.680268251559 801.5  957 801.5  C 965.008128872547 801.5  971.5 807.991871127453  971.5 816  C 971.5 824.008128872547  965.008128872547 830.5  957 830.5  C 953.171967111769 830.5  949.506446730663 828.986628151059  946.796294649821 826.302170726308  L 957.34290291893 816.363892275528  A 0.5 0.5 0 0 0 957.497470760719 815.949772097104 L 956.04172783264 801.531699669362  Z " stroke-width="1" stroke="#ffffff" fill="none" />
  </g>
</svg>