<?xml version="1.0" encoding="utf-8"?>
<svg version="1.1" xmlns:xlink="http://www.w3.org/1999/xlink" width="30px" height="30px" xmlns="http://www.w3.org/2000/svg">
  <g transform="matrix(1 0 0 1 -942 -756 )">
    <path d="M 956.041727832642 756.531699669362  C 956.360669634049 756.510575346556  956.680268251559 756.5  957 756.5  C 965.008128872547 756.5  971.5 762.991871127453  971.5 771  C 971.5 779.008128872547  965.008128872547 785.5  957 785.5  C 948.991871127453 785.5  942.5 779.008128872547  942.5 771  C 942.5 769.08966277882  942.877473763421 767.19983235185  943.608919709666 765.438616350231  L 956.792419402111 771.454873933503  A 0.5 0.5 0 0 0 957.497470760719 770.949772097104 L 956.04172783264 756.531699669362  Z " fill-rule="nonzero" fill="#ffa94c" stroke="none" />
    <path d="M 956.041727832642 756.531699669362  C 956.360669634049 756.510575346556  956.680268251559 756.5  957 756.5  C 965.008128872547 756.5  971.5 762.991871127453  971.5 771  C 971.5 779.008128872547  965.008128872547 785.5  957 785.5  C 948.991871127453 785.5  942.5 779.008128872547  942.5 771  C 942.5 769.08966277882  942.877473763421 767.19983235185  943.608919709666 765.438616350231  L 956.792419402111 771.454873933503  A 0.5 0.5 0 0 0 957.497470760719 770.949772097104 L 956.04172783264 756.531699669362  Z " stroke-width="1" stroke="#ffffff" fill="none" />
  </g>
</svg>