<?xml version="1.0" encoding="utf-8"?>
<svg version="1.1" xmlns:xlink="http://www.w3.org/1999/xlink" width="30px" height="30px" xmlns="http://www.w3.org/2000/svg">
  <g transform="matrix(1 0 0 1 -942 -756 )">
    <path d="M 957 756  C 965.4 756  972 762.6  972 771  C 972 779.4  965.4 786  957 786  C 948.6 786  942 779.4  942 771  C 942 762.6  948.6 756  957 756  Z " fill-rule="nonzero" fill="#e9e9e9" stroke="none" />
    <path d="M 957 756.5  C 965.12 756.5  971.5 762.88  971.5 771  C 971.5 779.12  965.12 785.5  957 785.5  C 948.88 785.5  942.5 779.12  942.5 771  C 942.5 762.88  948.88 756.5  957 756.5  Z " stroke-width="1" stroke="#ffffff" fill="none" />
  </g>
</svg>