<?xml version="1.0" encoding="utf-8"?>
<svg version="1.1" xmlns:xlink="http://www.w3.org/1999/xlink" width="100px" height="100px" xmlns="http://www.w3.org/2000/svg">
  <g transform="matrix(1 0 0 1 -40 -1145 )">
    <path d="M 90 1145  C 118 1145  140 1167  140 1195  C 140 1223  118 1245  90 1245  C 62 1245  40 1223  40 1195  C 40 1167  62 1145  90 1145  Z " fill-rule="nonzero" fill="#e9e9e9" stroke="none" />
    <path d="M 90 1145.5  C 117.72 1145.5  139.5 1167.28  139.5 1195  C 139.5 1222.72  117.72 1244.5  90 1244.5  C 62.28 1244.5  40.5 1222.72  40.5 1195  C 40.5 1167.28  62.28 1145.5  90 1145.5  Z " stroke-width="1" stroke="#ffffff" fill="none" />
  </g>
</svg>