<?xml version="1.0" encoding="utf-8"?>
<svg version="1.1" xmlns:xlink="http://www.w3.org/1999/xlink" width="80px" height="80px" xmlns="http://www.w3.org/2000/svg">
  <g transform="matrix(1 0 0 1 -50 -1155 )">
    <path d="M 90 1155  C 112.4 1155  130 1172.6  130 1195  C 130 1217.4  112.4 1235  90 1235  C 67.6 1235  50 1217.4  50 1195  C 50 1172.6  67.6 1155  90 1155  Z " fill-rule="nonzero" fill="#ffffff" stroke="none" />
    <path d="M 90 1155.5  C 112.12 1155.5  129.5 1172.88  129.5 1195  C 129.5 1217.12  112.12 1234.5  90 1234.5  C 67.88 1234.5  50.5 1217.12  50.5 1195  C 50.5 1172.88  67.88 1155.5  90 1155.5  Z " stroke-width="1" stroke="#ffffff" fill="none" />
  </g>
</svg>