<?xml version="1.0" encoding="utf-8"?>
<svg version="1.1" xmlns:xlink="http://www.w3.org/1999/xlink" width="47px" height="43px" xmlns="http://www.w3.org/2000/svg">
  <g transform="matrix(1 0 0 1 -1075 -2783 )">
    <path d="M 29.2448 13.216  C 29.2448 16.1584  31.6304 18.544  34.5728 18.544  C 37.5152 18.544  39.9008 16.1584  39.9008 13.216  C 39.9008 10.2736  37.5152 7.888  34.5728 7.888  C 31.6304 7.888  29.2448 10.2736  29.2448 13.216  Z M 17.6144 24.3616  C 17.7488 24.5776  17.9312 24.9328  18.104 25.2832  C 18.4784 26.056  18.92 25.9312  19.5536 25.3312  C 20.5952 24.3424  23.4272 21.4576  23.4272 21.4576  C 23.4272 21.4576  24.0032 20.248  23.4272 19.5184  C 22.8512 18.7936  22.7024 17.3392  21.488 18.5488  L 17.6144 22.4224  C 16.8272 23.1808  17.2832 23.8144  17.6144 24.3616  Z M 45.7712 19.1344  C 46.568 18.4576  46.6736 17.2576  46.0064 16.4464  C 45.3392 15.64  44.144 15.5296  43.3376 16.2016  L 37.9328 20.7328  L 33.4448 22.24  L 29.0864 19.1248  L 26.1296 12.2752  L 25.2224 1.9744  C 25.1264 0.9136  24.224 0.1264  23.1872 0.2272  C 22.1552 0.3232  21.3968 1.264  21.488 2.3248  L 22.4528 13.264  L 25.88 21.2032  L 20.3552 27.3424  L 11.8016 29.2048  L 2.9984 26.9488  C 1.976 26.6128  0.939200000000002 27.1888  0.521600000000002 28.1824  C -0.0639999999999982 29.5648  1.0832 30.8032  2.1104 31.144  L 12.7664 35.0176  L 20.5184 32.1088  L 14.7104 37.9264  L 6.0464 34.7776  C 5.0432 34.3792  3.488 34.9888  3.0848 35.992  C 2.6816 36.9904  3.0512 38.4976  4.0544 38.9008  C 4.0544 38.9008  12.4448 41.872  14.7104 42.7744  C 15.4256 43.0576  16.6304 42.7888  17.6192 41.8048  C 18.7712 40.6576  22.5536 38.0128  25.3712 35.0224  C 28.208 32.008  30.8144 28.72  32.4224 26.6032  L 39.8144 24.1264  L 45.7712 19.1344  Z " fill-rule="nonzero" fill="#ffffff" stroke="none" transform="matrix(1 0 0 1 1075 2783 )" />
  </g>
</svg>