<?xml version="1.0" encoding="utf-8"?>
<svg version="1.1" xmlns:xlink="http://www.w3.org/1999/xlink" width="22px" height="22px" xmlns="http://www.w3.org/2000/svg">
  <g transform="matrix(1 0 0 1 -569 -2794 )">
    <path d="M 21.8 11.199999984375  C 21.8 5.199999984375  17 0.600000000000001  11 0.600000000000001  C 5 0.600000000000001  0.200000000000001 5.4  0.200000000000001 11.4  C 0.200000000000001 17.4  5 21.999999984375  11 21.999999984375  C 17 21.999999984375  21.8 17.199999984375  21.8 11.199999984375  Z M 18.8 11.4  C 18.8 15.800000015625  15.2 18.999999984375  11 18.999999984375  C 6.8 18.999999984375  3.2 15.6  3.2 11.199999984375  C 3.2 6.79999996875  6.8 3.6  11 3.6  C 15.2 3.6  18.8 6.999999984375  18.8 11.4  Z " fill-rule="nonzero" fill="#ffffff" stroke="none" transform="matrix(1 0 0 1 569 2794 )" />
  </g>
</svg>