<?xml version="1.0" encoding="utf-8"?>
<svg version="1.1" xmlns:xlink="http://www.w3.org/1999/xlink" width="46px" height="46px" xmlns="http://www.w3.org/2000/svg">
  <g transform="matrix(1 0 0 1 -685 -2780 )">
    <path d="M 42.25175 34.291484375  C 43.372625 32.33  44.213234375 30.36846875  44.773671875 28.1268125  C 45.61428125 24.4840625  45.61428125 20.561046875  44.4935 16.918296875  C 44.21328125 16.0776875  43.9330625 15.23703125  43.652890625 14.11615625  C 41.69140625 9.91296875  38.609046875 5.989953125  34.125640625 3.468078125  C 29.642234375 0.946156249999998  24.878609375 0.105499999999998  20.114984375 0.665937499999998  C 19.274375 0.665937499999998  18.1535 0.946109374999998  17.31284375 1.226375  C 13.67009375 2.066984375  10.307515625 4.028515625  7.505375 6.5504375  C 5.824109375 7.951484375  4.703234375 9.63275  3.582359375 11.59428125  C 0.500046874999999 16.91834375  -0.0603906250000013 23.363234375  1.34065625 28.96746875  C 2.741703125 34.29153125  6.3845 39.335375  11.7085625 42.4176875  C 17.032625 45.5  22.917078125 46.0604375  28.521359375 44.659390625  C 34.125640625 43.25834375  39.1694375 39.895765625  42.251796875 34.291484375  Z M 41.411046875 29.808078125  C 37.768296875 31.209125  33.84528125 31.7695625  29.9223125 31.209125  C 30.48275 30.08825  30.762921875 28.967421875  31.323359375 28.1268125  C 33.84528125 23.64340625  37.48803125 20.561046875  41.691265625 18.31934375  C 42.812140625 21.96209375  42.812140625 25.885109375  41.41109375 29.808078125  Z M 19.83471875 30.928953125  C 21.796203125 32.049828125  24.03790625 32.8904375  25.999390625 33.17065625  C 25.15878125 36.25296875  24.878515625 39.335328125  25.15878125 42.4176875  C 21.51603125 42.978125  17.593015625 42.4176875  14.230484375 40.736421875  L 19.834765625 30.928953125  Z M 41.130828125 15.51725  C 36.086984375 17.758953125  31.883796875 21.681921875  29.081703125 26.725765625  C 28.24109375 28.1268125  27.68065625 29.52790625  27.12021875 30.928953125  C 25.158734375 30.368515625  23.197203125 29.808078125  21.5159375 28.68725  L 34.1255 6.83065625  C 37.488078125 9.072359375  39.72978125 12.15471875  41.130828125 15.51725  Z M 31.32340625 5.4295625  L 18.71384375 27.28615625  C 17.032578125 26.16528125  15.351265625 24.764234375  13.95021875 23.363140625  C 14.790828125 22.242265625  15.911703125 20.84121875  16.472140625 19.720390625  C 19.27428125 14.676546875  20.39515625 9.0723125  20.114890625 3.74825  C 24.03790625 3.1878125  27.960828125 3.74825  31.32340625 5.429515625  Z M 17.59296875 29.52790625  L 11.988734375 39.335375  C 8.62615625 37.093671875  6.384453125 34.0113125  4.98340625 30.64878125  C 7.785546875 29.247734375  10.30746875 27.56646875  12.549171875 25.32471875  C 13.95021875 27.005984375  15.631484375 28.40703125  17.593015625 29.52790625  Z M 17.59296875 4.308734375  C 17.8731875 9.072359375  16.752359375 13.835984375  14.230390625 18.319390625  C 13.669953125 19.440265625  12.82934375 20.280875  12.26890625 21.12153125  C 10.027203125 18.03921875  8.345890625 14.396421875  7.7855 10.473453125  C 10.587640625 7.391140625  13.950171875 5.149390625  17.59296875 4.30878125  Z M 5.8240625 13.555765625  C 6.664671875 16.91834375  8.345984375 20.280875  10.5876875 23.083015625  C 8.626203125 25.0445  6.3845 26.725765625  3.862578125 27.846640625  C 2.741703125 23.363234375  3.302140625 18.319390625  5.8240625 13.5558125  Z M 29.081703125 34.011265625  C 32.724453125 34.571703125  36.367203125 34.291484375  39.72978125 33.450828125  C 36.927640625 37.934234375  32.724453125 41.01659375  28.241046875 42.137421875  C 27.960875 39.33528125  28.241046875 36.533140625  29.08165625 34.01121875  Z " fill-rule="nonzero" fill="#ffffff" stroke="none" transform="matrix(1 0 0 1 685 2780 )" />
  </g>
</svg>