<?xml version="1.0" encoding="utf-8"?>
<svg version="1.1" xmlns:xlink="http://www.w3.org/1999/xlink" width="43px" height="43px" xmlns="http://www.w3.org/2000/svg">
  <g transform="matrix(1 0 0 1 -947 -2782 )">
    <path d="M 40.9193548387096 0.00134375000016007  L 40.9193548387096 0  L 13.1774193548387 6.046875  C 13.1774193548387 6.046875  11.0967741935484 6.50509375000001  11 8.0625  L 11 35.3809375000001  C 10.0564516129032 35.1000937499998  8.87880645161295 34.9375  7.62903225806451 34.9375  C 3.41503225806457 34.9375  0 36.7421562499999  0 38.96875  C 0 41.1953437500001  3.41503225806457 43  7.62903225806451 43  C 11.8430322580645 43  15.258064516129 41.1953437500001  16 38.96875  L 16 17.5520624999999  L 38 12.57078125  L 38 29.3354062500002  C 37.7983870967742 29.0545625  36.6207419354839 28.8919687500002  35.3709677419355 28.8919687500002  C 31.1569677419355 28.8919687500002  27.741935483871 30.696625  27.741935483871 32.9232187500002  C 27.741935483871 35.1498125000003  31.1569677419355 36.9544687500002  35.3709677419355 36.9544687500002  C 39.5849677419354 36.9544687500002  43 35.1498125000003  43 32.9232187500002  L 43 2.01696875000016  C 43 0.902999999999793  42.0678709677419 0.00134375000016007  40.9193548387096 0.00134375000016007  Z " fill-rule="nonzero" fill="#ffffff" stroke="none" transform="matrix(1 0 0 1 947 2782 )" />
  </g>
</svg>