<?xml version="1.0" encoding="utf-8"?>
<svg version="1.1" xmlns:xlink="http://www.w3.org/1999/xlink" width="48px" height="42px" xmlns="http://www.w3.org/2000/svg">
  <g transform="matrix(1 0 0 1 -556 -2782 )">
    <path d="M 47 9.999999984375  C 47.600000015625 6.999999984375  45.200000015625 4.599999984375  42.399999984375 5  L 25.400000015625 5  C 25.00000003125 2.199999984375  22.8 0.199999968749999  20.199999984375 0.200000015625  L 12.200000015625 0.200000015625  C 9.6 0.200000015625  7.400000015625 2.20000003125  6.999999984375 4.599999984375  L 5.600000015625 4.599999984375  C 2.799999984375 4.599999984375  0.399999984375 6.999999984375  1 9.999999984375  L 1 36.6  C 0.399999984375 39.6  2.799999984375 41.799999984375  5.600000015625 41  L 42.399999984375 41  C 45.399999984375 41.799999984375  47.59999996875 39.399999984375  47 36.6  L 47 9.999999984375  Z M 44 9.999999984375  L 44 36.399999984375  C 44.600000015625 37.599999984375  43.60000003125 38.59999996875  42.399999984375 38  L 5.600000015625 38  C 4.400000015625 38.600000015625  3.40000003125 37.60000003125  4 36.399999984375  L 4 9.999999984375  C 3.399999984375 8.799999984375  4.39999996875 7.8  5.600000015625 7.8  L 8.600000015625 7.8  C 9.40000003125 7.599999984375  10.00000003125 6.999999984375  9.999999984375 6.200000015625  L 9.999999984375 5.600000015625  C 9.999999984375 4.400000015625  10.99999996875 3.40000003125  12.200000015625 3.399999984375  L 20.199999984375 3.399999984375  C 21.399999984375 3.399999984375  22.39999996875 4.39999996875  22.400000015625 5.600000015625  L 22.400000015625 6.200000015625  C 22.400000015625 7.00000003125  23.000000015625 7.8  24 8  L 42.399999984375 8  C 43.599999984375 7.8  44.59999996875 8.799999984375  44 9.999999984375  Z " fill-rule="nonzero" fill="#ffffff" stroke="none" transform="matrix(1 0 0 1 556 2782 )" />
  </g>
</svg>