<?xml version="1.0" encoding="utf-8"?>
<svg version="1.1" xmlns:xlink="http://www.w3.org/1999/xlink" width="46px" height="46px" xmlns="http://www.w3.org/2000/svg">
  <g transform="matrix(1 0 0 1 -428 -2780 )">
    <path d="M 45.3078125 22.8140625  C 45.30625 10.4046875  35.2453125 0.34375  22.834375 0.34375  C 10.425 0.34375  0.3640625 10.4046875  0.3640625 22.8140625  C 0.3640625 35.221875  10.425 45.284375  22.8359375 45.284375  C 35.246875 45.284375  45.3078125 35.221875  45.3078125 22.8140625  Z M 6.41875 12.328125  C 7.1734375 11.146875  8.0578125 10.0484375  9.0640625 9.04375  C 10.640625 7.46875  12.4453125 6.1921875  14.4328125 5.2390625  C 12.9859375 7.165625  11.7796875 9.578125  10.9078125 12.328125  L 6.41875 12.328125  Z M 3.4171875 21.315625  C 3.571875 19.2453125  4.0546875 17.2390625  4.8515625 15.3234375  L 10.11875 15.3234375  C 9.7171875 17.215625  9.4640625 19.228125  9.38125 21.315625  L 3.4171875 21.315625  Z M 4.8515625 30.3046875  C 4.0515625 28.3890625  3.571875 26.3828125  3.4171875 24.3125  L 9.38125 24.3125  C 9.465625 26.4  9.7171875 28.4109375  10.11875 30.3046875  L 4.8515625 30.3046875  Z M 14.4328125 40.3890625  C 12.440625 39.4359375  10.6375 38.159375  9.0640625 36.5828125  C 8.065520750728 35.5880079583584  7.17850123572113 34.4872235513711  6.41875 33.3  L 10.9078125 33.3  C 11.7796875 36.05  12.984375 38.4609375  14.4328125 40.3890625  Z M 21.3359375 33.3  L 21.3359375 42.06875  C 20.653125 41.8734375  19.975 41.5359375  19.3140625 41.06875  C 18.0703125 40.190625  16.878125 38.8390625  15.8703125 37.1625  C 15.171875 36.0015625  14.571875 34.7078125  14.06875 33.3  L 21.3359375 33.3  Z M 21.3359375 24.3125  L 21.3359375 30.3046875  L 13.1890625 30.3046875  C 12.7375 28.3875  12.4671875 26.3796875  12.38125 24.3125  L 21.3359375 24.3125  Z M 21.3359375 15.3234375  L 21.3359375 21.315625  L 12.38125 21.315625  C 12.4671875 19.2484375  12.7390625 17.2421875  13.1890625 15.3234375  L 21.3359375 15.3234375  Z M 21.3359375 3.559375  L 21.3359375 12.328125  L 14.06875 12.328125  C 14.571875 10.91875  15.1734375 9.6296875  15.8703125 8.465625  C 16.878125 6.784375  18.0703125 5.434375  19.3140625 4.559375  C 19.978125 4.0921875  20.653125 3.75625  21.3359375 3.559375  Z M 24.3328125 12.328125  L 24.3328125 3.559375  C 25.015625 3.75625  25.69375 4.0921875  26.3546875 4.559375  C 27.5984375 5.4375  28.790625 6.7875  29.7984375 8.465625  C 30.496875 9.628125  31.096875 10.91875  31.6 12.328125  L 24.3328125 12.328125  Z M 24.3328125 21.315625  L 24.3328125 15.3234375  L 32.4796875 15.3234375  C 32.9296875 17.240625  33.2015625 19.2484375  33.2875 21.315625  L 24.3328125 21.315625  Z M 24.3328125 30.3046875  L 24.3328125 24.3125  L 33.2875 24.3125  C 33.2015625 26.3796875  32.9296875 28.3859375  32.4796875 30.3046875  L 24.3328125 30.3046875  Z M 29.8 37.1625  C 28.79375 38.8421875  27.6015625 40.19375  26.3578125 41.06875  C 25.69375 41.5359375  25.01875 41.8734375  24.3359375 42.06875  L 24.3328125 33.3  L 31.6 33.3  C 31.096875 34.7078125  30.4953125 36  29.8 37.1625  Z M 39.253125 33.3  C 38.4953125 34.4796875  37.6125 35.5796875  36.60625 36.5828125  C 35.0296875 38.159375  33.225 39.4359375  31.2375 40.3890625  C 32.684375 38.4609375  33.8921875 36.05  34.7640625 33.3  L 39.253125 33.3  Z M 42.2515625 24.3125  C 42.0984375 26.3828125  41.615625 28.3890625  40.8171875 30.3046875  L 35.55 30.3046875  C 35.9515625 28.4109375  36.2046875 26.4  36.2875 24.3125  L 42.2515625 24.3125  Z M 40.81875 15.3234375  C 41.6171875 17.2390625  42.0984375 19.2453125  42.253125 21.315625  L 36.2890625 21.315625  C 36.2046875 19.228125  35.953125 17.215625  35.5515625 15.3234375  L 40.81875 15.3234375  Z M 39.25 12.328125  L 34.7625 12.328125  C 33.890625 9.578125  32.6859375 7.165625  31.2359375 5.2390625  C 33.228125 6.19375  35.03125 7.46875  36.6046875 9.04375  C 37.6109375 10.0484375  38.4953125 11.146875  39.25 12.328125  Z " fill-rule="nonzero" fill="#ffffff" stroke="none" transform="matrix(1 0 0 1 428 2780 )" />
  </g>
</svg>