<?xml version="1.0" encoding="utf-8"?>
<svg version="1.1" xmlns:xlink="http://www.w3.org/1999/xlink" width="41px" height="39px" xmlns="http://www.w3.org/2000/svg">
  <g transform="matrix(1 0 0 1 -821 -2784 )">
    <path d="M 40.2937309804614 34.796162902301  C 40.2937856 34.7961648  39.3231728 34.7961648  36.53984 34.7961648  C 34.7525936 34.7961648  33.525584 33.3017856  32.8761728 32.2320624  C 36.2697248 28.8481968  38.3697776 24.1678176  38.3697776 18.9968256  C 38.3697776 8.674224  30.0013184 0.306105600000001  19.6788176 0.306105600000001  C 9.3552176 0.306105600000001  0.986566400000003 8.674224  0.986566400000003 18.9968256  C 0.986566400000003 29.3194752  9.3552176 37.6875456  19.6788176 37.6875456  C 23.1165488 37.6875456  26.3373584 36.7591824  29.1046688 35.1398976  C 30.9151328 37.6624128  34.986008 38.6800896  34.986008 38.6800896  L 40.2937309804614 38.6800896  L 40.2937309804614 34.796162902301  Z M 14.5828832 19.0006176  C 14.5828352 21.816264  12.2997776 24.0985056  9.485312 24.0985056  C 6.6695552 24.0985056  4.3866416 21.8162592  4.3866416 19.0006176  C 4.3866416 16.185504  6.6695072 13.9034976  9.485312 13.9034976  C 12.2997728 13.9034976  14.5828832 16.185504  14.5828832 19.0006176  Z M 24.790112 29.2087248  C 24.7900592 32.0237904  22.5082976 34.3058928  19.6927328 34.3058928  C 16.876976 34.3058928  14.5952096 32.0238384  14.5952096 29.2087248  C 14.5952096 26.3930832  16.8769232 24.1110288  19.6927328 24.1110288  C 22.5082976 24.1110288  24.790112 26.3930832  24.790112 29.2087248  Z M 19.693832 21.6961488  C 18.2052944 21.6961488  16.9981904 20.4896256  16.9981904 19.0011456  C 16.9981904 17.5126656  18.2052944 16.3063344  19.693832 16.3063344  C 21.1823696 16.3063344  22.3894736 17.5126224  22.3894736 19.0011456  C 22.3894736 20.4896688  21.1823696 21.6961488  19.693832 21.6961488  Z M 24.790112 8.3942928  C 24.790112 11.2095984  22.5082976 13.4918448  19.6927328 13.4918448  C 16.876976 13.4918448  14.5952096 11.2095984  14.5952096 8.3942928  C 14.5952096 5.5789872  16.8769232 3.2967888  19.6927328 3.2967888  C 22.5082976 3.2967888  24.790112 5.5789872  24.790112 8.3942928  Z M 30.2991152 24.0984576  C 27.4844096 24.0985056  25.201544 21.816264  25.201544 19.0005696  C 25.201544 16.185456  27.4844096 13.9034496  30.2991152 13.9034496  C 33.114824 13.9034496  35.3975456 16.185456  35.3975456 19.0005696  C 35.3975456 21.8162112  33.114824 24.0984576  30.2991152 24.0984576  Z " fill-rule="nonzero" fill="#ffffff" stroke="none" transform="matrix(1 0 0 1 821 2784 )" />
  </g>
</svg>