<?xml version="1.0" encoding="utf-8"?>
<svg version="1.1" xmlns:xlink="http://www.w3.org/1999/xlink" width="20px" height="20px" xmlns="http://www.w3.org/2000/svg">
  <g transform="matrix(1 0 0 1 -533 -828 )">
    <path d="M 543 831.5  C 546.64 831.5  549.5 834.36  549.5 838  C 549.5 841.64  546.64 844.5  543 844.5  C 539.36 844.5  536.5 841.64  536.5 838  C 536.5 834.36  539.36 831.5  543 831.5  Z " fill-rule="nonzero" fill="#3091f2" stroke="none" />
    <path d="M 543 830  C 547.48 830  551 833.52  551 838  C 551 842.48  547.48 846  543 846  C 538.52 846  535 842.48  535 838  C 535 833.52  538.52 830  543 830  Z " stroke-width="4" stroke="#3091f2" fill="none" stroke-opacity="0.498039215686275" />
  </g>
</svg>