<?xml version="1.0" encoding="utf-8"?>
<svg version="1.1" xmlns:xlink="http://www.w3.org/1999/xlink" width="22px" height="18px" xmlns="http://www.w3.org/2000/svg">
  <g transform="matrix(1 0 0 1 -39 -1149 )">
    <path d="M 13.5885409765625 9.7548881953125  C 13.5885409765625 10.396764984375  13.075025140625 10.9139023828125  12.4443727109375 10.9139023828125  C 11.8135763984375 10.9139023828125  11.3000125859375 10.3967650078125  11.3000125859375 9.7548881953125  C 11.3000125859375 9.1166089453125  11.8135763984375 8.5994715703125  12.4443727109375 8.5994715703125  C 13.0750251171875 8.5994715703125  13.5885409765625 9.1166089453125  13.5885409765625 9.7548881953125  Z M 19.267338734375 15.978668484375  C 20.62263584375 14.9469359765625  21.4764569609375 13.4313075703125  21.4764569609375 11.7409816171875  C 21.4764569609375 8.765415046875  18.8273330703125 6.3290748984375  15.46972953125 6.1190253046875  C 15.31263603125 6.1104391171875  15.1551827890625 6.1045151484375  14.9978254765625 6.1045151484375  C 11.418756078125 6.1045151484375  8.5188582265625 8.6284439296875  8.5188582265625 11.7410056171875  C 8.5188582265625 12.2103913828125  8.5859887109375 12.664931203125  8.7111838203125 13.09918078125  C 9.407647625 15.55629084375  11.9577906171875 17.3777838515625  14.9978254765625 17.3777838515625  C 16.032292109375 17.3777838515625  17.0085502109375 17.1677582578125  17.87405140625 16.7917891640625  L 19.3283773671875 17.7856513359375  C 19.3283773671875 17.7856513359375  19.71614646875 18.056643609375  19.678300109375 17.5349013515625  L 19.267338734375 15.978668484375  Z M 8.0554204765625 11.7410775234375  C 8.0554204296875 8.3749118203125  11.1708601484375 5.63510540625  14.9978254765625 5.63510540625  C 15.137530765625 5.63510540625  15.274405953125 5.64117328125  15.41164090625 5.6470972734375  C 14.8782185703125 2.4963774609375  11.759732890625 0.0771856640624997  7.9914078359375 0.0771856640624997  C 3.8499677421875 0.0771856640624997  0.492364179687499 3.0007315078125  0.492364179687499 6.602801296875  C 0.492364179687499 8.6110077421875  1.5357767421875 10.4062145859375  3.173746203125 11.6040824296875  L 2.6198657421875 13.6937376328125  C 2.6198657421875 13.6937376328125  2.4306100625 14.387347359375  3.14755596875 14.0757746015625  L 5.213875015625 12.6648831796875  C 6.0736201015625 12.9651356015625  7.0092017890625 13.131390890625  7.991407859375 13.131390890625  C 8.075878578125 13.131390890625  8.157327359375 13.125442921875  8.2389680234375 13.125442921875  C 8.119481046875 12.6793933359375  8.0554204765625 12.21607546875  8.0554204765625 11.7410775234375  Z M 19.1055684453125 9.7540487578125  C 19.105568421875 10.395949546875  18.5920525859375 10.9130629453125  17.9614001796875 10.9130629453125  C 17.3306038671875 10.9130629453125  16.8170400546875 10.3959255703125  16.8170400546875 9.7540487578125  C 16.8170400546875 9.1157695078125  17.3306038671875 8.5986321328125  17.9614001796875 8.5986321328125  C 18.5920525859375 8.5986321328125  19.1055684453125 9.1157695078125  19.1055684453125 9.7540487578125  Z M 5.620039625 4.5511842890625  C 5.6200396015625 5.1930611015625  5.106523765625 5.7101984765625  4.475871359375 5.7101984765625  C 3.845075046875 5.7101984765625  3.331511234375 5.1930611015625  3.331511234375 4.5511842890625  C 3.331511234375 3.9129050390625  3.845075046875 3.3957676640625  4.475871359375 3.3957676640625  C 5.106523765625 3.3957676640625  5.620039625 3.9129050390625  5.620039625 4.5511842890625  Z M 12.3921361484375 4.550344875  C 12.392136125 5.1922456640625  11.8786202890625 5.7093590625  11.2479678828125 5.7093590625  C 10.6171715703125 5.7093590625  10.1036077578125 5.1922216875  10.1036077578125 4.550344875  C 10.1036077578125 3.912065625  10.6171715703125 3.39492825  11.2479678828125 3.39492825  C 11.8786202890625 3.39492825  12.3921361484375 3.912065625  12.3921361484375 4.550344875  Z " fill-rule="nonzero" fill="#ffffff" stroke="none" transform="matrix(1 0 0 1 39 1149 )" />
  </g>
</svg>