<?xml version="1.0" encoding="utf-8"?>
<svg version="1.1" xmlns:xlink="http://www.w3.org/1999/xlink" width="24px" height="19px" xmlns="http://www.w3.org/2000/svg">
  <g transform="matrix(1 0 0 1 -39 -1208 )">
    <path d="M 17.4213515625 9.1445546875  L 17.421421875 9.146875  C 17.162703125 9.09503125  16.9947265625 9.0175234375  16.9174921875 8.9143515625  C 16.8402578125 8.8111796875  16.827296875 8.716296875  16.878609375 8.629703125  L 16.956375 8.500609375  C 16.97346875 8.483515625  16.99084375 8.45759375  17.0085 8.42284375  C 17.02615625 8.38809375  17.060640625 8.3147265625  17.111953125 8.2027421875  C 17.163265625 8.0907578125  17.20215625 7.9787734375  17.228625 7.8667890625  C 17.25509375 7.7548046875  17.2766015625 7.6168984375  17.2931484375 7.4530703125  C 17.3096953125 7.2892421875  17.3052890625 7.133953125  17.2799296875 6.987203125  C 17.2545703125 6.840453125  17.2027109375 6.6810234375  17.1243515625 6.5089140625  C 17.0459921875 6.3368046875  16.938140625 6.181515625  16.800796875 6.043046875  C 16.5591875 5.8014375  16.24446875 5.6461484375  15.856640625 5.5771796875  C 15.4688125 5.5082109375  15.0809921875 5.5038046875  14.6931796875 5.5639609375  C 14.3053671875 5.6241171875  13.939078125 5.701625  13.5943125 5.796484375  C 13.249546875 5.89134375  12.965171875 5.9818203125  12.7411875 6.0679140625  L 12.405234375 6.2234921875  C 12.232578125 6.2753359375  12.09025 6.3098203125  11.97825 6.3269453125  C 11.86625 6.3440703125  11.779921875 6.3396640625  11.719265625 6.3137265625  C 11.658609375 6.2877890625  11.6111640625 6.2618671875  11.5769296875 6.2359609375  C 11.5426953125 6.2100546875  11.529734375 6.1496484375  11.538046875 6.0547421875  C 11.546359375 5.9598359375  11.55490625 5.877921875  11.5636875 5.809  C 11.57246875 5.740078125  11.5939765625 5.6322265625  11.6282109375 5.4854453125  C 11.6624453125 5.3386640625  11.6883671875 5.222265625  11.7059765625 5.13625  C 11.7059765625 4.929390625  11.693015625 4.7354921875  11.66709375 4.5545546875  C 11.641171875 4.3736171875  11.5851796875 4.1711640625  11.4991171875 3.9471953125  C 11.4130546875 3.7232265625  11.2881015625 3.54228125  11.1242578125 3.404359375  C 10.9604140625 3.2664375  10.7535390625 3.154453125  10.5036328125 3.06840625  C 10.2537265625 2.982359375  9.93045312500001 2.9564375  9.5338125 2.990640625  C 9.13717187500001 3.02484375  8.688953125 3.1282734375  8.18915625 3.3009296875  C 7.58565625 3.5077890625  6.973609375 3.8136796875  6.353015625 4.2186015625  C 5.73242187500001 4.6235234375  5.19374218750001 5.0458046875  4.7369765625 5.4854453125  C 4.28021093750001 5.9250859375  3.8620625 6.3517890625  3.48253125 6.7655546875  C 3.10300000000001 7.1793203125  2.80979687500001 7.5155546875  2.602921875 7.7742578125  L 2.3182734375 8.1879765625  C 1.7495234375 8.9293984375  1.3272421875 9.6708125  1.0514296875 10.41221875  C 0.775617187500005 11.153625  0.646257812500005 11.7138359375  0.663351562500005 12.0928515625  L 0.663351562500005 12.6356875  C 0.767070312500005 13.46315625  1.021375 14.2045703125  1.426265625 14.8599296875  C 1.83115625 15.5152890625  2.3138515625 16.045421875  2.8743515625 16.450328125  C 3.4348515625 16.855234375  4.09434375 17.200015625  4.852828125 17.484671875  C 5.61131250000001 17.769328125  6.33976562500001 17.976203125  7.0381875 18.105296875  C 7.736609375 18.234390625  8.47361718750001 18.3248671875  9.2492109375 18.3767265625  C 10.5251796875 18.4804453125  11.8483046875 18.381421875  13.2185859375 18.07965625  C 14.5888671875 17.777890625  15.8645625 17.2563046875  17.045671875 16.5148984375  C 18.22678125 15.7734921875  19.0586640625 14.885609375  19.5413203125 13.85125  C 19.8342421875 13.24775  19.985125 12.67871875  19.99396875 12.14415625  C 20.0028125 11.60959375  19.9123359375 11.17434375  19.7225390625 10.83840625  C 19.5327421875 10.50246875  19.286984375 10.205125  18.985265625 9.946375  C 18.683546875 9.687625  18.399171875 9.497859375  18.132140625 9.377078125  C 17.865109375 9.256296875  17.6281796875 9.17878906249999  17.4213515625 9.1445546875  Z M 9.5355703125 17.188234375  L 9.53475 17.1891015625  C 7.6729375 17.2751640625  6.0913515625 16.9130078125  4.7899921875 16.1026328125  C 3.4886328125 15.2922578125  2.83796875 14.26646875  2.838 13.025265625  C 2.838 11.801171875  3.48453125 10.7453125  4.77759375 9.8576875  C 6.07065625 8.9700625  7.6566484375 8.482953125  9.5355703125 8.396359375  C 11.4144921875 8.309765625  13.000484375 8.6200625  14.293546875 9.32725  C 15.586609375 10.0344375  16.233140625 10.9998203125  16.233140625 12.2233984375  C 16.233140625 13.4646171875  15.5736484375 14.5808828125  14.2546640625 15.5721953125  C 12.9356796875 16.5635078125  11.3626484375 17.1021875  9.5355703125 17.188234375  Z M 8.7842578125 10.02484375  L 8.785078125 10.025640625  C 8.285296875 10.077484375  7.837078125 10.1938828125  7.440421875 10.3748359375  C 7.043765625 10.5557890625  6.73346875 10.7626640625  6.50953125 10.9954609375  C 6.28559375 11.2282578125  6.095828125 11.4781484375  5.940234375 11.7451328125  C 5.784640625 12.0121171875  5.6767890625 12.2749765625  5.6166796875 12.5337109375  C 5.5565703125 12.7924453125  5.5176796875 13.029375  5.5000078125 13.2445  C 5.4823359375 13.459625  5.4737890625 13.6276015625  5.4743671875 13.7484296875  L 5.5000078125 13.9553125  L 5.5000078125 14.058765625  C 5.5000078125 14.110609375  5.5173828125 14.2140390625  5.5521328125 14.3690546875  C 5.5868828125 14.5240703125  5.634328125 14.6663984375  5.69446875 14.7960390625  C 5.754609375 14.9256796875  5.8536328125 15.0680078125  5.9915390625 15.2230234375  C 6.1294453125 15.3780390625  6.2932890625 15.5073984375  6.4830703125 15.6111015625  C 7.6211328125 16.1627578125  8.6813984375 16.330734375  9.6638671875 16.11503125  C 10.6463359375 15.899328125  11.439328125 15.4036796875  12.04284375 14.6280859375  C 12.284453125 14.3351640625  12.4438828125 13.9730078125  12.5211328125 13.5416171875  C 12.5983828125 13.1102265625  12.5810078125 12.6749765625  12.4690078125 12.2358671875  C 12.3570078125 11.7967578125  12.163109375 11.395984375  11.8873125 11.033546875  C 11.611515625 10.671109375  11.2021875 10.3908671875  10.659328125 10.1928203125  C 10.11646875 9.9947734375  9.4914453125 9.93878125  8.7842578125 10.02484375  Z M 7.854984375 14.9119609375  L 7.854140625 14.9135546875  C 7.750421875 14.9306484375  7.6513984375 14.9350546875  7.5570703125 14.9267734375  C 7.4627421875 14.9184921875  7.3764140625 14.9011171875  7.2980859375 14.8746484375  C 7.2197578125 14.8481796875  7.14225 14.818125  7.0655625 14.784484375  C 6.988875 14.75084375  6.9243359375 14.7033984375  6.8719453125 14.6421484375  C 6.8195546875 14.5808984375  6.772109375 14.5204921875  6.729609375 14.4609296875  C 6.687109375 14.4013671875  6.652625 14.33240625  6.62615625 14.254046875  C 6.5996875 14.1756875  6.5867265625 14.0937734375  6.5872734375 14.0083046875  C 6.5872734375 13.8185390625  6.6391328125 13.6331875  6.7428515625 13.45225  C 6.8465703125 13.2713125  6.9888984375 13.1160234375  7.1698359375 12.9863828125  C 7.3507734375 12.8567421875  7.5532265625 12.783375  7.7771953125 12.76628125  C 7.9322109375 12.7491875  8.08309375 12.75359375  8.22984375 12.7795  C 8.37659375 12.80540625  8.501546875 12.8484375  8.604703125 12.90859375  C 8.707859375 12.96875  8.7983359375 13.0377109375  8.8761328125 13.1154765625  C 8.9539296875 13.1932421875  9.009921875 13.28371875  9.044109375 13.38690625  C 9.078296875 13.49009375  9.095671875 13.602078125  9.096234375 13.722859375  C 9.096234375 13.912625  9.0402421875 14.0935703125  8.9282578125 14.2656953125  C 8.8162734375 14.4378203125  8.665390625 14.58428125  8.475609375 14.705078125  C 8.285828125 14.825875  8.078953125 14.8948359375  7.854984375 14.9119609375  Z M 10.051921875 13.0517265625  C 9.931109375 13.1377890625  9.80615625 13.1766796875  9.6770625 13.1683984375  C 9.54796875 13.1601171875  9.4574921875 13.104125  9.4056328125 13.000421875  L 9.3535078125 12.89696875  C 9.3364140625 12.86221875  9.3278671875 12.827734375  9.3278671875 12.793515625  L 9.3278671875 12.6900625  C 9.3278671875 12.63821875  9.3364140625 12.5951875  9.3535078125 12.56096875  L 9.4056328125 12.457515625  C 9.4227265625 12.422765625  9.4486484375 12.39684375  9.4833984375 12.37975  L 9.5611640625 12.276296875  C 9.6990859375 12.172578125  9.8325859375 12.129546875  9.9616640625 12.147203125  C 10.0907421875 12.164859375  10.18121875 12.2338203125  10.23309375 12.3540859375  C 10.2849375 12.4230546875  10.3064453125 12.5005625  10.2976171875 12.586609375  C 10.2887890625 12.67265625  10.2628671875 12.7545703125  10.2198515625 12.8323515625  C 10.1768359375 12.9101328125  10.12084375 12.9835  10.051875 13.052453125  Z M 19.2311484375 7.645890625  L 19.231921875 7.6466640625  C 19.335640625 7.6466640625  19.4305234375 7.6207421875  19.5165703125 7.5688984375  C 19.6026171875 7.5170546875  19.671578125 7.452515625  19.723453125 7.37528125  C 19.775328125 7.298046875  19.8098125 7.2161328125  19.82690625 7.1295390625  C 19.844 7.1124453125  19.852546875 7.0865234375  19.852546875 7.0517734375  C 20.05940625 5.0862421875  19.3698359375 3.9655703125  17.7838359375 3.6897578125  C 17.3182421875 3.6036953125  16.8871328125 3.5951484375  16.4905078125 3.6641171875  C 16.3696953125 3.6641171875  16.266265625 3.694171875  16.18021875 3.75428125  C 16.094171875 3.814390625  16.0208046875 3.8918984375  15.9601171875 3.9868046875  C 15.8994296875 4.0817109375  15.869375 4.180734375  15.869953125 4.283875  C 15.869953125 4.45653125  15.930359375 4.6029921875  16.051171875 4.7232578125  C 16.171984375 4.8435234375  16.3184453125 4.9039296875  16.4905546875 4.9044765625  C 17.8354765625 4.5938984375  18.559515625 5.0250078125  18.662671875 6.1978046875  C 18.697421875 6.4907265625  18.680046875 6.7665546875  18.610546875 7.0252890625  C 18.610546875 7.1979453125  18.670953125 7.34440625  18.791765625 7.464671875  C 18.912578125 7.5849375  19.0590390625 7.64534375  19.2311484375 7.645890625  Z M 18.7925390625 0.354953125  C 18.0340234375 0.182296875  17.01678125 0.21678125  15.7408125 0.45840625  C 15.72371875 0.45840625  15.70634375 0.466953125  15.6886875 0.484046875  L 15.663046875 0.536171875  L 15.63740625 0.5618125  C 15.447640625 0.61365625  15.2923515625 0.7215078125  15.1715390625 0.8853671875  C 15.0507265625 1.0492265625  14.9903203125 1.2260234375  14.9903203125 1.4157578125  C 14.9903203125 1.6744765625  15.0766484375 1.8898984375  15.2493046875 2.0620234375  C 15.4219609375 2.2341484375  15.6288359375 2.3204765625  15.8699296875 2.3210078125  L 15.9476953125 2.3210078125  C 15.9647890625 2.3210078125  16.0036796875 2.3124609375  16.0643671875 2.2953671875  C 16.1250546875 2.2782734375  16.18959375 2.2653125  16.257984375 2.256484375  C 16.326375 2.24765625  16.3997421875 2.23028125  16.4780859375 2.204359375  C 16.5564296875 2.1784375  16.625390625 2.152515625  16.68496875 2.12659375  C 16.744546875 2.100671875  16.8609453125 2.0877109375  17.0341640625 2.0877109375  C 17.2073828125 2.0877109375  17.4186640625 2.100671875  17.6680078125 2.12659375  C 17.9173515625 2.152515625  18.1931796875 2.2170546875  18.4954921875 2.3202109375  C 18.7978046875 2.4233671875  19.0995546875 2.5527265625  19.4007421875 2.7082890625  C 19.7019296875 2.8638515625  20.0036796875 3.0792734375  20.3059921875 3.3545546875  C 20.6083046875 3.6298359375  20.8711640625 3.9486875  21.0945703125 4.311109375  C 21.5430703125 5.328359375  21.6293984375 6.311125  21.3535546875 7.25940625  C 21.3535546875 7.2765  21.3491484375 7.293875  21.3403359375 7.31153125  C 21.3315234375 7.3291875  21.3185625 7.37221875  21.301453125 7.440625  C 21.28434375 7.50903125  21.26696875 7.5735703125  21.249328125 7.6342421875  C 21.2316875 7.6949140625  21.2143125 7.772421875  21.197203125 7.866765625  C 21.18009375 7.961109375  21.171546875 8.0430234375  21.1715625 8.1125078125  C 21.1715625 8.2675234375  21.21459375 8.3968828125  21.30065625 8.5005859375  C 21.38671875 8.6042890625  21.4945703125 8.67765625  21.6242109375 8.7206875  C 21.7538515625 8.76371875  21.904734375 8.7852265625  22.076859375 8.7852109375  C 22.5595625 8.7852109375  22.8439375 8.4920078125  22.929984375 7.9056015625  C 23.13684375 7.2331328125  23.2532421875 6.5910078125  23.2791796875 5.9792265625  C 23.3051171875 5.3674453125  23.2620859375 4.828765625  23.1500859375 4.3631875  C 23.0380859375 3.897609375  22.870109375 3.462359375  22.64615625 3.0574375  C 22.422203125 2.652515625  22.163484375 2.307734375  21.87 2.02309375  C 21.576515625 1.738453125  21.2488359375 1.479734375  20.8869609375 1.2469375  C 20.5250859375 1.014140625  20.175890625 0.828789062500001  19.839375 0.6908828125  C 19.502859375 0.5529765625  19.1536640625 0.4409921875  18.7917890625 0.3549296875  Z " fill-rule="nonzero" fill="#ffffff" stroke="none" transform="matrix(1 0 0 1 39 1208 )" />
  </g>
</svg>