<?xml version="1.0" encoding="utf-8"?>
<svg version="1.1" xmlns:xlink="http://www.w3.org/1999/xlink" width="18px" height="22px" xmlns="http://www.w3.org/2000/svg">
  <g transform="matrix(1 0 0 1 -41 -967 )">
    <path d="M 9 0.515  C 4.36125 0.515  0.6015 4.2755  0.6015 8.9135  C 0.6015 13.553  6.17175 21.45275  9 21.45275  C 11.85375 21.45275  17.3985 13.553  17.3985 8.9135  C 17.3985 4.27475  13.63875 0.515  9 0.515  Z M 9 13.124  C 6.675 13.124  4.79025 11.23775  4.79025 8.9135  C 4.79025 6.58925  6.675 4.70375  9 4.70375  C 11.325 4.70375  13.20975 6.5885  13.20975 8.91275  C 13.20975 11.237  11.325 13.124  9 13.124  Z " fill-rule="nonzero" fill="#ffffff" stroke="none" transform="matrix(1 0 0 1 41 967 )" />
  </g>
</svg>