<?xml version="1.0" encoding="utf-8"?>
<svg version="1.1" xmlns:xlink="http://www.w3.org/1999/xlink" width="20px" height="22px" xmlns="http://www.w3.org/2000/svg">
  <g transform="matrix(1 0 0 1 -40 -1027 )">
    <path d="M 12.187264 0.950216  C 12.1354 0.939248  12.084016 0.933248  12.032608 0.931016  C 11.569624 0.913304  11.164552 1.229864  11.071264 1.684592  C 11.019832 1.931312  11.06776 2.183504  11.206912 2.394776  C 11.345608 2.605808  11.558152 2.75  11.805112 2.800376  C 13.793224 3.210728  15.504928 4.37288  16.624456 6.072632  C 17.74348 7.773128  18.133624 9.804368  17.72452 11.792456  C 17.673112 12.039944  17.721016 12.291632  17.860192 12.5024  C 17.998888 12.713432  18.211432 12.85736  18.458392 12.908504  C 18.510256 12.918728  18.562672 12.924992  18.613552 12.927464  C 18.811624 12.934952  19.003168 12.881048  19.16884 12.772304  C 19.379848 12.633368  19.52404 12.420584  19.57492 12.173864  C 20.631568 7.042976  17.317936 2.007632  12.187264 0.950216  Z M 13.813696 15.140792  C 13.869544 15.177224  15.116296 15.977696  16.074208 16.961504  C 16.43488 17.333672  17.039056 17.956304  17.023072 18.678704  C 17.009608 19.17212  16.731232 19.667024  16.17148 20.18936  C 16.03228 20.32604  14.785528 21.490496  12.790984 21.490496  C 12.244672 21.490496  11.683432 21.403688  11.122672 21.233024  C 10.533472 21.05444  9.934288 20.778512  9.3436 20.41436  C 7.01128 19.036904  5.211256 17.263328  3.502048 14.661848  C 0.564064 10.19072  0.479728000000001 6.361448  0.493216 5.639792  C 0.498208 2.309192  3.27208 0.999080000000002  3.588352 0.860384000000001  C 4.0234 0.658592000000001  4.40356 0.561536000000001  4.753768 0.561536000000001  C 4.921408 0.561536000000001  5.082064 0.584240000000001  5.23072 0.629648000000001  C 5.536528 0.722432000000001  5.961112 0.962888000000001  6.246472 1.581032  C 6.635608 2.419664  7.003816 3.622016  7.25524 4.88072  C 7.519672 6.187088  6.787264 6.55376  6.078856 6.90824  L 6.050896 6.920456  C 6.050896 6.920456  4.797664 7.44332  4.577176 7.534112  C 4.360648 7.6244  4.247896 7.86836  4.32172 8.091368  C 4.827112 9.622472  5.598904 11.210216  6.552784 12.682928  C 7.491208 14.132  8.607232 15.46928  9.779632 16.551872  C 9.86344 16.628216  9.9712 16.671104  10.084984 16.671104  L 10.123408 16.669112  C 10.246624 16.659152  10.36288 16.596776  10.440208 16.497512  C 10.630744 16.252568  10.923112 15.899576  11.23144 15.605984  C 11.816128 15.049976  12.344944 14.780072  12.847864 14.780072  C 12.985552 14.780072  13.12228 14.80028  13.253968 14.840456  C 13.380136 14.879144  13.584184 14.988896  13.813696 15.140792  Z M 9.846472 8.695808  C 9.599008 8.644424  9.386464 8.500736  9.247792 8.289968  C 9.108088 8.078936  9.060208 7.82648  9.111088 7.57904  C 9.205888 7.124792  9.609976 6.807992  10.072456 6.826448  C 10.123864 6.82796  10.175752 6.834176  10.227592 6.844904  C 12.420256 7.29692  13.83664 9.449648  13.385104 11.64332  C 13.334704 11.889248  13.19104 12.101528  12.980008 12.241472  C 12.81388 12.349976  12.621328 12.403616  12.424744 12.396632  C 12.37384 12.39392  12.321952 12.388136  12.270088 12.377168  C 12.02212 12.327032  11.80912 12.182336  11.670424 11.971064  C 11.531728 11.760776  11.483824 11.509088  11.534728 11.261648  C 11.651464 10.693904  11.540728 10.114184  11.2204 9.62876  C 10.901128 9.14432  10.413688 8.812568  9.846472 8.695808  Z M 13.9324 7.843928  C 13.211008 6.74864  12.109456 6.000056  10.828288 5.736368  C 10.318408 5.6306  9.989128 5.130464  10.093888 4.620824  C 10.18768 4.165592  10.591792 3.848528  11.054776 3.866504  C 11.105632 3.868736  11.158048 3.874736  11.209912 3.885704  C 12.984472 4.251632  14.511136 5.288336  15.510928 6.806216  C 16.509208 8.323112  16.857904 10.135832  16.491736 11.910416  C 16.440832 12.15788  16.29664 12.370904  16.085608 12.508856  C 15.919504 12.618368  15.728416 12.671984  15.530872 12.664256  C 15.47944 12.662  15.427096 12.65576  15.375208 12.644792  C 14.866336 12.540296  14.536576 12.039896  14.641336 11.529272  C 14.905264 10.248872  14.653816 8.939768  13.9324 7.843928  Z " fill-rule="nonzero" fill="#ffffff" stroke="none" transform="matrix(1 0 0 1 40 1027 )" />
  </g>
</svg>