<?xml version="1.0" standalone="no"?><!DOCTYPE svg PUBLIC "-//W3C//DTD SVG 1.1//EN" "http://www.w3.org/Graphics/SVG/1.1/DTD/svg11.dtd"><svg t="1532866056990" class="icon" style="" viewBox="0 0 1024 1024" version="1.1" xmlns="http://www.w3.org/2000/svg" p-id="24267" xmlns:xlink="http://www.w3.org/1999/xlink" width="48" height="48"><defs><style type="text/css"></style></defs><path d="M714.24 1023.488c-171.008 0-309.76-138.752-309.76-309.76S543.232 404.48 714.24 404.48 1024 542.72 1024 713.728s-138.752 309.76-309.76 309.76z m0-565.248c-141.312 0-256 114.688-256 256s114.688 256 256 256 256-114.688 256-256-114.688-256-256-256z m-538.624 322.56h134.656c7.68 0 13.312 6.144 13.312 13.312v27.136c0 7.68-6.144 13.312-13.312 13.312h-134.656c-7.68 0-13.312-6.144-13.312-13.312v-27.136c0-7.168 6.144-13.312 13.312-13.312z m-13.312-175.104c0-7.68 6.144-13.312 13.312-13.312h134.656c7.68 0 13.312 6.144 13.312 13.312v27.136c0 7.68-6.144 13.312-13.312 13.312h-134.656c-7.68 0-13.312-6.144-13.312-13.312v-27.136z m0-349.696v-27.136c0-7.68 6.144-13.312 13.312-13.312h458.24c7.68 0 13.312 6.144 13.312 13.312v27.136c0 7.68-6.144 13.312-13.312 13.312h-458.24c-7.168 0-13.312-5.632-13.312-13.312z m228.864 202.24h-215.552c-7.68 0-13.312-6.144-13.312-13.312v-27.136c0-7.68 6.144-13.312 13.312-13.312h215.552c7.68 0 13.312 6.144 13.312 13.312v27.136c0 7.168-5.632 13.312-13.312 13.312z m363.52-215.552c-14.848 0-27.136-12.288-27.136-27.136v-134.656c0-14.848-12.288-27.136-27.136-27.136h-619.52c-14.848 0-27.136 12.288-27.136 27.136v861.696c0 14.848 12.288 27.136 27.136 27.136h296.448c14.848 0 27.136 12.288 27.136 27.136s-12.288 27.136-27.136 27.136h-323.584c-29.696 0-53.76-24.064-53.76-53.76v-916.48c0-29.696 24.064-53.76 53.76-53.76H727.552c29.696 0 53.76 24.064 53.76 53.76v161.792c0 14.848-11.776 27.136-26.624 27.136z" fill="#999999" p-id="24268"></path><path d="M818.688 865.28c-27.648 0-50.688-21.504-53.248-48.64h-111.616c-2.56 27.136-25.6 48.64-53.248 48.64s-50.688-21.504-53.248-48.64h-7.168c-9.728 0-17.408-7.68-17.408-17.408v-97.28c0-4.096 1.536-8.192 4.608-11.264 0-0.512 0.512-1.536 1.536-2.048l71.168-71.168c3.072-3.072 7.68-5.12 12.288-5.12h56.32c2.56-27.136 25.6-48.64 53.248-48.64h121.344c29.696 0 53.76 24.064 53.76 53.76v182.272c0 9.728-7.68 17.408-17.408 17.408h-7.168c-3.072 26.624-26.112 48.128-53.76 48.128z m0-73.216c-10.752 0-18.944 8.704-18.944 18.944 0 10.752 8.704 18.944 18.944 18.944s18.944-8.704 18.944-18.944-8.704-18.944-18.944-18.944z m-219.136 0c-10.752 0-18.944 8.704-18.944 18.944 0 10.752 8.704 18.944 18.944 18.944s18.944-8.704 18.944-18.944c0.512-10.24-8.192-18.944-18.944-18.944z m174.08-10.24c9.728-14.848 26.624-24.064 44.544-24.064 17.408 0 33.28 8.704 43.52 22.528v-163.328c0-10.752-8.704-18.944-18.944-18.944H721.408c-10.752 0-18.944 8.704-18.944 18.944v164.864H773.632z m-105.984 0v-135.68h-47.616l-63.488 63.488v70.144c10.24-13.824 26.112-22.528 43.52-22.528 17.92 0 34.816 9.216 44.544 24.064h23.04z" fill="#999999" p-id="24269"></path><path d="M842.752 568.32c26.624 0 48.64 21.504 48.64 48.64v182.272c0 6.656-5.632 12.288-12.288 12.288h-12.288c0 26.624-21.504 48.64-48.64 48.64s-48.64-21.504-48.64-48.64h-121.344c0 26.624-21.504 48.64-48.64 48.64-26.624 0-48.64-21.504-48.64-48.64h-12.288c-6.656 0-12.288-5.632-12.288-12.288v-97.28c0-3.584 1.536-6.656 3.584-8.704 0.512-0.512 0-1.024 0.512-1.536l71.68-71.68c2.56-2.56 5.632-3.584 8.704-3.584H671.744c0-26.624 21.504-48.64 48.64-48.64h122.368m-145.92 219.136H776.704c8.192-14.336 24.064-24.064 41.984-24.064s33.28 9.728 41.984 24.064h6.656v-169.984c0-13.312-10.752-24.064-24.064-24.064H721.408c-13.312 0-24.064 10.752-24.064 24.064v169.984m-145.92 0h6.656c8.192-14.336 24.064-24.064 41.984-24.064 17.92 0 33.28 9.728 41.984 24.064h31.232v-145.92h-54.784l-66.56 66.56v79.36m266.752 48.64c13.312 0 24.064-10.752 24.064-24.064s-10.752-24.064-24.064-24.064-24.064 10.752-24.064 24.064c-0.512 13.312 10.24 24.064 24.064 24.064m-219.136 0c13.312 0 24.064-10.752 24.064-24.064s-10.752-24.064-24.064-24.064-24.064 10.752-24.064 24.064 10.752 24.064 24.064 24.064M842.752 558.08H721.408c-29.184 0-53.248 20.992-57.856 48.64H611.84c-6.144 0-11.776 2.56-15.872 6.656l-71.68 71.68c-1.024 1.024-1.536 2.048-2.048 3.072-3.584 4.096-5.12 9.216-5.12 14.336v97.28c0 12.288 10.24 22.528 22.528 22.528h2.56c4.608 27.648 29.184 48.64 57.856 48.64 29.184 0 53.248-20.992 57.856-48.64H760.832c4.608 27.648 29.184 48.64 57.856 48.64 29.184 0 53.248-20.992 57.856-48.64h2.56c12.288 0 22.528-10.24 22.528-22.528v-182.272c0-32.768-26.624-59.392-58.88-59.392z m-135.68 218.624v-159.744c0-7.68 6.144-13.824 13.824-13.824h121.344c7.68 0 13.824 6.144 13.824 13.824v150.016c-10.752-9.216-24.064-14.336-38.4-14.336-18.944 0-36.352 9.216-47.616 24.064h-62.976z m-84.992-124.928h40.448v125.44h-15.36c-11.264-15.36-28.672-24.064-47.616-24.064-14.336 0-27.648 5.12-38.4 14.336v-54.784l60.928-60.928z m196.608 173.568c-7.68 0-13.824-6.144-13.824-13.824 0-7.68 6.144-13.824 13.824-13.824 7.68 0 13.824 6.144 13.824 13.824 0 7.68-6.144 13.824-13.824 13.824z m-219.136 0c-7.68 0-13.824-6.144-13.824-13.824 0-7.68 6.144-13.824 13.824-13.824 7.68 0 13.824 6.144 13.824 13.824 0.512 7.68-5.632 13.824-13.824 13.824z" fill="#999999" p-id="24270"></path></svg>