<?xml version="1.0" standalone="no"?><!DOCTYPE svg PUBLIC "-//W3C//DTD SVG 1.1//EN" "http://www.w3.org/Graphics/SVG/1.1/DTD/svg11.dtd"><svg t="1532866086553" class="icon" style="" viewBox="0 0 1024 1024" version="1.1" xmlns="http://www.w3.org/2000/svg" p-id="25022" xmlns:xlink="http://www.w3.org/1999/xlink" width="48" height="48"><defs><style type="text/css"></style></defs><path d="M391.09632 463.78496H90.752a27.80672 27.80672 0 0 0-28.01664 28.01664 28.23168 28.23168 0 0 0 28.01664 28.01664h300.3392a28.01664 28.01664 0 1 0 0-56.03328z m-130.304 121.18016H90.752a27.80672 27.80672 0 0 0-28.01664 28.01664 28.22144 28.22144 0 0 0 28.01664 28.01152h170.0352a27.80672 27.80672 0 0 0 28.01664-28.01152 27.41248 27.41248 0 0 0-28.01664-28.01664z m518.6048 28.01664a18.048 18.048 0 0 0-0.65024-5.8624c0-0.65536-0.65024-1.95584-0.65024-2.6112s-0.65024-1.95584-0.65024-2.60608a6.9376 6.9376 0 0 1-1.31072-3.25632 2.4064 2.4064 0 0 1-0.64512-1.95584 24.576 24.576 0 0 0-3.91168-4.56192l-97.73056-96.41984a28.10368 28.10368 0 1 0-39.74144 39.74144l48.86528 48.86016h-166.77888a27.80672 27.80672 0 0 0-28.01664 28.02176 28.21632 28.21632 0 0 0 28.01664 28.0064h166.77888l-48.86528 48.86528a28.10368 28.10368 0 1 0 39.74144 39.74656l97.08032-97.08032a28.11392 28.11392 0 0 0 3.90144-4.5568c0.65536-0.65536 0.65536-1.3056 1.30048-1.95584a6.74816 6.74816 0 0 0 1.31072-3.25632 3.93728 3.93728 0 0 0 0.65024-2.6112c0-0.64512 0.65024-1.95072 0.65024-2.60608a5.01248 5.01248 0 0 0 0.65024-3.90656zM174.7968 705.49504H90.112a28.22656 28.22656 0 0 0-28.01664 28.01664 27.80672 27.80672 0 0 0 28.01664 28.01152h84.6848a28.01664 28.01664 0 1 0 0-56.02816z m763.56096-449.536l-77.52704-149.1968C841.9328 70.272 794.37824 40.96 752.67584 40.96h-475.5968C236.032 40.96 188.47744 69.632 168.92928 106.112l-77.53216 145.92C74.46528 283.3152 61.44 336.09216 61.44 371.92192v22.79936a28.01152 28.01152 0 1 0 56.02304 0v-22.79936c0-1.95584 0.65024-5.20704 0.65024-7.81824h791.58272a67.6608 67.6608 0 0 1 0.64512 11.07456v486.67648a27.80672 27.80672 0 0 1-28.01152 28.01664H146.12992a28.22656 28.22656 0 0 1-28.01664-28.01664v-34.5344a28.01152 28.01152 0 1 0-56.02816 0v35.18464A84.52608 84.52608 0 0 0 146.77504 947.2h736.2048A84.94592 84.94592 0 0 0 967.68 862.51008V375.808c0-35.84-12.38528-88.60672-29.32224-119.87456zM130.49344 307.42528a154.91584 154.91584 0 0 1 11.07456-28.672l77.52192-145.92c9.77408-18.24256 37.14048-35.17952 57.984-35.17952h476.25216c20.84864 0 48.21504 16.93696 57.984 35.17952L888.832 282.01472a167.8848 167.8848 0 0 1 10.42432 26.0608H130.49344v-0.65024z" p-id="25023" fill="#999999"></path></svg>