<?xml version="1.0" standalone="no"?><!DOCTYPE svg PUBLIC "-//W3C//DTD SVG 1.1//EN" "http://www.w3.org/Graphics/SVG/1.1/DTD/svg11.dtd"><svg t="1532866180815" class="icon" style="" viewBox="0 0 1024 1024" version="1.1" xmlns="http://www.w3.org/2000/svg" p-id="28470" xmlns:xlink="http://www.w3.org/1999/xlink" width="48" height="48"><defs><style type="text/css"></style></defs><path d="M443.8016 655.3088c-7.1168 8.533333-153.6512-68.8128-153.6512-80.196267 0-11.3664 145.117867-84.445867 153.6512-80.1792s0 47.1552 0 47.1552h117.879467c95.095467 0 172.168533 69.6832 172.168533 155.630934S656.776533 853.333333 561.681067 853.333333c0 0-176.622933 2.850133-183.739734 0-7.1168-2.833067-8.533333-57.4976 0-66.030933s183.739733 0 183.739734 0c54.7328 0 99.1232-40.106667 99.1232-89.582933 0-49.493333-44.3904-89.582933-99.1232-89.582934h-117.879467s7.1168 38.638933 0 47.172267zM1024 955.733333a68.266667 68.266667 0 0 1-68.266667 68.266667H68.266667C32.9216 1024 4.181333 997.034667 0.699733 962.6112 0.4608 960.324267 0 958.088533 0 955.733333V716.8a34.133333 34.133333 0 1 1 68.266667 0v204.8a34.133333 34.133333 0 0 0 34.133333 34.133333h819.2a34.133333 34.133333 0 0 0 34.133333-34.133333V409.6a34.133333 34.133333 0 0 0-34.133333-34.133333H102.4a34.133333 34.133333 0 0 0-34.133333 34.133333v153.6a34.133333 34.133333 0 1 1-68.266667 0V341.333333c0-4.369067 0.887467-8.516267 2.389333-12.356266l0.068267-0.2048c1.536-3.874133 3.7888-7.338667 6.536533-10.359467C39.748267 241.92 143.2064 0 221.866667 0h563.2c124.142933 0 211.268267 251.7504 233.3696 322.730667 3.498667 5.358933 5.563733 11.7248 5.563733 18.602666 0 7.3728-0.8192 13.038933-2.304 17.442134 1.365333 5.376 2.304 10.9056 2.304 16.6912v580.266666zM760.610133 68.266667h-511.146666c-58.862933 0-134.673067 163.908267-166.280534 238.933333h860.842667C918.272 232.174933 851.626667 68.266667 760.610133 68.266667z" p-id="28471" fill="#999999"></path></svg>