<?xml version="1.0" standalone="no"?><!DOCTYPE svg PUBLIC "-//W3C//DTD SVG 1.1//EN" "http://www.w3.org/Graphics/SVG/1.1/DTD/svg11.dtd"><svg t="1532866200014" class="icon" style="" viewBox="0 0 1063 1024" version="1.1" xmlns="http://www.w3.org/2000/svg" p-id="29220" xmlns:xlink="http://www.w3.org/1999/xlink" width="49.828125" height="48"><defs><style type="text/css"></style></defs><path d="M669.687704 531.067033c20.338168 0 36.796028-16.45786 36.796028-36.796028s-16.45786-36.796028-36.796028-36.796028H539.22906V438.876258l125.507906-127.381158c14.317-14.450804 14.049392-37.732654-0.401411-52.049654s-37.732654-14.049392-52.049654 0.401411l-109.986672 111.592317-109.986672-111.592317c-14.317-14.450804-37.59885-14.584607-52.049654-0.401411-14.450804 14.317-14.584607 37.59885-0.401411 52.049654l125.641709 127.514961v18.464916h-130.458643c-20.338168 0-36.796028 16.45786-36.796028 36.796028s16.45786 36.796028 36.796028 36.796028H465.637005v47.767934h-106.373971c-20.338168 0-36.796028 16.45786-36.796028 36.796027s16.45786 36.796028 36.796028 36.796028H465.637005v77.606168c0 20.338168 16.45786 36.796028 36.796028 36.796027s36.796028-16.45786 36.796027-36.796027v-77.606168h106.373971c20.338168 0 36.796028-16.45786 36.796028-36.796028s-16.45786-36.796028-36.796028-36.796027H539.22906v-47.767934h130.458644z" p-id="29221" fill="#999999"></path><path d="M1059.324187 673.166601c-9.500065-17.929701-31.845289-24.753691-49.774991-15.119822l-36.52842 19.535346C991.485692 624.729649 1000.851953 569.334901 1000.851953 512.602117c0-67.30328-13.24657-132.4657-39.204494-194.015419-25.155103-59.408859-61.014504-112.662747-106.775383-158.423625-45.760878-45.760878-99.014765-81.754083-158.423624-106.775382-61.415915-25.957925-126.712139-39.204495-194.015419-39.204495-67.035672 0-132.198092 13.112766-193.480204 38.936888-59.275056 24.887495-112.395139 60.746897-158.156017 106.240167-45.760878 45.493271-81.754083 98.479551-106.909186 157.620802C17.795897 378.129361 4.28172 443.157977 4.014112 510.059846c-0.401411 68.775121 13.112766 135.409382 40.141121 198.163334 25.957925 60.479289 63.155364 114.669803 110.655691 160.832092 47.366523 46.296093 102.493663 82.021691 163.508167 106.507775 58.739841 23.415654 120.423363 35.324187 183.578727 35.324187 5.084542 0 10.302888-0.133804 15.38743-0.267608 83.225924-2.408467 165.247615-25.957925 237.100222-68.106102 17.52829-10.302888 23.415654-32.781916 13.112766-50.310205-10.302888-17.52829-32.781916-23.415654-50.310205-13.112766-61.148308 35.859402-130.993859 55.929962-202.043643 57.937018-115.874036 3.478897-225.593101-39.338299-309.086633-120.690971-83.493532-81.352672-129.120606-190.001307-128.451587-306.009147 1.07043-232.952306 191.740755-422.552202 424.826865-422.552201C736.723376 87.775252 927.259898 278.445577 927.259898 512.602117c0 49.77499-8.429635 98.479551-25.288906 144.64184-0.535215 1.605645-1.07043 3.21129-1.338038 4.816934l-23.950869-44.690448c-9.633869-17.929701-31.845289-24.753691-49.77499-15.119822-17.929701 9.633869-24.753691 31.845289-15.119822 49.77499l49.105971 91.923167c12.17614 22.746635 35.591794 35.725598 59.810271 35.725598 10.704299 0 21.542402-2.542271 31.577682-7.89442l91.789364-48.972168c17.929701-9.366262 24.753691-31.711486 15.253626-49.641187z m-136.346009 30.908664s0.133804 0 0 0z" p-id="29222" fill="#999999"></path></svg>