<?xml version="1.0" standalone="no"?><!DOCTYPE svg PUBLIC "-//W3C//DTD SVG 1.1//EN" "http://www.w3.org/Graphics/SVG/1.1/DTD/svg11.dtd"><svg t="1532865631663" class="icon" style="" viewBox="0 0 1024 1024" version="1.1" xmlns="http://www.w3.org/2000/svg" p-id="22956" xmlns:xlink="http://www.w3.org/1999/xlink" width="48" height="48"><defs><style type="text/css"></style></defs><path d="M778.31 1013.76c-105.995 0-192.229-86.234-192.229-192.228s86.234-192.229 192.229-192.229c105.95 0 192.14 86.234 192.14 192.229s-86.19 192.228-192.14 192.228z m0-338.98c-80.886 0-146.686 65.833-146.686 146.752 0 80.93 65.8 146.774 146.686 146.774s146.686-65.845 146.686-146.774c0-80.919-65.8-146.752-146.686-146.752zM159.655 950.573c-58.511 0-106.105-47.56-106.105-106.017V116.4c0-58.544 47.594-106.16 106.105-106.16h614.928c58.522 0 106.128 47.616 106.128 106.16v449.474c0 12.472-10.179 22.605-22.694 22.605-12.56 0-22.782-10.134-22.782-22.605V116.4c0-33.423-27.16-60.628-60.54-60.628h-615.04c-33.435 0-60.65 27.205-60.65 60.628v728.245c0 33.38 27.215 60.54 60.65 60.54h376.098c12.516 0 22.694 10.179 22.694 22.694 0 12.517-10.179 22.694-22.694 22.694H159.655z m618.501-106.336c-12.516 0-22.694-10.179-22.694-22.705 0-1.114 0.077-2.217 0.243-3.286V726.52c0-12.527 10.178-22.717 22.694-22.717 12.549 0 22.76 10.19 22.76 22.717v72.317h54.123c12.516 0 22.694 10.178 22.694 22.694 0 12.526-10.179 22.705-22.694 22.705h-77.126z m-330.578-81.194c-12.516 0-22.694-10.244-22.694-22.849V577.188H256.431c-12.516 0-22.694-10.211-22.694-22.772 0-12.526 10.179-22.705 22.694-22.705h168.453v-73.928H282.411c-12.56 0-22.782-10.167-22.782-22.672 0-12.56 10.223-22.782 22.782-22.782h122.27L268.286 234.557c-7.587-9.814-5.756-24.094 4.102-31.824 4.125-3.11 8.888-4.699 13.883-4.699 7.146 0 13.708 3.242 18.009 8.91l143.266 186.66 143.246-186.681c4.366-5.657 10.95-8.889 18.062-8.889 5.018 0 9.77 1.599 13.751 4.632 4.896 3.804 7.984 9.23 8.723 15.328 0.738 5.999-0.893 11.9-4.61 16.619l-136.21 177.716h122.305c12.582 0 22.804 10.223 22.804 22.782 0 12.505-10.222 22.672-22.804 22.672H470.25v73.928h168.388c12.527 0 22.716 10.179 22.716 22.705 0.056 6.021-2.282 11.744-6.583 16.067-4.29 4.322-10.024 6.704-16.133 6.704H470.25v162.917c0 12.65-10.167 22.939-22.672 22.939z" p-id="22957" fill="#999999"></path></svg>