<?xml version="1.0" standalone="no"?><!DOCTYPE svg PUBLIC "-//W3C//DTD SVG 1.1//EN" "http://www.w3.org/Graphics/SVG/1.1/DTD/svg11.dtd"><svg t="1532866102682" class="icon" style="" viewBox="0 0 1024 1024" version="1.1" xmlns="http://www.w3.org/2000/svg" p-id="25761" xmlns:xlink="http://www.w3.org/1999/xlink" width="48" height="48"><defs><style type="text/css"></style></defs><path d="M965.818182 269.963636c-11.636364-6.981818-46.545455-2.327273-62.836364-2.327272h-160.581818c51.2-86.109091 6.981818-183.854545-67.490909-211.781819-58.181818-23.272727-139.636364 4.654545-158.254546 46.545455 0 0-2.327273 0-2.327272 2.327273-88.436364-139.636364-321.163636-13.963636-230.4 160.581818v2.327273c-46.545455 0-221.090909-9.309091-237.381818 11.636363v202.472728c6.981818 16.290909 27.927273 13.963636 53.527272 13.963636v470.109091c4.654545 4.654545 6.981818 9.309091 13.963637 11.636363h795.927272c23.272727-11.636364 13.963636-83.781818 13.963637-118.690909V488.727273c23.272727 0 37.236364 0 48.872727-11.636364 6.981818-27.927273 6.981818-197.818182-6.981818-207.127273zM491.054545 926.254545h-349.090909V488.727273H488.727273v437.527272h2.327272z m0-481.745454H88.436364v-132.654546H488.727273v137.309091l2.327272-4.654545z m0-179.2h-148.945454c-9.309091-18.618182-25.6-27.927273-32.581818-51.2-18.618182-67.490909 32.581818-134.981818 100.072727-125.672727 88.436364 16.290909 81.454545 74.472727 81.454545 176.872727z m125.672728-174.545455c62.836364-11.636364 116.363636 53.527273 102.4 116.363637-4.654545 25.6-20.945455 41.890909-34.909091 58.181818H535.272727c-2.327273-102.4-6.981818-160.581818 81.454546-174.545455z m262.981818 835.490909H535.272727V488.727273h344.436364v437.527272zM930.909091 444.509091H535.272727v-132.654546h395.636364v132.654546z" fill="#999999" p-id="25762"></path></svg>