<?xml version="1.0" standalone="no"?><!DOCTYPE svg PUBLIC "-//W3C//DTD SVG 1.1//EN" "http://www.w3.org/Graphics/SVG/1.1/DTD/svg11.dtd"><svg t="1532866142587" class="icon" style="" viewBox="0 0 1024 1024" version="1.1" xmlns="http://www.w3.org/2000/svg" p-id="26981" xmlns:xlink="http://www.w3.org/1999/xlink" width="48" height="48"><defs><style type="text/css"></style></defs><path d="M729.4 446.8c-155.8 0-282.6 126.8-282.6 282.6S573.6 1012 729.4 1012 1012 885.2 1012 729.4 885.2 446.8 729.4 446.8z m0 521.7c-131.9 0-239.1-107.3-239.1-239.1s107.3-239.1 239.1-239.1 239.1 107.3 239.1 239.1-107.3 239.1-239.1 239.1z" fill="#999999" p-id="26982"></path><path d="M875.2 583.6c-8.5-8.5-22.2-8.5-30.7 0L729.4 698.7 614.3 583.6c-8.5-8.5-22.2-8.5-30.7 0s-8.5 22.2 0 30.7l115.1 115.1-115.1 115.1c-8.5 8.5-8.5 22.2 0 30.7 4.2 4.2 9.8 6.4 15.4 6.4s11.1-2.1 15.4-6.4l115.1-115.1 115.1 115.1c4.2 4.2 9.8 6.4 15.4 6.4s11.1-2.1 15.4-6.4c8.5-8.5 8.5-22.2 0-30.7L760.1 729.4l115.1-115.1c8.5-8.5 8.5-22.2 0-30.7z" fill="#999999" p-id="26983"></path><path d="M425 968.5H55.5V272.9h826.1v108.7c0 12 9.7 21.7 21.7 21.7s21.7-9.7 21.7-21.7V251.1c0-3.2-0.7-6.1-2-8.9-0.3-0.8-1-1.4-1.4-2.1-1.1-1.8-2.3-3.6-3.9-5-0.2-0.2-0.3-0.5-0.6-0.7L656.4 17c-3.9-3.2-8.8-5-13.9-5H294.6c-5.1 0-10 1.8-13.9 5L19.8 234.4c-0.2 0.2-0.3 0.5-0.6 0.7-1.6 1.4-2.8 3.2-3.9 5-0.4 0.7-1.1 1.3-1.4 2.1-1.2 2.7-2 5.7-2 8.9v739.1c0 12 9.7 21.7 21.7 21.7H425c12 0 21.7-9.7 21.7-21.7 0.1-12-9.6-21.7-21.7-21.7z m418.3-739.1h-353V55.5h144.3l208.7 173.9zM302.5 55.5h144.3v173.9h-353L302.5 55.5z" fill="#999999" p-id="26984"></path></svg>