<?xml version="1.0" standalone="no"?><!DOCTYPE svg PUBLIC "-//W3C//DTD SVG 1.1//EN" "http://www.w3.org/Graphics/SVG/1.1/DTD/svg11.dtd"><svg t="1532866169098" class="icon" style="" viewBox="0 0 1024 1024" version="1.1" xmlns="http://www.w3.org/2000/svg" p-id="27729" xmlns:xlink="http://www.w3.org/1999/xlink" width="48" height="48"><defs><style type="text/css"></style></defs><path d="M722.98783 277.197276 293.763069 277.197276c-23.719214 0-42.933835 15.830547-42.933835 35.340903 0 19.511379 19.213597 35.340903 42.933835 35.340903l429.224762 0c23.697725 0 42.933835-15.8285 42.933835-35.340903C765.922688 293.027823 746.686578 277.197276 722.98783 277.197276z" p-id="27730" fill="#999999"></path><path d="M581.537238 535.12365 294.930661 535.12365c-24.360827 0-44.100404 15.781428-44.100404 35.245735 0 19.466354 19.7406 35.248805 44.100404 35.248805l286.606577 0c24.360827 0 44.101427-15.782451 44.101427-35.248805C625.638665 550.905078 605.898065 535.12365 581.537238 535.12365z" p-id="27731" fill="#999999"></path><path d="M571.00844 907.493519 168.553369 907.493519c-5.102205 0-9.253758-3.956102-9.253758-8.818853L159.299611 124.790144c0-4.850471 4.151553-8.79634 9.253758-8.79634l679.211303 0c5.102205 0 9.253758 3.945869 9.253758 8.79634l0 539.677363 51.16531 0L908.183739 124.790144c0-33.063023-27.103288-59.96165-60.419068-59.96165L168.553369 64.828494c-33.31578 0-60.419068 26.898627-60.419068 59.96165l0 773.884522c0 33.075303 27.103288 59.984163 60.419068 59.984163L571.00844 958.658829 571.00844 907.493519z" p-id="27732" fill="#999999"></path><path d="M814.966685 830.280973l73.574692-71.601758c13.539364-13.166881 13.539364-34.546817 0-47.712675-13.537318-13.189394-35.504632-13.189394-49.045019 0l-73.571622 71.589478-73.563436-71.589478c-13.560854-13.167904-35.504632-13.167904-49.045019 0-13.560854 13.189394-13.560854 34.545794 0 47.733141l73.558319 71.584362-73.558319 71.577199c-13.560854 13.18837-13.560854 34.543747 0 47.733141 13.539364 13.189394 35.484166 13.189394 49.045019 0l73.556273-71.583338 73.577762 71.604828c13.539364 13.167904 35.507702 13.167904 49.045019 0 13.539364-13.190417 13.539364-34.545794 0-47.733141L814.966685 830.280973z" p-id="27733" fill="#999999"></path></svg>