<?xml version="1.0" encoding="utf-8"?>
<svg version="1.1" xmlns:xlink="http://www.w3.org/1999/xlink" width="40px" height="40px" xmlns="http://www.w3.org/2000/svg">
  <g transform="matrix(1 0 0 1 -270 -190 )">
    <path d="M 271 210  A 19 19 0 0 1 290 191 A 19 19 0 0 1 309 210 A 19 19 0 0 1 290 229 A 19 19 0 0 1 271 210 Z " fill-rule="nonzero" fill="#ffffff" stroke="none" />
    <path d="M 270.5 210  A 19.5 19.5 0 0 1 290 190.5 A 19.5 19.5 0 0 1 309.5 210 A 19.5 19.5 0 0 1 290 229.5 A 19.5 19.5 0 0 1 270.5 210 Z " stroke-width="1" stroke-dasharray="3,1" stroke="#0079fe" fill="none" stroke-dashoffset="0.5" />
  </g>
</svg>