<?xml version="1.0" encoding="utf-8"?>
<svg version="1.1" xmlns:xlink="http://www.w3.org/1999/xlink" width="22px" height="19px" xmlns="http://www.w3.org/2000/svg">
  <g transform="matrix(1 0 0 1 -390 -165 )">
    <path d="M 21.491087046875 6.8555898984375  C 21.896364265625 6.0720651328125  21.896364265625 5.1365074453125  21.4910390703125 4.352958703125  C 21.2613707890625 3.9090436875  20.85410290625 3.5596965234375  20.3442805625 3.3693136171875  L 12.80652715625 0.5548218515625  C 11.7859471015625 0.0713096718750004  10.274324 0.1741519453125  9.4265947578125 0.5516560078125  L 1.8803511171875 3.369313640625  C 1.3705287734375 3.5596965703125  0.963260914062498 3.9090197109375  0.733616609374998 4.35293475  C 0.328267437499998 5.136459515625  0.328267437499998 6.072041203125  0.733616609374998 6.8555899453125  C 0.963284890624998 7.2995289609375  1.3705527734375 7.648852125  1.8803751171875 7.8392110546875  L 2.4730852578125 8.0605090078125  L 2.4730852578125 14.657476265625  C 2.2520511171875 14.83620309375  2.1099714453125 15.109209984375  2.1099714453125 15.41389940625  L 2.1099714453125 17.4383908125  C 2.1099714453125 17.9734920234375  2.547770609375 18.4112911875  3.0828718203125 18.4112911875  L 3.3023230390625 18.4112911875  C 3.83742425 18.4112911875  4.2752234140625 17.9734920234375  4.2752234140625 17.4383908125  L 4.2752234140625 15.41389940625  C 4.2752234140625 15.109209984375  4.1331437421875 14.83620309375  3.9121096015625 14.657476265625  L 3.912109578125 8.597840671875  L 4.272585171875 8.73243740625  L 4.272585171875 12.4339917421875  C 4.272585171875 13.0837592109375  4.8994001796875 13.48879659375  5.105396515625 13.6219063359375  C 5.4900956796875 13.870497796875  6.021191609375 14.11170225  6.6412432109375 14.319449390625  C 8.04532325 14.789866453125  9.7363927109375 15.0489387890625  11.402974765625 15.0489387890625  C 13.0695568203125 15.0489387890625  14.7606502578125 14.7898664296875  16.164730296875 14.319449390625  C 16.784805875 14.11170225  17.315877828125 13.8704977734375  17.700553015625 13.6219063359375  C 17.9065493515625 13.48879659375  18.533364359375 13.0837592109375  18.533364359375 12.4339917421875  L 18.5333643828125 8.515408546875  L 20.3443045625 7.839234984375  C 20.854174859375 7.6488760546875  21.261418765625 7.299552890625  21.491087046875 6.8555898984375  Z M 17.094268109375 9.0527162578125  L 17.0942680859375 12.28637184375  C 16.9156132109375 12.4446645234375  16.3623083515625 12.7683011015625  15.3592844140625 13.06457221875  C 14.1685876953125 13.4162457890625  12.7635483125 13.60993846875  11.4029028359375 13.60993846875  C 10.0422813359375 13.60993846875  8.6372179765625 13.4162457890625  7.446569234375 13.06457221875  C 6.443521296875 12.7682771015625  5.8902164375 12.4446405234375  5.7115615625 12.28634784375  L 5.7115615625 9.26976909375  L 9.441176890625 10.6623609140625  C 9.923058171875 10.8546145546875  10.4846853828125 10.9507893515625  11.0632930859375 10.9507893515625  C 11.6319475390625 10.950765375  12.2169109296875 10.857780421875  12.75788815625 10.67159465625  L 12.7667141796875 10.66854871875  L 17.094268109375 9.0527162578125  Z M 20.2128976484375 5.014166390625  C 20.4040480625 5.3836598671875  20.4040480625 5.824888734375  20.2129216484375 6.1943822109375  C 20.148597265625 6.3186899296875  20.0130171875 6.4268326171875  19.8408858828125 6.4911090234375  L 12.281331265625 9.31375528125  C 11.5246442890625 9.5718922734375  10.59666546875 9.5760414609375  9.9693228125 9.32370853125  L 9.960952484375 9.3203508046875  L 2.38369784375 6.4911090234375  C 2.2115905390625 6.42685659375  2.0760104609375 6.31871390625  2.011686078125 6.1943822109375  C 1.8205356875 5.824864734375  1.8205356875 5.383659890625  2.011686078125 5.014166390625  C 2.0760104609375 4.889858671875  2.2115905390625 4.7816920078125  2.38369784375 4.717439578125  L 9.977237421875 1.8821059453125  L 10.00122115625 1.8710973984375  C 10.277561796875 1.7441035078125  10.71691990625 1.6684587890625  11.15582234375 1.6684587890625  C 11.5438552578125 1.6684587890625  11.93152840625 1.7276026875  12.2057345 1.8627270703125  L 12.2381844921875 1.87872421875  L 19.8408618828125 4.717439578125  C 20.0129931875 4.7817160078125  20.148573265625 4.889858671875  20.2128976484375 5.014166390625  Z " fill-rule="nonzero" fill="#1abc9c" stroke="none" transform="matrix(1 0 0 1 390 165 )" />
  </g>
</svg>