<?xml version="1.0" encoding="utf-8"?>
<svg version="1.1" xmlns:xlink="http://www.w3.org/1999/xlink" width="22px" height="16px" xmlns="http://www.w3.org/2000/svg">
  <g transform="matrix(1 0 0 1 -390 -1313 )">
    <path d="M 21.2673787109375 2.749645734375  C 21.620923015625 3.1031900390625  21.620923015625 3.67935140625  21.2673787109375 4.0328956875  L 9.7050339921875 15.5952164296875  C 9.60027303125 15.699977390625  9.4955360234375 15.7655009765625  9.364584828125 15.804738375  C 8.9979214296875 16.0666168125  8.4872596484375 16.0273554375  8.1599056015625 15.6999774140625  L 0.8794497265625 8.4064264453125  C 0.5128103046875 8.0397870234375  0.5128103046875 7.4505305390625  0.8794497265625 7.0838911171875  L 2.54243421875 5.4340017421875  C 2.9090976171875 5.06733834375  3.4983061484375 5.06733834375  3.864969546875 5.4340017421875  L 8.984850265625 10.5539064375  L 18.386619875 1.139041734375  C 18.7401641796875 0.7854974296875  19.3163255234375 0.7854974296875  19.669869828125 1.139041734375  L 21.2673787109375 2.749645734375  Z " fill-rule="nonzero" fill="#1abc9c" stroke="none" transform="matrix(1 0 0 1 390 1313 )" />
  </g>
</svg>