<?xml version="1.0" encoding="utf-8"?>
<svg version="1.1" xmlns:xlink="http://www.w3.org/1999/xlink" width="10px" height="6px" xmlns="http://www.w3.org/2000/svg">
  <g transform="matrix(1 0 0 1 -34 -360 )">
    <path d="M 9.0875 2.2125  C 9.0875 2.2125  8.9375 0.675  7.1375 0.675  C 5.3375 0.675  2.75 0.675  2.75 0.675  C 2.75 0.675  1.1375 0.5625  0.912500000000001 2.325  L 0.912500000000001 3.45  C 0.912500000000001 3.45  1.025 5.0625  2.7125 5.0625  L 7.5125 5.0625  C 7.5125 5.0625  8.975 4.9875  9.0875 3.3375  L 9.0875 2.2125  Z M 7.625 3.225  C 7.625 3.45  7.475 3.6  7.25 3.6  L 2.75 3.6  C 2.525 3.6  2.375 3.45  2.375 3.225  L 2.375 2.5125  C 2.375 2.2875  2.525 2.1375  2.75 2.1375  L 7.25 2.1375  C 7.475 2.1375  7.625 2.2875  7.625 2.5125  L 7.625 3.225  Z " fill-rule="nonzero" fill="#ffffff" stroke="none" transform="matrix(1 0 0 1 34 360 )" />
  </g>
</svg>