<?xml version="1.0" encoding="utf-8"?>
<svg version="1.1" xmlns:xlink="http://www.w3.org/1999/xlink" width="24px" height="22px" xmlns="http://www.w3.org/2000/svg">
  <g transform="matrix(1 0 0 1 -39 -1011 )">
    <path d="M 11.9807700584795 21.4795321637427  C 11.5002086549708 21.4795321637427  11.0555770760234 21.2459883040936  10.7950858479532 20.8522573099415  L 0.200278830409357 2.68973099415205  C -0.0542240935672515 2.30797660818713  -0.0617094736842105 1.82292397660819  0.173331461988304 1.38428070175439  C 0.430828538011696 0.900725146198831  0.923366549707602 0.601309941520468  1.45782269005848 1  L 22.6549221052632 1  C 23.1564425730994 0.601309941520468  23.5801150877193 0.854315789473685  23.8151560233918 1.29445614035088  C 24.0561852631579 1.74357894736842  24.0352261988304 2.27653801169591  23.7657525146199 2.68374269005848  L 13.1634601169591 20.8582456140351  C 12.9044659649123 21.2459883040936  12.4613314619883 21.4795321637427  11.9807700584795 21.4795321637427  Z M 2.06264140350877 2.93225730994152  C 2.03120280701754 2.93225730994152  1.99826713450292 2.94573099415205  1.97431391812865 2.96968421052632  C 1.93838409356725 3.0086081871345  1.93239578947368 3.06699415204678  1.95934315789474 3.11340350877193  L 11.1948051461988 19.0108538011696  C 11.2172612865497 19.0482807017544  11.2576823391813 19.0707368421053  11.2996004678363 19.0707368421053  C 11.31008 19.0707368421053  11.3205595321637 19.0692397660819  11.3310390643275 19.0677426900585  C 11.3834367251462 19.0527719298246  11.420863625731 19.004865497076  11.420863625731 18.9494736842105  L 11.420863625731 11.2290526315789  C 11.420863625731 11.2065964912281  11.4148753216374 11.1856374269006  11.4043957894737 11.1661754385965  L 8.52701567251462 6.32163742690059  C 8.51503906432749 6.30217543859649  8.49857122807017 6.28720467836257  8.47910923976608 6.27672514619883  L 2.11953029239766 2.94573099415205  C 2.10156538011696 2.9367485380117  2.08210339181287 2.93225730994152  2.06264140350877 2.93225730994152  Z M 22.0501033918129 3.08346198830409  C 22.0306414035088 3.08346198830409  22.0141735672515 3.08795321637427  21.9962086549708 3.09693567251462  L 15.6366297076023 6.27672514619883  C 15.6156706432749 6.28720467836257  15.5992028070175 6.30367251461988  15.5872261988304 6.32313450292398  L 12.7098460818713 11.1676725146199  C 12.6978694736842 11.1856374269006  12.6918811695906 11.2080935672515  12.6918811695906 11.2290526315789  L 12.6918811695906 18.9494736842105  C 12.6918811695906 19.004865497076  12.727810994152 19.0527719298246  12.7817057309942 19.0662456140351  C 12.7921852631579 19.0692397660819  12.804161871345 19.0707368421053  12.8131443274854 19.0707368421053  C 12.8550624561404 19.0707368421053  12.8954835087719 19.0482807017544  12.9179396491228 19.0108538011696  L 22.1534016374269 3.2646081871345  C 22.1818460818713 3.21819883040936  22.1743607017544 3.15981286549708  22.1369338011696 3.12088888888889  C 22.1144776608187 3.09693567251462  22.0815419883041 3.08346198830409  22.0501033918129 3.08346198830409  Z M 10.3908753216374 6.41445614035088  C 10.3474601169591 6.41445614035088  10.3085361403509 6.43691228070176  10.28608 6.47433918128655  C 10.2636238596491 6.51026900584796  10.2636238596491 6.5566783625731  10.2845829239766 6.5941052631579  L 11.9493314619883 9.62269005847953  C 11.9717876023392 9.66011695906433  12.0107115789474 9.6840701754386  12.0541267836257 9.68556725146199  L 12.0556238596491 9.68556725146199  C 12.0990390643275 9.68556725146199  12.1379630409357 9.66311111111111  12.1589221052632 9.62718128654971  L 13.9763723976608 6.59859649122807  C 14.0003256140351 6.56116959064328  14.0003256140351 6.51326315789474  13.9778694736842 6.47583625730994  C 13.9569104093567 6.43840935672515  13.9164893567251 6.41445614035088  13.8730741520468 6.41445614035088  L 10.3908753216374 6.41445614035088  Z M 3.27527298245614 2  L 3.27527298245614 1.87232748538012  C 3.21838409356725 1.87232748538012  3.17047766081871 1.90975438596491  3.15700397660819 1.96514619883041  C 3.14353029239766 2.01904093567252  3.16898058479532 2.0759298245614  3.21838409356725 2.10138011695906  L 9.12285192982456 5.1299649122807  C 9.14081684210526 5.13745029239766  9.16027883040936 5.14194152046784  9.17974081871345 5.14194152046784  L 14.9330039766082 5.14194152046784  C 14.9524659649123 5.14194152046784  14.970430877193 5.13745029239766  14.9883957894737 5.12846783625731  L 20.892863625731 2.09988304093567  C 20.9422671345029 2.07443274853801  20.969214502924 2.01754385964912  20.9557408187135 1.96364912280702  C 20.9422671345029 1.90825730994152  20.8943607017544 1.87083040935672  20.8374718128655 2  L 3.27527298245614 2  Z " fill-rule="nonzero" fill="#ffffff" stroke="none" transform="matrix(1 0 0 1 39 1011 )" />
  </g>
</svg>