<?xml version="1.0" encoding="utf-8"?>
<svg version="1.1" xmlns:xlink="http://www.w3.org/1999/xlink" width="22px" height="22px" xmlns="http://www.w3.org/2000/svg">
  <g transform="matrix(1 0 0 1 -30 -680 )">
    <path d="M 20.56015821875 6.788095671875  L 14.7278405234375 2.1033998984375  C 13.732491359375 1.3048133515625  12.3296824765625 1.397894234375  11.594940640625 2.3129698203125  L 2.7792856484375 13.2890080625  C 2.0446397421875 14.2035080234375  2.2548092421875 15.5930539296875  3.25015840625 16.3937030703125  L 9.0817805703125 21.0779431484375  C 10.0777293125 21.8764097890625  11.4806341484375 21.78277728125  12.215256078125 20.8682533203125  L 21.0309110703125 9.8927906796875  C 21.7667561328125 8.978770390625  21.55543540625 7.5881932109375  20.56015821875 6.788095671875  Z M 8.458323265625 18.0386757734375  C 8.232852125 18.3211082890625  7.624240765625 18.20891234375  7.101850953125 17.78967659375  C 6.57840584375 17.3693615703125  6.3388802421875 16.8002034453125  6.5655025859375 16.518250625  C 6.7921249296875 16.235818109375  7.3997049921875 16.3474384296875  7.9220948046875 16.767153875  C 8.4450842421875 17.187420921875  8.684945609375 17.7562672578125  8.458323265625 18.0386757734375  Z M 19.0769798046875 10.290704890625  L 13.6272507265625 17.0746253984375  C 12.828184484375 18.0704782109375  11.7971955078125 18.570731046875  11.326898375 18.1908286015625  L 5.584543671875 13.579451140625  C 5.113167265625 13.2012995234375  5.378091640625 12.0877824921875  6.178309109375 11.091354078125  L 11.6280142109375 4.305802671875  C 12.4270324765625 3.312492125  13.458045453125 2.8119275234375  13.9293738828125 3.190199046875  L 19.6712009140625 7.8020322265625  C 20.141953765625 8.1819346484375  19.8764777421875 9.296387046875  19.0769798046875 10.290704890625  Z M 8.062495625 0.379784515625  C 6.4283395859375 0.430821921875  4.508849 1.5223938359375  2.9342206015625 3.297094578125  C 1.284499109375 5.155906296875  0.39228003125 7.3243001328125  0.5476706796875 9.0958590078125  C 0.575299953125 9.413931359375  0.856221476562499 9.649139890625  1.17381415625 9.6213906875  C 1.1785629453125 9.620911015625  1.182880015625 9.620359390625  1.18762878125 9.61987971875  C 1.498817796875 9.58529515625  1.727670640625 9.308690703125  1.6993458359375 8.9942159140625  C 1.573335265625 7.555215546875  2.3783015 5.6665680546875  3.7991941484375 4.0653656796875  C 5.1462648359375 2.547027125  6.794331453125 1.57563771875  8.0997423828125 1.5362084609375  C 8.4210765078125 1.52671090625  8.669620015625 1.2585487109375  8.659522859375 0.93930115625  C 8.648850078125 0.6201975078125  8.3817431796875 0.3695674296875  8.062495625 0.379784515625  Z M 8.1450236796875 2.7215567890625  C 6.9544708671875 2.748706390625  5.62653921875 3.5185124609375  4.584973390625 4.76868884375  C 3.525659609375 6.0400908359375  3.00650759375 7.5290972890625  3.19703440625 8.7510927734375  C 3.244258390625 9.0586122734375  3.525779515625 9.2714199921875  3.8311884453125 9.2374110546875  C 3.839654703125 9.236259828125  3.8481209609375 9.2352045546875  3.85661121875 9.2336935859375  C 4.172573 9.184143171875  4.3886424921875 8.888951328125  4.339667703125 8.5734452421875  C 4.2013534765625 7.688181453125  4.636610375 6.513529859375  5.4739546484375 5.5090908828125  C 6.293191203125 4.525445796875  7.3284972734375 3.9078885078125  8.1764663515625 3.8770214375  C 8.494514703125 3.8748149375  8.747854953125 3.602479578125  8.739268765625 3.283256  C 8.7302029296875 2.96417628125  8.464247234375 2.711891328125  8.1450236796875 2.7215567890625  Z " fill-rule="nonzero" fill="#ffffff" stroke="none" transform="matrix(1 0 0 1 30 680 )" />
  </g>
</svg>