<?xml version="1.0" encoding="utf-8"?>
<svg version="1.1" xmlns:xlink="http://www.w3.org/1999/xlink" width="110px" height="35px" xmlns="http://www.w3.org/2000/svg">
  <g transform="matrix(1 0 0 1 -1082 -93 )">
    <path d="M 1083 98  A 4 4 0 0 1 1087 94 L 1187 94  A 4 4 0 0 1 1191 98 L 1191 123  A 4 4 0 0 1 1187 127 L 1087 127  A 4 4 0 0 1 1083 123 L 1083 98  Z " fill-rule="nonzero" fill="#f0f7ff" stroke="none" />
    <path d="M 1082.5 98  A 4.5 4.5 0 0 1 1087 93.5 L 1187 93.5  A 4.5 4.5 0 0 1 1191.5 98 L 1191.5 123  A 4.5 4.5 0 0 1 1187 127.5 L 1087 127.5  A 4.5 4.5 0 0 1 1082.5 123 L 1082.5 98  Z " stroke-width="1" stroke="#7abbff" fill="none" stroke-opacity="0.996078431372549" />
  </g>
</svg>