<?xml version="1.0" encoding="utf-8"?>
<svg version="1.1" xmlns:xlink="http://www.w3.org/1999/xlink" width="43px" height="37px" xmlns="http://www.w3.org/2000/svg">
  <g transform="matrix(1 0 0 1 -303 -99 )">
    <path d="M 42.04577896875 34.667377515625  C 42.04050253125 35.912037625  41.25676190625 36.919978234375  40.292135953125 37  L 1.853445375 37  C 0.886181203125 36.919978234375  0.105030796875 35.912037625  0.105030796875 34.667377515625  L 0.105030796875 3.100699703125  C 0.105030796875 1.852633890625  0.88618115625 0.844741234375  1.853445375 0.84474128125  C 2.82070959375 0.844741328125  3.601859953125 1.8526339375  4 3.100699703125  L 4 32  L 40.297364390625 32  C 41.261990390625 32.411419046875  42.04577896875 33.42271740625  42.04577896875 34.667377515625  Z M 39.770441625 10.328631203125  C 39.678727828125 10.450324703125  39.581737546875 10.545060484375  39.479518875 10.636390515625  L 30.097895625 22.7381055625  C 29.4294688125 23.59720309375  28.344252609375 23.59720309375  27.675825796875 22.7381055625  C 27.594568875 22.633248671875  27.550007109375 22.49457465625  27.489711984375 22.372833203125  L 19.324352109375 11.837064484375  L 10.8785743125 22.7381055625  C 10.2101475 23.59720309375  9.124931296875 23.59720309375  8.456504484375 22.7381055625  C 7.790715890625 21.875650328125  7.790715890625 20.4753836875  8.456504484375 19.61628615625  L 17.956079765625 7.358964625  C 18.00327975 7.2845670625  18.021603328125 7.200000390625  18.071393578125 7.132366234375  C 18.755553703125 6.24957278125  19.8669601875 6.24957278125  20.54853009375 7.132366234375  C 20.569491890625 7.1628255625  20.577358546875 7.203406046875  20.59832034375 7.23381746875  L 28.93928915625 17.992826875  L 37.17799134375 7.358964625  C 37.225191328125 7.2845670625  37.24351490625 7.200000390625  37.29330515625 7.132366234375  C 37.97746528125 6.24957278125  39.088871765625 6.24957278125  39.770441625 7.132366234375  C 40.452011484375 8.0151596875  40.45460175 9.44924340625  39.770441625 10.328631203125  Z " fill-rule="nonzero" fill="#1abc9c" stroke="none" transform="matrix(1 0 0 1 303 99 )" />
  </g>
</svg>