<?xml version="1.0" encoding="utf-8"?>
<svg version="1.1" xmlns:xlink="http://www.w3.org/1999/xlink" width="48px" height="48px" xmlns="http://www.w3.org/2000/svg">
  <g transform="matrix(1 0 0 1 -860 -96 )">
    <path d="M 1.38044371874997 47.9996378260443  C 2.10728957812515 48.0052728668739  36.1338185156251 47.9432869489468  36.8493954843751 47.9432869489468  C 37.5593379843751 47.9432869489468  38.1340533281251 47.3234278165565  38.15659115625 46.5288811058045  L 38.1678600937501 46.0329938092683  L 38.1903979687501 46.0329938092683  C 38.2073013750002 45.6723484771255  38.2185703125 45.3567838466607  38.2185703125 45.0524893447352  C 38.2185703125 36.526608625033  33.491254921875 28.9812323698639  26.1720859687501 25.8255858308148  L 25.3494541875002 25.4705755863818  L 26.0763000468751 24.9465128512968  C 29.5809367500001 22.410725444638  31.6713229218752 18.1731429560407  31.6713229218752 13.6199958369786  C 31.6713229218752 6.10843006118783  26.0368587656251 0  19.1064678750002 0  C 12.176076984375 0  6.54161282812518 6.10843006118783  6.54161282812518 13.6199958369786  C 6.54161282812518 18.1731430029209  8.63199904687515 22.4107254915182  12.136635703125 24.9465128512968  L 12.8634815625002 25.4705755863818  L 12.04084978125 25.8255858308148  C 4.727315390625 28.9868674106935  0 36.5322436658626  0 45.0524893447352  C 0 45.3567838466607  0.0112689375001058 45.6667133894158  0.0281723437501507 46.0329938092683  L 0.0619791093751405 46.0329938092683  L 0.0676135781250795 46.540151281224  C 0.0676135781250795 47.3459681673955  0.659232328125195 47.9996378260443  1.38044371874997 47.9996378260443  Z M 33.6208475156251 26.7046587634527  C 36.91137459375 27.0991145749738  39.8863716562502 28.8009096569123  42.0218335312501 31.5113846419328  C 44.1460265156251 34.2105894515337  45.3179950312501 37.7550567143941  45.3179950312501 41.4911168187455  C 45.3179950312501 42.3138389680462  45.920882671875 42.9787787552343  46.6589975156252 42.9787787552343  C 47.3745744843751 42.9787787552343  47.9605587187502 42.3532845351342  47.9887310625001 41.5531027366726  L 47.9943655312501 41.5080220818747  C 47.9943655312501 41.502386994165  47.9943655312501 41.4911168187455  48 41.4854817310357  C 47.9887310625001 34.3909121176051  44.0558751093752 28.1190646065949  37.9706538281251 25.4987509780503  L 37.1480220468751 25.1437407336173  L 37.8748679062501 24.6196779985324  C 40.7878858593751 22.5177920173629  42.5289352968751 19.001500146171  42.5289352968751 15.2147242993121  C 42.5289352968751 9.97409699534268  39.2665805625001 5.47730070649783  34.584340875 4.24321752942693  L 34.5561685312501 4.25448770484641  L 34.4265758437501 4.24321752942693  C 34.3984035000002 4.24321752942693  34.3702312031251 4.23758244171719  34.3420588593752 4.23194735400744  C 34.3307899218751 4.23194735400744  34.319520984375 4.2263122662977  34.3082520937502 4.2263122662977  C 33.558868359375 4.2263122662977  32.95034625 4.90815731661504  32.95034625 5.7365145536255  C 32.95034625 6.48598060957971  33.4349101875001 7.11147482967977  34.1054114062501 7.22417649011438  L 34.167390515625 7.23544666553386  L 34.2237351562502 7.25798701637282  C 34.291348734375 7.28616245492159  34.3871346093752 7.3199729342999  34.511092828125 7.35378341367821  C 34.5392651718751 7.35941850138795  34.5561685312501 7.36505358909769  34.5674374687502 7.37068867680744  C 37.643854875 8.49770528115347  39.71170321875 11.6082711654048  39.71170321875 15.1020226857577  C 39.71170321875 19.0071352807609  37.1423875781252 22.3600097021305  33.5926751718751 23.1151108457944  L 33.5363305312502 23.1489213251727  L 33.41800678125 23.1545564128824  C 32.5784716406251 23.2109072430998  31.9192393125002 23.9829136498929  31.9192393125002 24.9070672373286  C 31.9192393125002 25.8537611756033  32.5953750000001 26.6257675823964  33.4574480156252 26.6652131494844  L 33.5701372968751 26.6708482371942  L 33.6208475156251 26.7046587634527  Z " fill-rule="nonzero" fill="#1abc9c" stroke="none" transform="matrix(1 0 0 1 860 96 )" />
  </g>
</svg>