<?xml version="1.0" encoding="utf-8"?>
<svg version="1.1" xmlns:xlink="http://www.w3.org/1999/xlink" width="16px" height="16px" xmlns="http://www.w3.org/2000/svg">
  <g transform="matrix(1 0 0 1 -13 -7 )">
    <path d="M 7.99946645932322 0  L 8.00006506593619 0.000572581169862059  C 8.20471044845069 0.000572581169862059  8.37705710023894 0.0705576159802024  8.51705296855201 0.210527685600883  L 12.1535360896348 3.84701672197277  C 12.2935319579479 3.98703884442706  12.3635168789172 4.15938577656324  12.3635168789172 4.36405751838117  C 12.3635168789172 4.57245103780333  12.2944428810546 4.74573492094477  12.1562948853294 4.88388314138852  C 12.0180948368553 5.02205738824902  11.8448372619603 5.09113149847095  11.6365221606446 5.09113149847095  C 11.4317726726321 5.09113149847095  11.2594260208439 5.02114646366061  11.1194301525308 4.88112434120632  L 8.72763236444731 2.4834146658858  L 8.72763236444731 10.9094410826989  C 8.72763236444731 11.1101047563276  8.65658036212448 11.2815407638753  8.51439827835531 11.4238011581755  C 8.37213811546277 11.5659314203916  8.20072841315567 11.6370095647082  8.00006506593619 11.6370095647082  C 7.7992976132188 11.6370095647082  7.62786188453723 11.5659314203916  7.48570582714257 11.4238011581755  C 7.34344566424999 11.2815407638753  7.27236763555266 11.1101047563276  7.27236763555266 10.9094410826989  L 7.27236763555266 2.4834146658858  L 4.88064792659261 4.88112434120632  C 4.73302633055771 5.02114646366061  4.56065365239499 5.09113149847095  4.36358194485336 5.09113149847095  C 4.16281449213597 5.09113149847095  3.9913787634544 5.02005335415438  3.84919667968526 4.87789706552148  C 3.70696254316719 4.73574077688846  3.63588451446986 4.56427874292406  3.63588451446986 4.36353699004492  C 3.63588451446986 4.16646496193639  3.70589546181363 3.99411802980021  3.84589133012666 3.84644414080291  L 7.48237445120949 0.209955104431021  C 7.62234429314805 0.0699850348103403  7.7947169713108 0  7.99946645932322 0  Z M 15.2739942839575 10.1817684950224  L 15.2724327014889 10.1817684950224  C 15.4731741278318 10.1817684950224  15.6446619092623 10.2528206129221  15.7867919402825 10.3950549808055  C 15.9289479976771 10.5372372958553  16 10.7086993298198  16 10.9094410826989  L 16 13.8182575313943  C 16 14.4244127789706  15.7898890788453 14.9376537185242  15.36945902554 15.3580584293057  C 14.9415073500108 15.786010800963  14.4300890915331 16  13.835152197358 16  L 2.18173891967772 16  C 1.58724447386869 16  1.07210444384077 15.7878586765566  0.636527040589755 15.3634719240028  C 0.212114951989457 14.9278677858026  0 14.4127529442383  0 13.8182575313943  L 0 10.9094410826989  C 0 10.7086993298198  0.0710520023228603 10.5372372958553  0.213234086091993 10.3950549808055  C 0.355468222610067 10.2528206129221  0.526903951291638 10.1817684950224  0.727671404009028 10.1817684950224  C 0.928334751228535 10.1817684950224  1.09977047991008 10.2528206129221  1.24200461642818 10.3950549808055  C 1.38418670019731 10.5372372958553  1.45523870252017 10.7086993298198  1.45523870252017 10.9094410826989  L 1.45523870252017 13.8182575313943  C 1.45523870252017 14.0189992842735  1.526290704843 14.1904613182379  1.66847278861217 14.332617606871  C 1.81070692513024 14.4747999219207  1.98216868018628 14.5458520398203  2.1829101065292 14.5458520398203  L 13.836245305086 14.5458520398203  C 14.0333430390022 14.5458520398203  14.2009528906355 14.4747999219207  14.3391789654841 14.332617606871  C 14.4773269612093 14.1904613182379  14.5464269854464 14.0189992842735  14.5464269854464 13.8182575313943  L 14.5464269854464 10.9094410826989  C 14.5464269854464 10.7086993298198  14.6174529613948 10.5372372958553  14.7596350451639 10.3950549808055  C 14.9018952080565 10.2528206129221  15.073330936738 10.1817684950224  15.2739942839575 10.1817684950224  Z " fill-rule="nonzero" fill="#999999" stroke="none" transform="matrix(1 0 0 1 13 7 )" />
  </g>
</svg>