<?xml version="1.0" encoding="utf-8"?>
<svg version="1.1" xmlns:xlink="http://www.w3.org/1999/xlink" width="43px" height="43px" xmlns="http://www.w3.org/2000/svg">
  <g transform="matrix(1 0 0 1 -20 -99 )">
    <path d="M 37.4453125 41.575  C 37.4453125 40.796875  36.79375 40.16875  35.9921875 40  L 2.3921875 40  C 1.590625 40.16875  0.94375 40.796875  0.94375 41.575  C 0.94375 42.353125  1.590625 42.98125  2.3921875 43  L 35.9921875 43  C 36.79375 42.98125  37.4453125 42.353125  37.4453125 41.575  Z M 5.425 8.8234375  C 5.228125 9.5734375  5.6921875 10.3421875  6.465625 10.5390625  C 6.5875 10.571875  6.709375 10.5859375  6.83125 10.5859375  C 7.4734375 10.5859375  8.0640625 10.16875  8.2328125 9.5359375  C 8.7015625 7.80625  9.3484375 7.375  10.1640625 6.83125  C 11.1953125 6.146875  12.484375 5.2984375  12.8875 2.575  C 13 1.80625  12.4515625 1.09375  11.659375 0.981249999999999  C 10.8671875 0.873437499999999  10.13125 1.403125  10.01875 2.171875  C 9.79375 3.671875  9.34375 3.971875  8.528125 4.5109375  C 7.5296875 5.171875  6.165625 6.071875  5.425 8.8234375  Z M 39.8546875 19.796875  C 40.103125 21.2078125  40.31875 23.14375  39.23125 24.6015625  C 38.678125 25.3421875  37.7828125 25.834375  36.6203125 26.096875  C 37.1359375 24.53125  37.3890625 22.8578125  37.3890625 21.1234375  L 37.3890625 19.796875  L 39.8546875 19.796875  Z M 34.4875 17  L 34.4875 21.128125  L 34.4875 21  L 4.046875 21  L 4.046875 17  L 34.4875 17  Z M 41.5890625 26.2046875  C 44.05 22.88125  42.428125 18.1328125  42.3578125 17.93125  L 42.025 16.9984375  L 37.3890625 16.9984375  L 37.3890625 15.353125  C 37.3890625 14.575  36.79375 14.190625  35.9921875 15  L 2.3921875 15  C 1.590625 14.190625  1.1453125 14.575  1.1453125 15.353125  L 1.1453125 21.1328125  C 1.1453125 30.128125  8.4953125 37.365625  17.78125 37.365625  L 20.5984375 37.365625  C 26.903125 37.365625  32.4015625 34.0328125  35.2890625 29.0546875  C 38.1625 28.8953125  40.2859375 27.9625  41.5890625 26.2046875  Z M 25.703125 8.8234375  C 25.5015625 9.5734375  25.965625 10.3421875  26.7390625 10.5390625  C 26.8609375 10.571875  26.9875 10.5859375  27.1046875 10.5859375  C 27.7515625 10.5859375  28.3375 10.16875  28.50625 9.5359375  C 28.975 7.80625  29.621875 7.375  30.4421875 6.83125  C 31.4734375 6.146875  32.7578125 5.2984375  33.165625 2.575  C 33.278125 1.80625  32.7296875 1.09375  31.9375 0.981249999999999  C 31.140625 0.873437499999999  30.4140625 1.403125  30.296875 2.171875  C 30.071875 3.671875  29.621875 3.971875  28.80625 4.5109375  C 27.8078125 5.171875  26.44375 6.0765625  25.703125 8.8234375  Z M 15.55 8.8234375  C 15.353125 9.5734375  15.8171875 10.3421875  16.590625 10.5390625  C 16.7125 10.571875  16.8390625 10.5859375  16.95625 10.5859375  C 17.5984375 10.5859375  18.1890625 10.16875  18.3578125 9.5359375  C 18.8265625 7.80625  19.4734375 7.375  20.2890625 6.83125  C 21.3203125 6.146875  22.609375 5.2984375  23.0125 2.575  C 23.1296875 1.80625  22.5765625 1.09375  21.784375 0.981249999999999  C 20.9921875 0.873437499999999  20.25625 1.403125  20.14375 2.171875  C 19.91875 3.671875  19.46875 3.971875  18.653125 4.5109375  C 17.6546875 5.171875  16.290625 6.0765625  15.55 8.8234375  Z " fill-rule="nonzero" fill="#1abc9c" stroke="none" transform="matrix(1 0 0 1 20 99 )" />
  </g>
</svg>