<?xml version="1.0" encoding="utf-8"?>
<svg version="1.1" xmlns:xlink="http://www.w3.org/1999/xlink" width="150px" height="150px" xmlns="http://www.w3.org/2000/svg">
  <g transform="matrix(1 0 0 1 -52 -1143 )">
    <path d="M 127 1143  C 169 1143  202 1176  202 1218  C 202 1260  169 1293  127 1293  C 85 1293  52 1260  52 1218  C 52 1176  85 1143  127 1143  Z " fill-rule="nonzero" fill="#e9e9e9" stroke="none" />
    <path d="M 127 1143.5  C 168.72 1143.5  201.5 1176.28  201.5 1218  C 201.5 1259.72  168.72 1292.5  127 1292.5  C 85.28 1292.5  52.5 1259.72  52.5 1218  C 52.5 1176.28  85.28 1143.5  127 1143.5  Z " stroke-width="1" stroke="#ffffff" fill="none" />
  </g>
</svg>